<?xml version="1.0" encoding="UTF-8" standalone="no"?>
<!DOCTYPE svg PUBLIC "-//W3C//DTD SVG 1.1//EN" "http://www.w3.org/Graphics/SVG/1.1/DTD/svg11.dtd">
<!-- Generated by graphviz version 2.40.1 (20161225.0304)
 -->
<!-- Title: G Pages: 1 -->
<svg width="663pt" height="416pt" viewBox="0.00 0.00 663.30 415.63" xmlns="http://www.w3.org/2000/svg" xmlns:xlink="http://www.w3.org/1999/xlink">
<g id="graph0" class="graph" transform="scale(1 1) rotate(0) translate(4 411.6313)">
<title>G</title>
<polygon fill="#ffffff" stroke="transparent" points="-4,4 -4,-411.6313 659.3031,-411.6313 659.3031,4 -4,4"/>
<!-- minters -->
<g id="node1" class="node">
<title>minters</title>
<polygon fill="#ffd700" stroke="#000000" points="308.0001,-407.4322 236.4089,-362.8313 308.0001,-318.2304 379.5913,-362.8313 308.0001,-407.4322"/>
<text text-anchor="middle" x="308.0001" y="-358.6313" font-family="Times,serif" font-size="14.00" fill="#000000">Minters</text>
</g>
<!-- minters&#45;&gt;minters -->
<g id="edge1" class="edge">
<title>minters-&gt;minters</title>
<path fill="none" stroke="#000000" d="M361.7488,-374.0329C405.7984,-378.6648 451.5457,-374.9309 451.5457,-362.8313 451.5457,-351.6533 412.5023,-347.6152 371.8234,-350.7169"/>
<polygon fill="#000000" stroke="#000000" points="371.3921,-347.2415 361.7488,-351.6297 372.0239,-354.2129 371.3921,-347.2415"/>
<text text-anchor="middle" x="533.0131" y="-358.6313" font-family="Times,serif" font-size="14.00" fill="#000000">  Mint DOSC with Elasticoin</text>
</g>
<!-- metauction -->
<g id="node2" class="node">
<title>metauction</title>
<polygon fill="none" stroke="#000000" points="377.6072,-265.1317 238.3929,-265.1317 238.3929,-220.5308 377.6072,-220.5308 377.6072,-265.1317"/>
<text text-anchor="middle" x="308.0001" y="-238.6313" font-family="Times,serif" font-size="14.00" fill="#000000">Sym/DOSC auction</text>
</g>
<!-- minters&#45;&gt;metauction -->
<g id="edge2" class="edge">
<title>minters-&gt;metauction</title>
<path fill="none" stroke="#000000" d="M264.0241,-345.6161C234.0278,-331.1453 202.4833,-308.7681 218.9405,-283.2313 221.9871,-278.5039 225.7363,-274.3235 229.9554,-270.6277"/>
<polygon fill="#000000" stroke="#000000" points="232.1794,-273.3333 238.007,-264.485 227.9336,-267.7679 232.1794,-273.3333"/>
<text text-anchor="middle" x="256.5299" y="-287.4313" font-family="Times,serif" font-size="14.00" fill="#000000">  Bid DOSC  </text>
</g>
<!-- metauction&#45;&gt;minters -->
<g id="edge3" class="edge">
<title>metauction-&gt;minters</title>
<path fill="none" stroke="#000000" d="M308.0001,-265.3451C308.0001,-277.4107 308.0001,-292.8503 308.0001,-307.8663"/>
<polygon fill="#000000" stroke="#000000" points="304.5002,-308.1477 308.0001,-318.1477 311.5002,-308.1477 304.5002,-308.1477"/>
<text text-anchor="middle" x="351.9405" y="-287.4313" font-family="Times,serif" font-size="14.00" fill="#000000">  Print new sym</text>
</g>
<!-- central -->
<g id="node3" class="node">
<title>central</title>
<polygon fill="none" stroke="#000000" points="388.7549,-167.6313 227.2453,-167.6313 227.2453,-111.6313 388.7549,-111.6313 388.7549,-167.6313"/>
<text text-anchor="start" x="252.0162" y="-142.0313" font-family="Times,serif" font-size="14.00" fill="#000000">Central mechanism </text>
<text text-anchor="start" x="241.1228" y="-128.0313" font-family="Times,serif" font-size="14.00" fill="#000000"> (peg 1 mel to</text>
<text text-anchor="start" x="318.8844" y="-128.0313" font-family="Times,serif" font-style="italic" font-size="14.00" fill="#000000">k</text>
<text text-anchor="start" x="325.8844" y="-128.0313" font-family="Times,serif" font-size="14.00" fill="#000000">  DOSC)</text>
</g>
<!-- metauction&#45;&gt;central -->
<g id="edge4" class="edge">
<title>metauction-&gt;central</title>
<path fill="none" stroke="#000000" d="M308.0001,-220.4384C308.0001,-208.0357 308.0001,-192.2762 308.0001,-177.9742"/>
<polygon fill="#000000" stroke="#000000" points="311.5002,-177.8865 308.0001,-167.8866 304.5002,-177.8866 311.5002,-177.8865"/>
<text text-anchor="middle" x="383.6176" y="-189.8313" font-family="Times,serif" font-size="14.00" fill="#000000"> Sym/DOSC exchange rate</text>
</g>
<!-- arb1 -->
<g id="node4" class="node">
<title>arb1</title>
<ellipse fill="#ffc0cb" stroke="#000000" cx="137.0001" cy="-29.4156" rx="81.2501" ry="29.3315"/>
<text text-anchor="middle" x="137.0001" y="-33.6156" font-family="Times,serif" font-size="14.00" fill="#000000">Arbitrageur</text>
<text text-anchor="middle" x="137.0001" y="-16.8156" font-family="Times,serif" font-size="14.00" fill="#000000">(price below peg)</text>
</g>
<!-- central&#45;&gt;arb1 -->
<g id="edge6" class="edge">
<title>central-&gt;arb1</title>
<path fill="none" stroke="#000000" d="M227.0319,-132.6746C142.7609,-124.596 21.0503,-110.2351 6.7897,-93.6313 -13.6376,-69.8476 16.5252,-54.0159 52.9393,-44.0237"/>
<polygon fill="#000000" stroke="#000000" points="54.0061,-47.3634 62.8195,-41.4834 52.2629,-40.5839 54.0061,-47.3634"/>
<text text-anchor="start" x="7.0001" y="-82.0313" font-family="Times,serif" font-size="14.00" fill="#000000"> Print 0.95</text>
<text text-anchor="start" x="65.7245" y="-82.0313" font-family="Times,serif" font-style="italic" font-size="14.00" fill="#000000">k</text>
<text text-anchor="start" x="72.7245" y="-82.0313" font-family="Times,serif" font-size="14.00" fill="#000000">  DOSC worth of sym</text>
</g>
<!-- arb2 -->
<g id="node5" class="node">
<title>arb2</title>
<ellipse fill="#f0ffff" stroke="#000000" cx="468.0001" cy="-29.4156" rx="80.6432" ry="29.3315"/>
<text text-anchor="middle" x="468.0001" y="-33.6156" font-family="Times,serif" font-size="14.00" fill="#000000">Arbitrageur</text>
<text text-anchor="middle" x="468.0001" y="-16.8156" font-family="Times,serif" font-size="14.00" fill="#000000">(price above peg)</text>
</g>
<!-- central&#45;&gt;arb2 -->
<g id="edge8" class="edge">
<title>central-&gt;arb2</title>
<path fill="none" stroke="#000000" d="M333.6935,-111.3915C345.1119,-99.8116 359.1514,-86.8131 373.2799,-76.8313 383.5905,-69.5468 395.1826,-62.7595 406.6275,-56.7265"/>
<polygon fill="#000000" stroke="#000000" points="408.4427,-59.7292 415.7471,-52.0549 405.2512,-53.4991 408.4427,-59.7292"/>
<text text-anchor="middle" x="413.8602" y="-81.0313" font-family="Times,serif" font-size="14.00" fill="#000000">Print 0.95 mel</text>
</g>
<!-- arb1&#45;&gt;central -->
<g id="edge5" class="edge">
<title>arb1-&gt;central</title>
<path fill="none" stroke="#000000" d="M176.9975,-55.1954C200.554,-70.3784 230.6133,-89.7527 255.9949,-106.1121"/>
<polygon fill="#000000" stroke="#000000" points="254.1056,-109.0583 264.4071,-111.534 257.8979,-103.1746 254.1056,-109.0583"/>
<text text-anchor="middle" x="276.1565" y="-81.0313" font-family="Times,serif" font-size="14.00" fill="#000000">  Destroy 1 mel</text>
</g>
<!-- arb2&#45;&gt;central -->
<g id="edge7" class="edge">
<title>arb2-&gt;central</title>
<path fill="none" stroke="#000000" d="M477.0438,-58.6996C478.897,-70.6093 478.409,-83.8421 471.0001,-93.6313 461.4317,-106.2737 430.9983,-116.4279 398.9774,-123.9466"/>
<polygon fill="#000000" stroke="#000000" points="397.9948,-120.5802 389.0102,-126.1952 399.5354,-127.4086 397.9948,-120.5802"/>
<text text-anchor="start" x="478.0001" y="-82.0313" font-family="Times,serif" font-size="14.00" fill="#000000"> Destroy</text>
<text text-anchor="start" x="525.8171" y="-82.0313" font-family="Times,serif" font-style="italic" font-size="14.00" fill="#000000">k</text>
<text text-anchor="start" x="532.8171" y="-82.0313" font-family="Times,serif" font-size="14.00" fill="#000000">  DOSC worth of sym</text>
</g>
</g>
</svg>