<?xml version="1.0" standalone="no"?>
<!DOCTYPE svg PUBLIC "-//W3C//DTD SVG 20010904//EN"
 "http://www.w3.org/TR/2001/REC-SVG-20010904/DTD/svg10.dtd">
<svg version="1.0" xmlns="http://www.w3.org/2000/svg"
 width="4000.000000pt" height="2844.000000pt" viewBox="0 0 4000.000000 2844.000000"
 preserveAspectRatio="xMidYMid meet">
<metadata>
Created by potrace 1.16, written by Peter Selinger 2001-2019
</metadata>
<g transform="translate(0.000000,2844.000000) scale(0.100000,-0.100000)"
fill="#000000" stroke="none">
<path d="M13646 28008 c-3 -7 -7 -1001 -10 -2208 -3 -1207 -9 -2213 -12 -2236
-6 -39 -10 -43 -78 -79 -39 -21 -168 -91 -286 -155 -423 -230 -726 -394 -795
-430 -38 -20 -200 -106 -360 -192 -159 -85 -391 -208 -515 -273 -124 -65 -229
-121 -235 -125 -5 -4 -59 -33 -119 -64 -78 -41 -112 -54 -120 -46 -8 8 -12
818 -14 2800 l-3 2790 -3290 0 -3289 0 0 -6014 c0 -5475 1 -6014 16 -6020 20
-8 6528 -8 6548 0 14 6 16 63 16 544 0 295 3 586 7 645 l6 108 146 -6 c80 -3
232 -13 336 -21 251 -20 463 -35 667 -46 92 -5 206 -14 255 -20 48 -5 124 -10
168 -10 44 0 118 -4 165 -10 47 -5 153 -14 235 -20 292 -20 530 -42 538 -50 5
-4 12 -1830 15 -4056 l7 -4049 2505 -5 2505 -5 42 -25 c87 -52 329 -206 447
-286 16 -10 44 -28 63 -39 19 -11 100 -63 181 -116 161 -105 444 -288 882
-569 157 -101 350 -226 430 -277 366 -237 562 -363 646 -416 l91 -57 8 -3218
c4 -1769 9 -3219 12 -3222 3 -3 1189 -5 2636 -5 l2632 0 5 1385 5 1385 65 32
c36 18 173 83 305 144 132 62 314 147 405 189 91 42 291 136 445 207 154 72
323 152 375 178 52 26 138 66 190 90 52 24 230 107 394 185 165 77 311 144
326 146 l27 6 6 -228 c4 -125 7 -906 7 -1736 l0 -1508 2634 0 2634 0 4 759 c1
418 6 763 10 767 5 4 44 9 88 12 84 5 113 19 91 46 -7 9 -39 15 -86 18 -42 2
-80 9 -87 16 -11 11 -14 907 -18 4705 l-5 4692 -2631 3 -2631 2 -5 -1411 c-4
-850 -10 -1415 -15 -1420 -6 -6 -48 -4 -111 6 -56 8 -123 15 -148 15 -25 0
-92 7 -148 15 -55 8 -222 30 -371 50 -560 73 -769 103 -985 145 -52 10 -138
26 -190 35 -52 9 -126 23 -165 31 -84 17 -278 58 -357 75 l-58 12 0 3451 c0
1898 -3 3475 -6 3504 l-7 52 -2627 0 -2628 0 -6 -22 c-3 -13 -6 -693 -6 -1512
l0 -1488 -1254 3 c-690 2 -1258 8 -1263 12 -4 5 -9 1396 -11 3091 -2 1801 -7
3088 -12 3096 -8 13 -348 15 -2637 15 l-2628 0 -5 -1407 c-3 -773 -8 -1410
-12 -1414 -5 -4 -81 -2 -170 4 -487 35 -581 42 -663 47 -49 3 -133 10 -185 16
-133 13 -480 38 -700 49 -102 6 -195 12 -207 15 -12 3 -111 10 -220 15 -203
10 -339 25 -364 41 -12 7 -14 360 -14 2461 0 1349 3 2465 7 2479 6 22 43 44
215 134 115 60 309 162 433 228 124 65 306 162 405 215 209 111 666 357 1115
601 173 94 322 171 331 171 25 0 29 -266 29 -1832 l0 -1398 2640 0 2640 0 0
764 0 764 283 7 c368 9 2223 2 2234 -8 4 -5 9 -1065 11 -2356 2 -1357 7 -2353
12 -2362 8 -12 354 -14 2637 -14 l2628 0 6 758 c4 417 9 760 11 762 2 2 39 7
83 10 118 9 125 12 125 40 0 29 -12 33 -122 37 -42 2 -80 6 -83 10 -4 4 -10
1401 -13 3105 l-7 3098 -2635 0 -2635 0 -7 -1498 c-3 -824 -8 -1500 -11 -1503
-8 -8 -2495 -9 -2504 -1 -4 5 -10 1402 -13 3105 l-5 3097 -2633 3 c-2101 2
-2633 0 -2636 -10z m5194 -3128 l0 -3070 -188 0 -189 0 -6 197 c-4 108 -7 344
-7 525 l0 328 -2170 0 -2170 0 0 -1095 0 -1095 2165 0 2165 0 5 23 c2 12 6
248 7 524 2 276 7 505 11 510 15 14 355 9 370 -6 9 -9 11 -170 9 -728 -1 -394
-4 -718 -6 -720 -7 -8 -5105 -7 -5113 0 -10 11 -16 2782 -6 3037 l8 194 70 38
c101 53 107 52 156 -37 27 -50 47 -75 59 -75 10 0 35 19 55 43 21 23 110 122
198 219 l160 178 1861 2 1861 3 0 1090 0 1090 -1866 3 -1867 2 -3 -1040 c-3
-880 -6 -1042 -18 -1049 -15 -10 -112 -29 -276 -57 -55 -9 -142 -25 -194 -35
-52 -10 -105 -19 -118 -19 -33 0 -30 -27 12 -104 49 -90 47 -100 -25 -136 -44
-22 -62 -27 -64 -18 -13 41 -17 956 -10 2545 l7 1803 2559 0 2558 0 0 -3070z
m-7810 46 l0 -2784 -22 -14 c-13 -8 -239 -125 -503 -259 l-480 -244 -2190 -5
-2190 -5 -3 -1092 -2 -1093 2170 0 2170 0 0 1053 0 1052 515 259 c284 142 519
256 523 252 9 -10 15 -4388 7 -4684 l-7 -222 -25 -6 c-14 -4 -80 -1 -147 6
-66 7 -287 25 -491 39 l-370 26 -5 605 -5 605 -2165 0 -2165 0 0 -1095 0
-1095 2165 0 2165 0 6 385 c3 212 7 415 8 451 1 49 5 68 16 73 8 3 88 -1 178
-9 211 -18 463 -35 657 -44 86 -4 161 -10 167 -14 20 -12 25 -212 17 -729 l-7
-518 -3207 0 -3207 0 -6 887 c-4 487 -7 3163 -7 5945 l0 5058 3220 0 3220 0 0
-2784z m6735 1065 l300 -6 7 -150 c4 -82 4 -542 1 -1021 l-6 -871 -1596 -6
c-878 -3 -1681 -3 -1786 1 l-190 7 -3 1022 -2 1023 902 3 c1692 4 2073 4 2373
-2z m8892 -1255 c2 -1 4 -1377 5 -3057 3 -2527 1 -3059 -10 -3086 -11 -26 -11
-35 0 -55 11 -19 12 -157 10 -742 -1 -396 -4 -721 -6 -723 -7 -7 -5115 -7
-5123 0 -4 5 -10 1055 -11 2333 l-4 2324 44 0 c24 0 49 -5 56 -12 7 -7 12 -43
12 -92 0 -102 7 -115 52 -97 18 7 47 16 63 21 17 4 62 20 100 34 39 15 93 36
120 47 28 10 55 19 61 19 6 0 38 11 72 25 34 14 74 25 90 25 l29 0 6 -187 c4
-104 7 -335 7 -515 l0 -328 1859 0 1859 0 6 23 c8 29 8 2115 0 2145 l-6 22
-1858 0 -1857 0 -6 -516 c-4 -284 -9 -519 -12 -522 -5 -6 -14 -3 -185 58 -63
23 -128 45 -145 50 -16 4 -68 22 -115 39 -47 17 -96 30 -110 29 -24 -3 -25 -6
-30 -91 -5 -91 -13 -107 -55 -107 -53 0 -50 -100 -53 1486 l-3 1466 2568 -7
c1412 -4 2569 -8 2570 -9z m-9804 -1943 l1517 -6 0 -1017 0 -1017 -1522 -6
c-838 -4 -1781 -7 -2096 -7 l-572 0 2 1023 3 1022 70 6 c110 9 952 10 2598 2z
m9033 -5 c2 -3 5 -460 6 -1017 3 -890 1 -1013 -12 -1021 -17 -11 -2987 -14
-3358 -3 l-233 6 3 487 c2 395 6 490 17 503 11 14 11 20 0 34 -11 13 -15 97
-17 427 -2 226 -1 453 3 505 l7 94 1790 -5 c984 -3 1791 -8 1794 -10z m-15983
-2000 c4 -413 7 -874 7 -1023 l0 -272 -377 -6 c-456 -8 -3208 -7 -3558 2
l-250 6 -7 110 c-4 61 -5 521 -1 1023 l6 912 2087 0 2087 0 6 -752z m8930
-1087 c9 -9 11 -750 9 -3068 -1 -1681 -3 -3058 -5 -3059 -1 -1 -89 -6 -194
-10 l-193 -7 -2 529 -3 529 -2167 3 -2168 2 0 -1090 0 -1090 2168 2 2167 3 3
529 2 529 193 -7 c105 -4 193 -9 194 -10 2 -1 4 -1047 5 -2325 3 -2055 1
-2323 -12 -2332 -20 -13 -146 -1 -182 17 -26 14 -131 81 -435 280 -62 41 -113
79 -113 84 0 6 15 11 33 11 17 1 95 4 172 8 l140 6 0 1095 0 1095 -2168 3
-2167 2 2 -1097 3 -1098 1916 -7 1916 -6 69 -49 c38 -27 107 -73 154 -102 245
-153 342 -218 341 -227 0 -5 -113 -12 -268 -15 -373 -9 -3291 -10 -3965 -2
l-556 6 -6 1071 c-8 1227 5 6961 16 6971 4 4 19 4 33 1 l26 -7 -3 -104 -3
-105 29 0 c15 0 49 6 75 14 25 8 71 21 101 29 30 8 91 25 135 37 75 22 205 56
251 67 19 4 21 -1 27 -73 4 -42 7 -308 7 -591 l0 -513 1868 2 1867 3 3 1098 2
1097 -1869 0 -1869 0 -4 -445 c-2 -329 -6 -447 -15 -456 -9 -9 -23 -8 -60 8
-26 12 -143 62 -259 112 -116 50 -221 91 -233 91 -17 0 -21 -6 -21 -34 0 -18
-3 -61 -6 -95 l-7 -61 -43 0 -44 0 0 1380 0 1380 1278 3 c2228 6 3822 1 3835
-12z m-8933 -2374 l0 -1024 -1658 -7 c-913 -3 -1853 -3 -2089 0 l-430 7 -8
136 c-4 74 -4 535 1 1023 l7 888 2088 0 2089 0 0 -1023z m8167 420 c11 -11 11
-2033 0 -2044 -11 -11 -3563 -11 -3574 0 -7 8 -12 865 -6 1092 1 44 0 279 -3
523 l-6 443 1790 -3 c985 -2 1794 -7 1799 -11z m7928 -1237 l662 0 7 -2744 c4
-1509 4 -3063 0 -3455 -7 -705 -7 -711 -27 -711 -21 0 -95 18 -193 46 -28 7
-59 14 -68 14 -10 0 -40 10 -67 21 l-49 21 0 864 0 864 -2160 0 -2160 0 0
-1100 0 -1100 2160 0 2160 0 0 190 c0 220 -13 202 121 170 46 -12 116 -28 154
-36 102 -23 118 -33 128 -79 5 -22 5 -175 2 -341 l-7 -301 -1727 -5 c-949 -3
-2102 -3 -2562 0 l-836 5 -7 485 c-4 267 -4 1315 0 2329 l7 1843 43 0 42 0 7
-77 c11 -139 7 -135 101 -102 32 11 73 24 89 29 37 11 121 41 195 70 30 12 69
25 85 30 17 5 44 14 61 21 52 21 60 10 67 -83 4 -45 7 -275 7 -511 l0 -427
1863 2 1862 3 0 1085 0 1085 -1862 3 -1863 2 -1 -447 c-1 -247 -4 -477 -8
-513 -6 -65 -6 -65 -36 -64 -16 1 -75 18 -130 38 -55 20 -138 50 -185 66 -47
16 -112 38 -144 50 -94 32 -90 36 -101 -102 l-7 -78 -42 0 -43 0 -6 1097 c-4
603 -7 1267 -7 1476 l0 380 1907 -6 c1048 -4 2204 -7 2568 -7z m-9192 -1957
l1567 -6 0 -1017 0 -1017 -1567 -6 c-863 -4 -1805 -7 -2095 -7 l-528 0 0 1030
0 1030 528 0 c290 0 1232 -3 2095 -7z m8520 -3 l567 0 0 -1018 0 -1019 -1433
-7 c-788 -4 -1598 -4 -1801 0 l-369 7 7 496 c8 594 8 448 0 1043 l-7 498 239
3 c132 2 687 2 1234 1 547 -2 1250 -4 1563 -4z m-3873 -3402 c0 -1466 4 -2359
10 -2368 8 -13 312 -15 2637 -15 l2628 0 7 364 c4 200 9 366 12 368 2 2 57 -7
123 -21 236 -52 408 -86 568 -111 55 -9 145 -25 200 -36 55 -10 161 -28 235
-38 74 -11 167 -24 205 -30 221 -33 283 -41 310 -41 17 0 75 -6 130 -15 93
-14 247 -32 605 -73 l145 -17 9 -2259 c5 -1454 5 -2265 -1 -2275 -13 -21 -38
-34 -358 -183 -148 -70 -400 -188 -560 -263 -159 -75 -319 -150 -355 -167 -36
-17 -175 -82 -310 -146 -135 -63 -310 -145 -390 -182 -80 -37 -237 -111 -349
-164 -113 -53 -207 -93 -210 -90 -3 3 -8 1119 -9 2480 l-4 2474 -2636 -2
-2637 -3 -6 -635 c-3 -349 -7 -636 -8 -637 -7 -13 -43 8 -294 172 -68 44 -169
109 -225 145 -56 36 -159 102 -229 147 -144 93 -301 194 -444 286 -53 34 -154
99 -225 145 -71 46 -179 116 -241 155 -62 40 -201 130 -310 200 -109 70 -286
184 -393 254 -107 69 -214 138 -238 153 -47 31 -40 40 28 40 25 0 40 5 44 16
3 9 6 951 6 2093 0 1143 3 2200 7 2349 l6 272 176 3 c97 1 663 4 1259 5 l1082
2 0 -2352z m12723 805 l308 -6 -3 -4661 c-3 -3965 -5 -4665 -17 -4689 -12 -23
-12 -31 0 -54 12 -22 14 -141 11 -747 -1 -396 -4 -721 -6 -723 -7 -8 -5105 -7
-5113 0 -4 5 -10 782 -11 1728 l-4 1718 76 36 c84 39 114 43 122 17 20 -58 42
-106 61 -130 l22 -27 113 111 c156 153 288 274 297 274 5 0 11 -25 14 -56 3
-31 9 -59 12 -63 4 -3 842 -6 1863 -6 l1857 0 3 1093 2 1092 -1865 0 -1865 0
-1 -862 c-1 -475 -4 -908 -8 -963 l-6 -100 -35 -3 c-19 -1 -137 -14 -263 -27
-223 -24 -312 -40 -322 -55 -3 -5 8 -42 25 -83 16 -42 30 -83 30 -92 0 -17
-107 -71 -119 -60 -3 4 -8 1017 -9 2251 -4 2184 -3 2244 15 2244 10 0 29 -7
42 -16 22 -16 22 -20 16 -110 -7 -94 -7 -94 16 -94 21 0 103 18 252 55 31 8
83 21 115 29 31 8 94 25 140 37 65 18 85 20 95 10 9 -9 13 -145 15 -581 l4
-570 1864 0 1864 0 0 1100 0 1100 -1865 0 -1865 0 0 -378 c0 -405 -7 -562 -23
-562 -6 0 -54 20 -106 44 -246 114 -434 196 -447 196 -21 0 -34 -42 -34 -106
0 -31 -5 -64 -10 -75 -11 -19 -45 -25 -66 -11 -19 12 -24 522 -17 1673 l6
1099 1161 3 c639 1 1654 3 2256 5 602 1 1234 -1 1403 -5z m-16478 -593 l672 0
8 -853 c4 -469 4 -932 0 -1030 l-8 -177 -2093 0 -2094 0 0 1030 0 1030 418 3
c229 2 869 2 1421 0 552 -1 1307 -3 1676 -3z m8482 -4 c7 -7 7 -2035 0 -2042
-7 -8 -4166 -8 -4174 -1 -10 11 -17 1512 -8 1814 l7 233 232 3 c453 7 3935 1
3943 -7z m7538 -1537 c4 -100 4 -563 0 -1029 l-8 -847 -1421 -7 c-781 -4
-1588 -4 -1792 0 l-371 7 -7 156 c-4 86 -4 546 0 1023 l7 868 856 3 c471 1
1277 3 1792 5 l936 2 8 -181z m-7050 -2171 c9 -794 2 -4277 -9 -4300 -4 -10
-18 -20 -29 -24 -12 -4 -90 -40 -173 -80 l-152 -74 -73 10 c-45 6 -903 10
-2181 10 l-2108 0 0 -1095 0 -1095 2159 0 2160 0 3 1028 c2 565 7 1034 11
1043 4 8 33 27 65 41 31 15 102 47 157 73 55 25 108 50 117 55 44 25 45 21 52
-217 4 -125 4 -723 0 -1328 l-7 -1102 -1891 -6 c-1040 -4 -2193 -4 -2562 0
l-671 6 -6 516 c-4 284 -7 1703 -7 3154 l0 2638 23 -7 c12 -4 75 -41 139 -83
65 -42 132 -85 150 -96 48 -30 48 -60 -2 -144 -23 -39 -39 -74 -36 -79 7 -12
214 -67 397 -106 l26 -6 6 -172 c4 -95 7 -586 7 -1090 l0 -918 1849 0 c1017 0
1856 3 1865 6 14 6 16 111 16 1093 l0 1088 -1745 6 c-960 4 -1752 10 -1759 14
-11 7 -198 236 -271 334 -136 180 -131 178 -181 101 -40 -62 -73 -102 -84
-102 -4 0 -36 19 -71 43 -35 23 -100 64 -144 91 -44 27 -104 67 -132 89 l-53
39 0 639 0 639 2569 0 2569 0 7 -632z m7041 -862 c1 0 5 -459 9 -1018 l8
-1017 -29 -7 c-40 -10 -3560 -11 -3571 -1 -7 8 -9 75 -4 172 0 17 -2 448 -5
959 l-6 929 1799 -8 c989 -4 1799 -8 1799 -9z m-7818 -481 c1 -1 3 -457 5
-1013 2 -819 0 -1013 -11 -1024 -11 -11 -345 -13 -1792 -13 -978 0 -1782 4
-1787 8 -4 5 -10 467 -11 1028 l-4 1019 354 3 c354 3 3241 -4 3246 -8z m292
-4209 l0 -1023 -1797 -6 c-989 -3 -1928 -3 -2088 1 l-290 7 -7 185 c-3 102 -4
562 -1 1023 l6 837 2089 0 2088 0 0 -1024z"/>
<path d="M15452 27550 c-21 -9 -23 -15 -20 -67 3 -64 18 -78 35 -33 14 38 71
64 119 55 32 -5 33 -7 39 -71 9 -77 1 -351 -10 -377 -4 -10 -21 -25 -38 -33
-45 -24 -18 -34 93 -34 115 0 135 9 87 38 -30 17 -36 27 -42 72 -4 28 -4 130
0 225 l7 173 33 6 c18 4 41 3 51 0 30 -11 74 -56 74 -76 0 -25 16 -22 24 5 11
41 6 95 -10 111 -13 14 -47 16 -217 15 -111 0 -212 -4 -225 -9z"/>
<path d="M15960 27546 c0 -8 24 -39 53 -68 28 -29 76 -88 105 -130 l52 -77
-91 -112 c-51 -61 -105 -119 -120 -128 -16 -9 -27 -20 -26 -26 5 -14 157 -19
171 -5 7 7 4 15 -12 26 -12 8 -22 22 -22 30 0 8 23 44 51 80 70 88 87 86 149
-15 l44 -73 -28 -23 c-37 -29 -21 -35 87 -34 124 1 127 4 64 70 -28 31 -80 98
-115 149 l-64 93 23 31 c51 69 126 150 162 172 61 40 50 54 -42 54 -85 0 -103
-10 -77 -39 23 -25 20 -37 -21 -87 -52 -65 -65 -69 -103 -38 -54 46 -75 109
-45 134 27 23 4 30 -96 30 -79 0 -99 -3 -99 -14z"/>
<path d="M16889 27527 c-35 -18 -66 -33 -69 -35 -9 -6 25 -22 47 -22 19 0 22
-7 28 -55 4 -31 6 -125 3 -209 -4 -160 -10 -182 -49 -188 -11 -2 -20 -7 -19
-13 0 -13 190 -19 203 -6 6 6 -2 15 -20 25 -27 13 -31 21 -37 77 -3 34 -6 149
-6 255 0 106 -4 195 -8 198 -4 3 -37 -10 -73 -27z"/>
<path d="M8460 27300 c0 -28 5 -43 16 -47 27 -10 49 11 49 48 0 31 -3 34 -32
37 -32 3 -33 2 -33 -38z"/>
<path d="M9770 27322 c-44 -24 -95 -106 -104 -168 -3 -26 -6 -86 -6 -133 0
-100 20 -154 78 -213 34 -36 40 -38 98 -38 75 0 119 26 151 88 27 55 40 207
25 300 -24 143 -137 219 -242 164z m108 -38 c63 -44 87 -185 59 -349 -13 -74
-21 -94 -42 -112 -57 -50 -116 -15 -151 89 -13 41 -16 71 -11 152 7 117 28
188 64 216 31 24 51 25 81 4z"/>
<path d="M5574 27316 c-8 -22 0 -109 11 -113 6 -2 16 10 22 27 14 37 54 54
109 45 l41 -6 7 -177 c4 -97 3 -199 -1 -227 -7 -43 -13 -52 -41 -65 -18 -9
-30 -19 -26 -23 11 -11 212 -8 219 2 3 6 -7 16 -22 23 -37 17 -41 50 -42 291
l-1 187 55 0 c47 0 60 -4 80 -26 13 -14 27 -35 30 -45 14 -42 26 -16 23 49
l-3 67 -228 3 c-187 2 -228 0 -233 -12z"/>
<path d="M8214 27194 c-49 -54 -53 -68 -24 -84 19 -10 20 -21 20 -153 0 -165
8 -187 66 -187 46 0 94 25 94 50 0 16 -5 18 -35 13 -52 -8 -60 17 -49 163 9
112 10 118 32 124 28 6 31 24 5 28 -24 5 -43 31 -43 58 0 41 -21 37 -66 -12z"/>
<path d="M6475 27163 c-11 -2 -34 -9 -52 -14 -56 -18 -83 -119 -32 -119 14 0
25 13 39 45 17 40 23 45 52 45 40 0 53 -8 62 -37 11 -35 -7 -56 -73 -87 -82
-38 -121 -83 -121 -141 0 -61 25 -85 85 -85 26 0 57 7 71 17 24 16 28 15 59
-1 67 -36 143 6 84 46 -19 12 -22 28 -29 128 -10 136 -19 163 -62 190 -33 20
-45 22 -83 13z m71 -218 c8 -31 -3 -75 -23 -97 -22 -24 -66 -23 -88 2 -25 28
-11 67 34 97 45 30 69 29 77 -2z"/>
<path d="M6230 27149 c-14 -6 -44 -8 -67 -4 -68 10 -138 -34 -89 -57 26 -11
26 -12 26 -135 0 -119 -1 -125 -25 -147 -14 -13 -25 -26 -25 -30 0 -8 165 -8
173 0 3 3 -6 16 -21 29 -26 23 -27 26 -27 133 0 134 6 144 79 140 l51 -3 3 34
c5 48 -22 62 -78 40z"/>
<path d="M6880 27144 c-28 -13 -42 -13 -74 -4 -71 21 -128 -26 -75 -62 43 -28
38 -232 -7 -273 -13 -12 -21 -25 -17 -28 8 -9 148 -9 156 -1 3 4 -4 15 -16 24
-20 17 -22 27 -22 135 0 115 0 117 28 141 34 29 61 30 88 3 19 -19 20 -30 17
-146 -2 -90 -7 -128 -15 -131 -7 -2 -13 -10 -13 -18 0 -11 16 -14 68 -14 38 0
72 3 75 7 4 3 -2 16 -13 28 -17 19 -21 41 -28 165 -8 139 -9 143 -36 166 -31
28 -66 30 -116 8z"/>
<path d="M7204 27154 c-40 -9 -58 -41 -58 -99 0 -64 12 -80 100 -136 66 -42
80 -66 57 -98 -23 -33 -74 -28 -112 11 -17 17 -31 35 -31 40 0 4 -4 8 -10 8
-11 0 -13 -52 -4 -87 6 -21 12 -23 83 -23 101 0 137 20 146 82 10 68 -5 92
-94 149 -44 28 -83 59 -86 70 -10 30 13 49 55 49 32 0 44 -6 69 -37 l31 -38 0
47 c0 26 -5 50 -10 53 -14 9 -110 15 -136 9z"/>
<path d="M7524 27150 c-31 -12 -54 -49 -54 -87 0 -28 3 -33 25 -33 19 0 26 6
30 28 11 48 20 57 60 57 30 0 42 -6 59 -28 28 -37 15 -55 -60 -85 -78 -30
-134 -88 -134 -137 0 -37 14 -74 34 -87 20 -14 94 -8 124 9 29 17 31 17 50 0
23 -21 70 -22 100 -1 27 19 29 44 3 44 -11 0 -23 5 -26 11 -4 5 -11 65 -15
133 -8 128 -18 157 -57 175 -28 13 -109 13 -139 1z m129 -209 c13 -61 -18
-111 -68 -111 -38 0 -55 16 -55 50 1 28 14 48 50 73 38 27 66 22 73 -12z"/>
<path d="M7925 27151 c-11 -5 -39 -29 -62 -54 -31 -34 -43 -56 -48 -91 -16
-106 7 -175 73 -218 34 -22 112 -24 152 -3 27 14 80 79 80 97 0 15 -27 8 -45
-12 -29 -32 -79 -44 -113 -26 -39 20 -77 67 -92 111 -11 32 -9 42 14 89 43 88
111 100 157 29 26 -41 46 -48 63 -21 17 27 -4 71 -44 90 -37 19 -101 23 -135
9z"/>
<path d="M8477 27145 c-20 -7 -44 -18 -53 -26 -13 -11 -12 -15 13 -34 27 -22
27 -24 28 -140 0 -116 0 -117 -28 -139 -15 -12 -24 -25 -21 -29 9 -9 158 -9
167 -1 3 3 -6 16 -21 29 -27 23 -27 24 -30 182 -2 87 -7 161 -10 165 -4 3 -24
1 -45 -7z"/>
<path d="M8756 27150 c-128 -39 -158 -260 -47 -353 41 -34 69 -41 133 -34 73
9 122 44 142 103 30 90 12 199 -40 246 -47 42 -123 57 -188 38z m102 -46 c50
-35 79 -133 62 -210 -31 -138 -154 -123 -196 23 -25 87 -7 159 48 190 31 17
59 16 86 -3z"/>
<path d="M9222 27143 c-28 -14 -38 -14 -72 -3 -69 23 -126 -20 -79 -59 23 -18
24 -25 23 -136 -2 -103 -4 -119 -23 -139 -12 -12 -21 -25 -21 -29 0 -4 36 -7
80 -7 44 0 80 3 80 7 0 4 -10 18 -22 31 -21 21 -23 34 -23 126 0 140 27 179
107 153 35 -11 41 -42 36 -172 -2 -78 -6 -99 -20 -109 -36 -26 -20 -36 55 -36
41 0 76 3 80 6 3 3 -6 16 -21 29 -27 23 -27 26 -32 170 -5 139 -6 148 -29 166
-28 23 -75 24 -119 2z"/>
<path d="M6846 26289 c-80 -73 -118 -155 -124 -266 -5 -92 9 -175 39 -235 23
-46 126 -158 145 -158 23 0 16 18 -26 63 -73 80 -85 121 -85 292 0 168 4 181
84 283 69 87 51 98 -33 21z"/>
<path d="M7876 26333 l-38 -4 26 -28 27 -28 -46 -56 c-48 -59 -77 -76 -100
-57 -8 7 -31 34 -50 61 l-35 50 25 23 c14 13 25 26 25 30 0 3 -49 6 -110 6
-123 0 -139 -11 -75 -50 32 -20 73 -71 147 -183 24 -37 25 -43 13 -67 -22 -43
-142 -187 -180 -216 -19 -14 -32 -30 -29 -35 7 -12 171 -11 179 1 3 6 -5 14
-18 19 -14 6 -28 14 -31 19 -13 21 98 162 128 162 23 0 116 -132 116 -166 0
-2 -12 -9 -26 -14 -14 -6 -22 -14 -19 -20 8 -13 225 -13 225 -1 0 5 -13 19
-29 31 -31 21 -192 241 -195 264 -2 22 131 185 169 208 19 11 35 26 35 33 0
24 -32 28 -134 18z"/>
<path d="M8374 26319 c-18 -11 -46 -46 -65 -82 -33 -61 -34 -64 -33 -187 0
-102 4 -132 19 -160 48 -93 86 -120 163 -120 122 0 193 131 180 332 -6 92 -51
186 -105 218 -44 26 -117 25 -159 -1z m158 -83 c21 -38 23 -52 23 -191 0 -136
-2 -154 -22 -192 -41 -76 -125 -65 -158 21 -14 36 -16 71 -13 197 3 166 7 178
61 216 29 21 32 21 58 6 15 -9 38 -35 51 -57z"/>
<path d="M8700 26330 c0 -6 18 -34 41 -62 80 -102 84 -114 84 -288 0 -174 -6
-193 -85 -285 -57 -66 -53 -87 8 -42 109 81 176 254 153 398 -15 93 -53 163
-122 230 -60 58 -79 69 -79 49z"/>
<path d="M6960 26266 c0 -36 4 -67 9 -70 4 -3 19 11 32 31 27 42 84 69 123 59
23 -6 25 -11 31 -103 4 -54 5 -154 2 -223 -5 -125 -5 -125 -36 -151 -17 -14
-31 -29 -31 -32 0 -4 50 -7 110 -7 111 0 135 9 86 32 -14 6 -28 18 -32 27 -5
9 -10 113 -12 233 l-4 216 29 6 c56 12 143 -33 143 -75 0 -27 17 -32 24 -6 13
49 7 106 -13 117 -12 6 -107 10 -240 10 l-221 0 0 -64z"/>
<path d="M5938 24305 c-2 -326 -7 -518 -13 -524 -7 -7 -33 -2 -80 15 -39 13
-147 51 -242 84 -94 32 -181 63 -192 69 -11 6 -31 11 -45 11 l-26 0 0 -235 c0
-269 -3 -261 83 -228 79 30 119 44 152 52 17 5 48 16 70 25 50 22 270 96 284
96 8 0 11 -163 11 -525 l0 -525 1870 0 1870 0 0 1100 0 1100 -1869 0 -1870 0
-3 -515z m3672 -585 l0 -1030 -1800 0 -1800 0 1 433 c0 237 4 468 7 512 4 44
4 137 0 205 -4 69 -4 299 -1 512 l6 388 911 3 c501 1 1308 3 1794 5 l882 2 0
-1030z"/>
<path d="M6834 24046 c-3 -8 -4 -27 -2 -43 5 -49 78 -38 78 13 0 34 -65 60
-76 30z"/>
<path d="M8582 24039 c-31 -16 -51 -36 -72 -72 -47 -83 -55 -126 -43 -242 12
-115 33 -165 88 -213 32 -28 43 -32 97 -32 58 0 62 2 103 43 56 55 69 102 69
253 0 110 -2 126 -25 170 -31 60 -98 114 -142 114 -18 0 -51 -10 -75 -21z
m102 -40 c41 -32 56 -71 65 -167 20 -224 -34 -356 -127 -308 -64 33 -97 182
-73 335 13 83 31 120 70 144 33 21 33 21 65 -4z"/>
<path d="M8314 23928 c-70 -77 -69 -75 -48 -99 16 -18 20 -42 24 -163 7 -175
13 -190 77 -183 48 5 91 36 78 57 -4 6 -17 9 -30 6 -14 -4 -27 0 -35 8 -16 21
-22 109 -13 196 8 74 8 74 41 81 18 4 36 9 39 13 10 9 -3 18 -39 25 -29 6 -34
12 -42 49 -6 23 -13 42 -16 42 -3 0 -19 -15 -36 -32z"/>
<path d="M7605 23869 c-16 -5 -48 -7 -70 -4 -27 4 -51 0 -74 -12 -44 -23 -48
-36 -16 -51 l25 -12 0 -206 c0 -205 0 -206 -25 -236 -14 -16 -23 -34 -19 -39
6 -10 164 -13 164 -2 0 4 -11 18 -25 33 -17 18 -26 42 -31 83 l-7 57 71 0 c66
0 74 2 107 32 93 81 112 242 38 322 -40 44 -79 54 -138 35z m49 -70 c60 -28
80 -157 35 -223 -13 -19 -36 -42 -51 -51 -27 -16 -30 -15 -63 5 -41 25 -49 56
-43 166 3 65 7 79 27 95 26 22 59 24 95 8z"/>
<path d="M6844 23859 c-17 -5 -37 -16 -44 -24 -10 -12 -8 -18 10 -33 19 -15
23 -31 27 -93 2 -41 1 -99 -4 -129 -7 -47 -13 -57 -37 -69 -22 -10 -25 -15
-15 -22 16 -10 123 -12 157 -3 25 7 30 24 7 24 -27 0 -36 40 -43 197 -4 90
-11 157 -17 159 -5 1 -24 -2 -41 -7z"/>
<path d="M7038 23854 c-33 -18 -35 -30 -7 -60 18 -19 20 -34 20 -127 0 -115
-8 -142 -49 -159 -25 -10 -26 -11 -7 -18 25 -11 153 -11 179 -1 17 6 16 9 -11
20 -26 10 -31 19 -37 58 -8 62 -7 195 2 209 11 17 48 34 75 34 45 0 52 -22 52
-157 0 -108 -2 -126 -17 -134 -10 -6 -18 -17 -18 -26 0 -13 12 -15 74 -11 41
2 78 7 82 10 4 4 -3 16 -16 26 -20 16 -23 29 -27 132 -2 63 -6 130 -9 148 -10
68 -65 88 -152 58 -35 -13 -42 -13 -53 0 -15 18 -46 17 -81 -2z"/>
<path d="M7830 23858 c0 -6 7 -19 15 -28 11 -12 17 -55 23 -160 8 -140 9 -143
37 -167 24 -21 35 -24 74 -18 25 3 75 7 111 8 38 1 77 9 95 19 l30 16 -27 12
c-26 12 -26 13 -33 159 -4 80 -12 152 -17 159 -17 20 -108 14 -108 -8 0 -4 11
-11 24 -14 30 -7 40 -57 34 -170 -4 -85 -20 -112 -75 -122 -55 -10 -61 3 -69
156 -4 74 -11 143 -16 153 -10 20 -98 25 -98 5z"/>
<path d="M4672 23741 c-18 -11 -12 -41 10 -54 12 -8 21 -7 32 2 38 32 0 79
-42 52z"/>
<path d="M5032 23718 c2 -25 8 -33 23 -33 16 0 20 7 20 30 0 24 -5 31 -23 33
-21 3 -23 0 -20 -30z"/>
<path d="M15300 25295 c-18 -21 1 -69 28 -73 25 -4 47 38 37 69 -8 23 -47 25
-65 4z"/>
<path d="M17070 25303 c-41 -16 -71 -49 -99 -105 -29 -57 -31 -68 -31 -172 0
-140 10 -177 67 -237 45 -48 47 -49 107 -49 78 0 112 20 150 90 26 47 30 67
34 155 7 156 -21 243 -96 299 -25 19 -104 31 -132 19z m123 -90 c42 -72 41
-325 -1 -397 -41 -70 -109 -57 -152 29 -23 45 -25 62 -25 170 1 139 17 198 67
240 30 25 30 25 61 7 17 -10 40 -32 50 -49z"/>
<path d="M16783 25193 c-10 -10 -32 -33 -47 -50 -29 -32 -29 -33 -10 -54 16
-18 20 -41 24 -171 6 -168 10 -178 80 -178 71 0 111 56 43 62 -33 3 -38 7 -46
38 -5 19 -7 79 -5 133 3 106 9 117 61 117 17 0 27 5 27 15 0 9 -10 15 -26 15
-44 0 -64 17 -64 55 0 39 -9 43 -37 18z"/>
<path d="M15522 25118 c-42 -11 -50 -33 -24 -61 16 -17 23 -41 28 -102 7 -90
-5 -152 -36 -180 -11 -10 -20 -22 -20 -27 0 -4 41 -8 90 -8 91 0 110 8 66 28
-28 12 -36 50 -36 169 0 79 1 82 31 107 34 29 70 34 89 11 8 -9 15 -60 18
-131 4 -107 3 -117 -17 -144 -11 -16 -21 -32 -21 -35 0 -3 34 -5 75 -5 78 0
89 8 60 40 -11 12 -18 56 -24 154 -10 149 -21 181 -68 192 -16 4 -47 0 -78
-11 -47 -15 -55 -16 -76 -2 -18 11 -32 12 -57 5z"/>
<path d="M16077 25123 c-4 -3 -43 -7 -87 -7 -62 -1 -84 -5 -97 -19 -17 -17
-17 -19 7 -37 l25 -19 -2 -205 c-1 -169 -4 -210 -17 -228 -30 -43 -22 -48 71
-48 l87 0 -38 39 c-36 37 -38 42 -32 84 7 44 7 44 53 51 25 3 60 6 77 6 57 1
126 121 126 219 -1 93 -59 171 -130 171 -20 0 -40 -3 -43 -7z m28 -67 c42 -18
63 -49 66 -101 5 -82 0 -104 -33 -139 -47 -49 -70 -53 -110 -17 l-33 29 0 97
c0 94 1 98 28 121 33 28 37 29 82 10z"/>
<path d="M15275 25098 l-40 -21 33 -15 c36 -18 37 -24 26 -190 -6 -83 -9 -91
-31 -101 -13 -6 -21 -16 -18 -21 7 -11 175 -14 175 -3 0 4 -12 19 -27 35 -26
27 -27 32 -32 180 -7 174 -9 177 -86 136z"/>
<path d="M16300 25113 c0 -3 8 -15 18 -26 14 -15 18 -45 22 -156 5 -136 14
-173 46 -185 25 -10 85 -7 120 6 26 9 38 9 57 -1 21 -11 31 -10 73 9 46 20 48
22 30 35 -10 8 -23 16 -28 17 -6 2 -13 72 -16 156 l-5 152 -58 0 c-65 0 -75
-11 -29 -30 l30 -12 0 -93 c0 -125 -7 -153 -41 -170 -37 -19 -73 -19 -90 1 -9
11 -14 61 -17 160 l-5 144 -53 0 c-30 0 -54 -3 -54 -7z"/>
<path d="M24668 24359 c-40 -20 -88 -82 -88 -111 0 -26 13 -22 38 12 28 37 77
63 106 56 82 -20 101 -95 40 -152 -19 -19 -46 -37 -60 -40 -26 -7 -33 -34 -9
-34 23 0 76 -29 108 -58 22 -21 27 -34 27 -74 0 -40 -5 -53 -27 -75 -47 -43
-67 -46 -133 -18 -65 27 -90 25 -90 -10 0 -46 62 -65 151 -46 57 12 129 55
129 76 0 7 7 18 15 25 11 9 15 33 15 86 0 66 -3 78 -32 118 -31 45 -31 45 -13
73 22 33 25 101 6 136 -29 55 -116 72 -183 36z"/>
<path d="M23254 24356 c-3 -7 -4 -40 -2 -72 l3 -59 27 41 c29 45 60 58 112 48
l34 -6 6 -191 c7 -226 3 -256 -41 -278 -18 -9 -30 -19 -26 -23 3 -3 54 -6 113
-6 59 0 110 3 113 6 4 4 -8 14 -26 23 -44 22 -48 52 -41 278 l6 192 37 6 c49
8 87 -8 106 -45 23 -44 35 -37 35 19 0 86 15 81 -231 81 -176 0 -221 -3 -225
-14z"/>
<path d="M23780 24353 c0 -9 17 -31 38 -49 37 -31 162 -205 162 -224 0 -14
-140 -179 -188 -222 -23 -21 -42 -40 -42 -43 0 -9 169 -5 174 4 3 4 -6 13 -20
19 l-25 12 20 37 c31 62 90 123 116 123 24 0 62 -47 101 -122 15 -30 15 -32
-2 -45 -10 -7 -22 -13 -27 -13 -4 0 -5 -4 -2 -10 8 -13 212 -13 220 -1 3 5 -7
17 -22 26 -46 27 -193 232 -193 268 0 34 121 181 168 206 30 16 43 31 36 43
-6 9 -164 11 -164 3 0 -4 7 -19 15 -36 17 -33 16 -36 -34 -96 -21 -26 -44 -43
-56 -43 -22 0 -59 34 -90 83 -17 27 -17 29 4 57 11 16 21 32 21 35 0 3 -47 5
-105 5 -91 0 -105 -2 -105 -17z"/>
<path d="M21942 18568 l3 -1103 2145 -3 c2008 -2 2146 -1 2158 15 8 12 12 62
12 162 0 80 3 311 7 513 l6 366 111 7 c138 8 146 10 146 40 0 30 -8 32 -147
40 l-113 7 -1 72 c-1 39 -5 276 -8 526 l-6 455 -2158 3 -2157 2 2 -1102z
m4235 1018 c7 -7 7 -2035 0 -2042 -7 -8 -4166 -8 -4174 -1 -10 11 -17 1512 -8
1814 l7 233 232 3 c455 7 3935 1 3943 -7z"/>
<path d="M25053 18878 c-21 -13 -44 -42 -65 -86 -32 -64 -33 -71 -31 -179 2
-130 20 -183 81 -245 34 -36 39 -38 100 -38 63 0 66 1 107 43 25 25 47 58 54
82 18 66 25 215 12 274 -14 66 -59 133 -105 155 -46 21 -113 19 -153 -6z m137
-38 c30 -30 40 -63 49 -164 23 -250 -50 -376 -161 -278 -35 30 -51 118 -44
239 7 124 15 155 54 196 31 33 73 36 102 7z"/>
<path d="M23726 18759 c-51 -57 -53 -64 -28 -92 14 -16 18 -45 22 -164 4 -128
7 -146 24 -159 28 -20 79 -17 110 7 36 28 33 36 -16 46 -41 8 -43 11 -51 53
-11 59 -2 197 13 215 7 8 23 15 36 15 15 0 24 6 24 15 0 9 -9 15 -23 15 -33 0
-47 19 -47 62 0 21 -4 38 -9 38 -5 0 -30 -23 -55 -51z"/>
<path d="M24785 18756 l-46 -55 18 -27 c15 -23 19 -56 23 -172 4 -127 7 -145
24 -158 28 -20 79 -17 110 7 35 28 33 35 -14 43 l-41 6 3 138 3 137 29 5 c35
6 48 30 16 30 -42 0 -60 18 -60 60 0 22 -4 40 -9 40 -5 0 -30 -24 -56 -54z"/>
<path d="M22965 18713 c-33 -8 -95 -75 -105 -113 -25 -90 -2 -177 64 -240 34
-32 42 -35 100 -35 81 0 138 35 168 101 40 91 15 216 -51 264 -33 23 -130 36
-176 23z m117 -61 c36 -33 51 -82 52 -158 0 -191 -186 -172 -201 20 -7 84 6
126 47 154 38 26 62 22 102 -16z"/>
<path d="M23946 18700 c-39 -20 -43 -37 -12 -51 l26 -12 0 -205 c0 -203 0
-204 -25 -234 -14 -16 -23 -34 -19 -39 7 -11 151 -12 158 0 3 4 -8 21 -25 36
-29 25 -31 31 -25 73 3 25 8 47 10 49 2 2 33 6 69 10 56 5 71 11 98 37 96 94
104 264 14 334 -24 19 -38 21 -133 19 -72 -1 -117 -7 -136 -17z m214 -69 c73
-53 53 -213 -31 -257 -26 -13 -32 -13 -59 1 -42 22 -52 55 -48 158 3 80 5 91
28 109 28 23 70 19 110 -11z"/>
<path d="M23260 18701 c0 -5 10 -15 22 -23 20 -14 22 -25 28 -163 6 -138 8
-149 29 -166 27 -22 79 -25 127 -7 25 9 39 9 59 0 20 -9 33 -9 59 2 43 18 53
34 30 51 -17 12 -19 31 -22 164 l-4 151 -59 0 c-61 0 -72 -7 -40 -27 15 -9 20
-29 25 -101 10 -123 2 -159 -39 -179 -47 -22 -81 -11 -89 28 -3 17 -6 87 -6
155 l0 124 -60 0 c-33 0 -60 -4 -60 -9z"/>
<path d="M24320 18703 c0 -3 8 -15 18 -26 14 -15 18 -45 22 -156 5 -136 14
-173 46 -185 26 -10 87 -6 119 8 25 11 34 11 56 -2 23 -13 30 -12 75 7 46 21
48 23 30 36 -10 8 -23 16 -28 17 -5 2 -13 71 -16 153 l-7 150 -57 3 c-58 3
-79 -11 -34 -22 28 -7 36 -37 36 -141 0 -114 -25 -155 -94 -155 -43 0 -50 22
-54 176 l-5 144 -53 0 c-30 0 -54 -3 -54 -7z"/>
<path d="M17255 22074 c-47 -24 -61 -40 -98 -118 -31 -65 -34 -78 -26 -112 4
-22 9 -66 9 -99 1 -75 25 -135 74 -186 36 -36 42 -39 95 -39 82 0 120 23 155
93 53 107 46 323 -15 408 -43 60 -133 85 -194 53z m103 -40 c32 -22 63 -88 69
-148 8 -77 -13 -263 -32 -292 -43 -65 -116 -49 -157 35 -18 38 -22 63 -22 151
-1 121 16 199 51 241 28 32 57 37 91 13z"/>
<path d="M15900 21941 l-51 -60 25 -17 c26 -16 26 -17 26 -158 0 -166 7 -186
69 -186 24 0 48 8 65 21 38 30 34 47 -11 45 l-38 -1 -3 138 -3 137 31 6 c38 8
39 30 1 37 -29 6 -41 27 -41 75 0 34 -14 27 -70 -37z"/>
<path d="M16963 21941 l-53 -59 27 -20 c27 -20 28 -21 31 -164 2 -78 9 -151
14 -162 8 -15 18 -18 60 -14 49 5 74 20 80 47 2 10 -8 14 -37 15 l-40 1 -3
134 c-3 143 0 151 46 151 13 0 22 6 22 15 0 9 -9 15 -22 15 -36 0 -49 14 -55
59 -3 22 -8 41 -12 41 -3 0 -30 -27 -58 -59z"/>
<path d="M15155 21903 c-35 -9 -87 -55 -101 -89 -8 -19 -14 -67 -14 -112 0
-71 3 -83 29 -119 40 -55 90 -77 158 -70 107 11 155 68 161 192 7 127 -45 194
-155 200 -32 2 -67 1 -78 -2z m112 -66 c77 -88 65 -251 -21 -280 -62 -21 -123
45 -141 150 -7 45 15 112 49 146 29 29 80 22 113 -16z"/>
<path d="M16265 21899 c-16 -5 -50 -6 -75 -4 -74 9 -128 -33 -75 -57 l26 -12
-3 -214 c-3 -191 -5 -214 -20 -223 -10 -6 -18 -19 -18 -29 0 -18 7 -20 75 -20
82 0 97 13 50 44 -26 17 -30 38 -19 94 6 30 8 31 76 38 78 8 110 27 150 92 30
49 34 192 5 235 -38 58 -100 78 -172 56z m91 -97 c42 -62 39 -148 -7 -206 -30
-39 -64 -49 -98 -32 -38 20 -51 56 -50 139 1 101 8 120 49 133 46 15 81 4 106
-34z"/>
<path d="M15445 21890 c-3 -5 5 -15 19 -22 l26 -11 0 -144 c0 -139 1 -145 25
-168 27 -28 85 -34 130 -13 20 9 34 9 60 0 28 -11 39 -10 69 5 36 17 47 38 24
45 -9 3 -14 46 -18 149 -3 79 -9 150 -13 157 -8 12 -117 18 -117 6 0 -4 12
-18 26 -31 26 -24 26 -26 22 -135 -3 -101 -5 -112 -27 -129 -24 -20 -67 -25
-89 -10 -21 13 -32 77 -32 199 l0 112 -49 0 c-28 0 -53 -4 -56 -10z"/>
<path d="M16497 21894 c-3 -3 6 -16 21 -29 26 -22 27 -26 32 -165 5 -134 6
-143 29 -161 26 -21 90 -25 123 -8 16 8 30 8 58 -1 31 -10 42 -10 68 4 42 22
46 32 22 56 -18 18 -20 32 -20 165 l0 145 -59 0 c-63 0 -90 -15 -46 -26 25 -6
25 -7 25 -108 0 -105 -11 -164 -32 -178 -22 -13 -75 -9 -89 8 -9 11 -14 61
-17 160 l-5 144 -52 0 c-28 0 -54 -3 -58 -6z"/>
<path d="M23117 22083 c-12 -12 -7 -60 8 -73 32 -27 69 13 57 63 -4 17 -51 25
-65 10z"/>
<path d="M24875 22075 c-69 -38 -99 -88 -116 -196 -19 -126 5 -246 65 -315 32
-37 36 -38 105 -42 71 -4 74 -3 106 28 19 18 44 56 57 84 20 44 23 67 23 171
0 111 -2 124 -28 177 -16 32 -42 67 -59 79 -40 29 -113 35 -153 14z m118 -55
c36 -42 50 -122 45 -259 -2 -93 -7 -124 -24 -156 -40 -77 -115 -70 -156 14
-20 41 -23 60 -23 181 1 127 2 138 28 187 28 54 36 61 79 62 17 1 34 -9 51
-29z"/>
<path d="M24577 21942 c-26 -26 -47 -53 -47 -59 0 -6 10 -17 22 -25 21 -14 23
-23 26 -164 2 -82 9 -155 14 -161 16 -20 82 -16 112 8 38 30 35 52 -8 44 -47
-9 -56 11 -56 134 0 116 10 151 42 152 13 0 32 4 43 9 16 7 12 9 -23 15 -46 8
-62 26 -62 69 0 14 -4 26 -8 26 -4 0 -29 -22 -55 -48z"/>
<path d="M23118 21888 c-53 -23 -60 -38 -26 -53 29 -13 42 -90 33 -184 -6 -54
-12 -69 -36 -92 -15 -14 -25 -29 -22 -33 10 -10 171 -7 178 3 3 5 -4 12 -15
16 -35 11 -43 44 -48 207 -3 87 -8 158 -11 158 -3 -1 -27 -10 -53 -22z"/>
<path d="M23490 21903 c-8 -2 -25 -9 -37 -15 -15 -7 -31 -7 -54 1 -45 16 -63
14 -90 -9 l-24 -20 25 -21 c24 -20 25 -26 25 -141 0 -118 0 -120 -27 -143 -15
-13 -24 -26 -21 -29 8 -8 163 -8 163 0 0 3 -9 17 -20 31 -17 22 -20 41 -20
124 0 54 4 109 9 122 13 33 64 53 96 39 32 -15 38 -41 33 -165 -2 -83 -7 -109
-20 -124 -10 -11 -18 -23 -18 -26 0 -4 36 -7 80 -7 44 0 80 3 80 7 0 4 -11 19
-25 33 -24 25 -26 36 -33 170 -8 132 -10 144 -31 161 -22 18 -59 23 -91 12z"/>
<path d="M23838 21901 c-82 -5 -111 -10 -124 -23 -17 -16 -17 -19 2 -39 18
-20 19 -38 19 -234 0 -189 -2 -215 -18 -232 -9 -11 -14 -23 -10 -26 3 -4 39
-7 80 -7 80 0 89 8 48 46 -20 19 -25 33 -25 72 0 57 7 62 101 62 53 0 59 2 92
39 47 52 60 100 56 199 -4 75 -7 84 -34 111 -37 37 -53 39 -187 32z m93 -67
c70 -36 88 -160 33 -231 -34 -45 -67 -57 -103 -39 -38 20 -51 56 -50 134 2 95
10 124 39 139 33 17 45 16 81 -3z"/>
<path d="M24100 21895 c0 -3 12 -17 28 -30 27 -23 27 -26 30 -152 3 -158 5
-167 37 -181 32 -15 102 -16 110 -2 8 14 51 13 74 -2 16 -9 27 -8 60 7 23 10
41 20 41 23 0 3 -8 14 -17 25 -15 16 -19 43 -21 168 l-3 149 -59 0 c-67 0 -81
-11 -44 -31 l26 -14 -4 -123 c-3 -109 -6 -126 -23 -139 -20 -14 -88 -13 -103
2 -4 4 -9 74 -11 156 l-3 149 -59 0 c-32 0 -59 -2 -59 -5z"/>
<path d="M8792 20849 c-41 -21 -92 -82 -92 -112 0 -7 -9 -30 -20 -52 -18 -36
-19 -47 -10 -125 15 -116 25 -150 61 -199 53 -74 134 -91 206 -44 23 14 50 42
61 62 49 87 55 291 11 377 -50 98 -136 135 -217 93z m126 -57 c36 -43 44 -94
40 -246 -3 -128 -5 -144 -26 -174 -48 -67 -97 -64 -146 11 -27 42 -27 42 -24
202 3 150 5 162 27 193 41 58 87 63 129 14z"/>
<path d="M7442 20723 l-53 -61 26 -26 c24 -24 25 -29 25 -166 0 -127 2 -142
20 -160 26 -26 64 -25 106 1 45 27 45 50 1 47 -18 -1 -38 1 -44 5 -17 11 -24
81 -17 181 l7 94 38 6 c22 3 39 10 39 15 0 11 -25 21 -50 21 -24 0 -33 15 -40
64 l-5 40 -53 -61z"/>
<path d="M8492 20720 l-53 -59 31 -22 30 -23 0 -143 c0 -132 2 -145 21 -164
17 -17 28 -20 56 -14 41 7 70 24 78 43 9 24 -4 31 -35 19 -45 -17 -53 -1 -58
108 -6 135 1 161 46 181 l37 16 -25 10 c-51 20 -55 25 -58 67 -2 22 -6 41 -10
40 -4 0 -31 -27 -60 -59z"/>
<path d="M7826 20683 c-3 -4 -43 -7 -87 -8 -67 -1 -83 -4 -101 -23 l-21 -21
21 -18 c21 -17 22 -27 24 -225 3 -204 3 -206 -21 -231 -12 -14 -20 -30 -16
-36 3 -6 40 -11 86 -11 89 0 98 9 48 51 -30 24 -31 28 -24 76 l7 50 69 5 c77
6 107 25 152 98 33 52 31 180 -2 234 -30 49 -110 84 -135 59z m33 -78 c40 -20
65 -85 56 -145 -17 -110 -89 -161 -155 -111 -21 17 -25 29 -28 95 -5 89 3 139
24 161 19 19 67 19 103 0z"/>
<path d="M6661 20663 c-50 -25 -84 -83 -89 -154 -6 -78 17 -136 70 -185 41
-36 41 -36 113 -32 127 8 169 57 170 199 0 79 -2 88 -29 123 -16 21 -44 44
-62 52 -45 19 -131 17 -173 -3z m120 -30 c45 -27 74 -95 74 -176 0 -66 -1 -70
-37 -103 -44 -39 -65 -42 -102 -13 -105 83 -89 303 22 308 8 1 27 -7 43 -16z"/>
<path d="M6980 20670 c-13 -8 -12 -11 5 -24 17 -12 21 -33 31 -162 10 -142 11
-148 38 -170 32 -28 74 -31 122 -8 29 14 39 14 64 4 26 -11 37 -10 70 5 45 20
47 23 23 41 -15 10 -19 34 -23 152 -6 155 -12 172 -65 172 -57 0 -88 -22 -46
-33 16 -4 20 -18 26 -110 8 -118 -1 -153 -47 -175 -23 -11 -32 -10 -56 2 -37
19 -42 44 -42 197 l0 119 -42 0 c-24 0 -50 -5 -58 -10z"/>
<path d="M8036 20673 c-3 -4 6 -17 21 -28 26 -22 27 -24 32 -169 6 -140 7
-149 30 -167 28 -23 75 -24 115 -4 24 13 36 13 64 4 28 -9 41 -8 73 6 45 21
46 24 19 48 -18 15 -20 29 -20 148 0 71 -5 139 -10 150 -8 15 -21 19 -59 19
-60 0 -67 -7 -36 -36 23 -22 25 -29 25 -123 0 -55 -4 -111 -9 -124 -12 -30
-62 -50 -95 -37 -29 11 -36 47 -36 203 l0 117 -53 0 c-30 0 -57 -3 -61 -7z"/>
<path d="M15453 19340 c-20 -8 -23 -16 -23 -69 0 -67 12 -85 32 -44 20 42 76
76 117 69 18 -3 36 -7 38 -10 9 -9 16 -274 8 -359 -7 -87 -7 -89 -41 -109 -19
-11 -31 -24 -28 -29 3 -5 54 -9 115 -9 86 0 109 3 109 14 0 7 -13 19 -30 26
l-30 12 0 229 0 229 45 0 c62 0 104 -23 112 -60 11 -59 33 -22 33 58 0 36 -4
44 -26 52 -32 12 -401 12 -431 0z"/>
<path d="M15960 19333 c0 -10 16 -31 35 -46 19 -15 66 -73 105 -129 l69 -100
-62 -77 c-34 -42 -85 -100 -114 -129 -29 -29 -53 -58 -53 -63 0 -10 112 -12
148 -3 27 8 29 20 2 27 -34 9 -23 46 36 118 31 38 58 69 61 69 19 0 47 -30 84
-91 l43 -72 -28 -22 c-37 -29 -22 -35 92 -35 116 0 126 8 74 55 -38 33 -175
216 -187 247 -8 19 123 177 173 211 65 44 57 57 -37 57 -85 0 -103 -10 -77
-39 25 -27 20 -41 -33 -101 -46 -52 -50 -54 -73 -42 -30 17 -78 88 -78 118 0
12 7 27 15 34 27 23 4 30 -96 30 -88 0 -99 -2 -99 -17z"/>
<path d="M16835 19327 c-26 -14 -48 -37 -62 -67 -38 -73 -27 -126 11 -55 24
44 56 65 103 67 65 2 113 -46 113 -114 0 -43 -52 -130 -129 -218 -91 -104
-111 -131 -111 -146 0 -12 25 -14 152 -12 l152 3 17 30 c10 17 21 43 25 58 l7
29 -34 -18 c-39 -20 -168 -31 -194 -17 -14 8 -7 21 56 94 109 126 129 162 129
229 0 68 -24 117 -71 142 -46 25 -115 23 -164 -5z"/>
<path d="M8827 17608 c-69 -32 -84 -48 -44 -48 12 0 27 -4 33 -8 15 -9 29
-288 19 -372 -6 -56 -10 -63 -36 -74 -16 -7 -26 -15 -22 -19 10 -11 191 -8
198 3 3 6 -3 10 -13 10 -43 0 -47 20 -50 279 -2 135 -7 249 -11 253 -3 4 -37
-7 -74 -24z"/>
<path d="M7442 17503 l-53 -61 26 -26 c24 -24 25 -29 25 -166 0 -127 2 -142
20 -160 26 -26 64 -25 106 1 47 29 44 49 -6 49 -52 0 -60 17 -60 123 0 128 5
145 51 159 22 6 39 14 39 19 0 9 -26 19 -50 19 -24 0 -33 15 -40 64 l-5 40
-53 -61z"/>
<path d="M8511 17515 c-18 -25 -41 -50 -52 -55 -26 -14 -24 -23 11 -43 l30
-18 0 -137 c0 -159 4 -180 36 -188 31 -8 91 13 109 38 20 29 11 38 -25 25 -46
-18 -54 -2 -58 121 -4 126 5 157 47 167 40 8 40 24 0 32 -32 6 -49 33 -49 79
0 35 -12 30 -49 -21z"/>
<path d="M7826 17463 c-3 -4 -43 -7 -87 -8 -67 -1 -83 -4 -101 -23 l-21 -21
21 -18 c21 -17 22 -27 24 -225 3 -204 3 -206 -21 -231 -12 -14 -20 -30 -16
-36 3 -6 40 -11 86 -11 89 0 98 9 48 51 -30 24 -31 28 -24 76 l7 50 71 6 c70
5 72 6 114 52 24 26 48 65 54 88 16 59 4 153 -24 194 -31 47 -107 79 -131 56z
m33 -78 c40 -20 65 -85 56 -145 -17 -110 -89 -161 -155 -111 -21 17 -25 29
-28 95 -5 89 3 139 24 161 19 19 67 19 103 0z"/>
<path d="M6661 17443 c-50 -25 -84 -83 -89 -154 -6 -77 17 -136 69 -183 36
-33 44 -36 100 -36 74 0 121 20 157 68 25 33 27 43 27 127 0 85 -2 94 -29 129
-16 21 -44 44 -62 52 -45 19 -131 17 -173 -3z m118 -28 c45 -23 76 -96 76
-178 0 -66 -1 -70 -37 -103 -44 -39 -65 -42 -102 -13 -105 82 -89 303 22 308
7 1 26 -6 41 -14z"/>
<path d="M6981 17451 c-13 -8 -11 -13 7 -28 19 -16 22 -32 28 -161 7 -142 7
-143 36 -167 34 -29 75 -32 124 -9 29 14 39 14 64 4 26 -11 37 -10 70 5 45 20
47 23 23 41 -15 10 -19 34 -23 152 -6 155 -12 172 -65 172 -57 0 -88 -22 -46
-33 16 -4 20 -18 26 -110 8 -118 -1 -153 -47 -175 -23 -11 -32 -10 -56 2 -37
19 -42 44 -42 197 l0 119 -42 0 c-24 0 -50 -4 -57 -9z"/>
<path d="M8036 17453 c-3 -4 6 -17 21 -28 26 -22 27 -24 32 -169 6 -140 7
-149 30 -167 28 -23 69 -24 118 -4 30 13 43 13 65 4 24 -10 36 -9 68 6 22 10
40 20 40 22 0 1 -9 12 -20 23 -18 18 -20 33 -20 151 0 72 -5 139 -10 150 -8
15 -21 19 -59 19 -60 0 -67 -7 -36 -36 23 -22 25 -29 25 -123 0 -55 -4 -111
-9 -124 -12 -32 -63 -50 -95 -36 -30 14 -36 47 -36 202 l0 117 -53 0 c-30 0
-57 -3 -61 -7z"/>
<path d="M15302 17058 c-7 -7 -12 -21 -12 -33 0 -46 53 -62 71 -21 21 45 -26
87 -59 54z"/>
<path d="M17065 17059 c-37 -21 -77 -64 -98 -104 -20 -36 -22 -56 -22 -180 0
-135 1 -142 28 -188 15 -26 46 -59 68 -74 33 -22 46 -25 84 -20 63 9 101 31
131 76 52 79 60 308 13 392 -47 83 -146 131 -204 98z m91 -48 c46 -28 65 -94
67 -234 1 -134 -13 -197 -55 -232 -38 -32 -50 -31 -92 5 -49 43 -60 85 -60
225 0 135 11 180 56 225 35 35 43 36 84 11z"/>
<path d="M16751 16913 c-41 -54 -43 -57 -25 -70 17 -12 20 -32 24 -162 4 -131
7 -152 25 -171 16 -18 27 -21 58 -17 41 6 77 31 77 54 0 11 -8 13 -28 8 -48
-10 -57 12 -57 145 0 130 8 150 56 150 42 0 35 17 -11 30 -36 10 -40 14 -46
50 -4 22 -12 40 -18 40 -6 0 -31 -26 -55 -57z"/>
<path d="M15653 16872 c-36 -13 -46 -14 -67 -3 -25 14 -70 9 -93 -11 -17 -14
-16 -21 6 -47 23 -27 36 -120 26 -193 -9 -64 -19 -85 -45 -93 -41 -13 -6 -25
74 -25 89 0 109 7 74 24 -29 15 -36 42 -37 159 -1 111 12 137 72 137 60 0 62
-6 60 -147 -2 -115 -4 -130 -23 -145 -11 -9 -20 -19 -20 -22 0 -8 155 -8 163
0 3 4 -3 14 -15 23 -18 16 -21 31 -25 142 -5 148 -15 184 -53 204 -35 18 -44
18 -97 -3z"/>
<path d="M16060 16879 c-19 -6 -49 -8 -67 -6 -41 7 -102 -10 -110 -29 -3 -9 3
-21 16 -30 20 -15 21 -22 21 -221 0 -177 -2 -209 -17 -234 -23 -39 -9 -49 72
-49 84 0 93 9 50 47 -35 32 -43 59 -29 111 6 19 13 22 55 22 120 0 199 88 199
221 0 127 -83 200 -190 168z m77 -83 c26 -23 28 -30 32 -110 l3 -87 -37 -34
c-41 -40 -71 -44 -108 -15 -21 17 -26 31 -32 98 -7 82 5 156 28 165 34 14 87
6 114 -17z"/>
<path d="M15291 16862 c-41 -20 -49 -37 -23 -44 17 -5 20 -19 27 -102 9 -123
1 -174 -31 -188 -40 -19 -16 -28 72 -28 86 0 100 7 62 32 -26 18 -36 79 -37
236 -1 125 -3 129 -70 94z"/>
<path d="M16300 16865 c0 -7 8 -18 18 -24 14 -8 18 -30 22 -148 6 -141 14
-174 50 -193 26 -14 52 -13 106 6 33 11 49 13 57 5 16 -16 43 -13 89 10 l42
21 -26 14 c-22 11 -26 22 -31 81 -4 37 -7 107 -7 156 l0 87 -37 0 c-47 0 -83
-9 -83 -21 0 -5 9 -9 20 -9 13 0 24 -10 30 -26 14 -37 12 -194 -3 -224 -25
-49 -106 -64 -122 -23 -3 10 -9 82 -12 161 l-6 142 -54 0 c-40 0 -53 -4 -53
-15z"/>
<path d="M23793 16123 c-22 -8 -15 -22 38 -76 70 -71 151 -194 144 -217 -9
-27 -158 -199 -199 -227 -19 -14 -33 -30 -30 -34 6 -11 168 -12 178 -2 3 4 -5
16 -20 28 l-26 21 62 82 c34 45 65 82 68 82 15 -1 39 -28 80 -89 23 -35 42
-68 42 -72 0 -5 -12 -16 -26 -25 -19 -13 -22 -19 -12 -25 17 -11 205 -11 212
-1 3 5 -21 35 -52 68 -69 71 -162 207 -162 237 0 28 128 178 175 206 41 24 44
38 10 47 -28 7 -132 1 -141 -8 -3 -4 2 -17 10 -30 15 -23 14 -27 -15 -72 -18
-26 -43 -54 -56 -63 -23 -15 -26 -15 -59 18 -20 19 -42 46 -50 60 -12 24 -11
30 8 54 17 22 19 29 7 36 -15 9 -165 11 -186 2z"/>
<path d="M24758 16058 c-178 -242 -208 -290 -208 -332 0 -24 1 -24 104 -28 57
-1 108 -7 113 -11 4 -5 10 -34 13 -65 5 -56 6 -57 35 -57 29 0 30 2 35 55 6
67 14 80 46 80 14 0 27 6 30 14 8 22 -13 54 -38 58 -19 2 -24 11 -30 53 -3 28
-7 93 -7 146 -1 114 -9 159 -27 159 -7 0 -37 -33 -66 -72z m19 -178 c-3 -49
-8 -94 -12 -100 -9 -15 -155 -13 -155 3 1 6 30 51 66 100 46 61 71 87 86 87
20 0 21 -3 15 -90z"/>
<path d="M23250 16055 c0 -72 9 -82 31 -32 16 38 75 62 127 52 l32 -6 -1 -192
c0 -246 -4 -269 -47 -283 -55 -17 -41 -29 38 -32 81 -3 160 5 160 16 0 4 -13
13 -29 19 -26 9 -30 17 -36 65 -4 29 -5 131 -3 226 3 194 4 196 73 188 39 -5
68 -28 102 -82 10 -16 12 -7 10 51 l-2 70 -227 3 -228 2 0 -65z"/>
<path d="M17265 13838 c-43 -23 -78 -66 -110 -133 -30 -62 -33 -75 -25 -110 5
-22 10 -66 10 -97 0 -78 39 -160 94 -200 36 -26 47 -29 94 -26 123 10 179 113
170 317 -5 134 -35 199 -107 235 -54 28 -94 32 -126 14z m93 -44 c12 -8 32
-34 45 -57 20 -38 22 -55 20 -179 -1 -149 -11 -193 -48 -228 -98 -92 -193 101
-156 315 23 133 78 192 139 149z"/>
<path d="M15902 13699 c-50 -58 -57 -79 -27 -79 21 0 25 -24 25 -160 0 -175
11 -200 83 -186 34 6 77 38 77 57 0 5 -17 9 -37 7 -46 -4 -51 9 -52 142 -1
121 3 136 41 144 34 7 34 29 -1 34 -23 4 -41 37 -41 78 0 13 -3 24 -7 24 -5 0
-32 -27 -61 -61z"/>
<path d="M16985 13720 c-16 -22 -39 -49 -53 -59 l-25 -18 31 -23 32 -24 0
-143 c0 -130 2 -145 20 -163 26 -26 59 -25 101 3 34 23 47 56 19 48 -69 -19
-77 -3 -79 136 -1 112 8 139 48 148 40 8 40 24 0 32 -32 6 -49 33 -49 79 0 35
-13 30 -45 -16z"/>
<path d="M16296 13663 c-3 -4 -43 -7 -87 -8 -67 -1 -83 -4 -101 -23 l-21 -21
21 -18 c21 -17 22 -27 24 -226 3 -189 1 -210 -14 -221 -10 -7 -18 -23 -18 -35
0 -20 5 -21 80 -21 90 0 103 13 50 50 -31 22 -35 41 -24 97 6 30 8 31 77 36
70 5 72 6 114 52 24 26 48 65 54 88 16 59 4 153 -24 194 -31 47 -107 79 -131
56z m33 -78 c58 -29 75 -139 35 -217 -29 -57 -88 -74 -133 -39 -21 16 -26 30
-29 85 -5 82 5 151 24 171 19 19 67 19 103 0z"/>
<path d="M15122 13643 c-61 -30 -77 -65 -77 -175 0 -82 3 -101 21 -124 38 -51
70 -68 139 -72 77 -5 122 17 162 81 23 37 25 47 21 127 -5 98 -23 136 -82 164
-44 21 -141 21 -184 -1z m113 -27 c100 -42 110 -276 13 -308 -42 -14 -79 9
-113 72 -52 98 -37 200 36 237 30 16 23 16 64 -1z"/>
<path d="M15451 13651 c-13 -8 -11 -13 7 -28 19 -16 22 -32 28 -161 7 -142 7
-143 36 -167 34 -29 75 -32 124 -9 29 14 39 14 64 4 26 -11 37 -10 70 5 45 20
47 23 23 41 -15 10 -19 34 -23 152 -6 155 -12 172 -65 172 -57 0 -88 -22 -46
-33 16 -4 20 -18 26 -110 8 -118 -1 -153 -47 -175 -23 -11 -32 -10 -56 2 -37
19 -42 44 -42 197 l0 119 -42 0 c-24 0 -50 -4 -57 -9z"/>
<path d="M16500 13646 c0 -7 11 -21 24 -30 24 -15 25 -20 28 -162 3 -141 4
-146 28 -166 20 -17 33 -19 70 -13 25 4 74 8 110 9 58 1 110 17 110 33 0 3 -8
12 -17 19 -15 10 -19 34 -23 156 -3 79 -9 149 -13 156 -8 12 -98 17 -110 5 -4
-3 5 -16 18 -29 23 -21 25 -30 25 -117 0 -110 -11 -150 -46 -166 -34 -15 -75
4 -85 39 -4 14 -7 82 -8 153 l-1 127 -55 0 c-40 0 -55 -4 -55 -14z"/>
<path d="M23122 13838 c-26 -26 -10 -78 24 -78 30 0 54 43 37 68 -13 21 -44
27 -61 10z"/>
<path d="M24858 13821 c-55 -35 -82 -87 -99 -189 -31 -188 48 -362 165 -362
23 0 61 10 86 23 36 17 51 34 74 80 25 49 30 72 34 160 5 123 -11 192 -59 251
-59 71 -128 83 -201 37z m107 -27 c58 -27 70 -67 70 -239 0 -127 -3 -156 -19
-188 -23 -46 -65 -71 -98 -58 -60 23 -80 86 -81 261 -2 112 1 130 20 167 19
35 56 73 71 73 2 0 19 -7 37 -16z"/>
<path d="M24584 13713 c-56 -67 -56 -66 -29 -103 24 -32 25 -41 25 -170 0
-124 2 -139 20 -155 23 -21 82 -15 111 11 31 28 24 44 -20 44 -26 0 -41 5 -45
16 -3 9 -6 71 -6 139 l0 122 50 7 c61 8 64 22 8 33 -36 7 -44 14 -52 38 -20
69 -18 69 -62 18z"/>
<path d="M23470 13653 c-36 -12 -51 -13 -76 -4 -23 8 -39 8 -60 1 -42 -16 -46
-30 -17 -64 24 -28 25 -34 21 -137 -3 -95 -6 -110 -25 -131 -13 -14 -23 -27
-23 -31 0 -4 39 -7 88 -7 l87 1 -25 20 c-24 21 -25 25 -25 146 0 143 7 156 80
151 37 -3 40 -5 48 -43 4 -22 7 -84 5 -138 -2 -81 -6 -100 -20 -108 -35 -20
-17 -29 55 -29 83 0 98 7 66 30 -27 21 -38 78 -39 208 0 88 -3 105 -20 122
-11 11 -26 20 -34 20 -8 0 -20 2 -28 5 -7 2 -33 -3 -58 -12z"/>
<path d="M23880 13659 c-14 -6 -44 -8 -68 -5 -47 6 -112 -14 -112 -35 0 -6 8
-18 18 -25 15 -11 17 -34 17 -226 0 -187 -2 -216 -18 -239 -9 -14 -14 -29 -10
-32 8 -9 163 -9 163 -1 0 4 -14 22 -31 41 -26 30 -30 41 -27 81 l3 47 70 3
c63 3 73 6 104 35 50 48 71 100 71 182 0 92 -26 150 -74 170 -41 17 -70 18
-106 4z m86 -92 c47 -54 37 -177 -18 -229 -64 -60 -129 -21 -136 82 -6 77 5
145 25 166 25 24 101 13 129 -19z"/>
<path d="M23114 13646 c-44 -20 -50 -34 -21 -56 50 -39 45 -232 -7 -277 -14
-12 -26 -25 -26 -28 0 -3 40 -5 89 -5 86 0 124 12 81 25 -36 11 -44 44 -48
203 -5 168 -4 166 -68 138z"/>
<path d="M24106 13653 c-3 -4 6 -17 21 -28 26 -22 27 -24 32 -169 6 -140 7
-149 30 -167 28 -23 69 -24 118 -4 30 13 43 13 65 4 24 -10 36 -9 68 6 22 10
40 20 40 22 0 1 -9 12 -20 23 -18 18 -20 33 -20 151 0 72 -5 139 -10 150 -8
15 -21 19 -59 19 -60 0 -67 -7 -36 -36 23 -22 25 -29 25 -123 0 -55 -4 -111
-9 -124 -12 -32 -63 -50 -95 -36 -30 14 -36 47 -36 202 l0 117 -53 0 c-30 0
-57 -3 -61 -7z"/>
<path d="M19710 9139 c-39 -16 -79 -60 -101 -108 -24 -56 -17 -89 10 -45 39
61 58 74 115 74 44 0 57 -4 77 -26 20 -21 24 -36 24 -84 0 -50 -5 -64 -37
-111 -21 -30 -74 -94 -118 -144 -44 -49 -79 -97 -77 -105 2 -12 27 -15 140
-18 82 -1 145 2 157 8 18 10 65 99 56 107 -2 3 -16 -3 -29 -12 -16 -10 -57
-18 -116 -22 -117 -8 -117 -1 -11 120 44 50 87 106 95 123 17 36 20 130 6 167
-23 61 -128 103 -191 76z"/>
<path d="M20109 9130 c-82 -44 -122 -135 -123 -275 0 -112 23 -183 79 -242
l44 -46 67 6 c57 4 70 9 100 38 54 53 69 105 69 249 0 117 -2 129 -28 182 -45
93 -133 130 -208 88z m100 -46 c18 -14 36 -34 41 -44 18 -34 32 -206 21 -279
-11 -82 -26 -117 -63 -144 -23 -17 -31 -18 -55 -8 -66 27 -100 133 -89 283 7
102 27 158 68 193 37 31 39 31 77 -1z"/>
<path d="M20443 9125 c-37 -16 -42 -30 -14 -38 27 -7 34 -75 30 -287 l-4 -172
-28 -23 c-24 -19 -26 -23 -12 -29 21 -8 113 -8 143 0 27 8 29 21 3 29 -22 7
-44 62 -39 97 2 14 11 24 24 26 16 2 30 -11 57 -50 21 -29 37 -63 37 -75 0
-28 31 -37 101 -31 58 6 72 15 44 30 -30 16 -124 118 -152 165 l-25 43 21 29
c25 35 107 91 133 91 22 0 24 16 2 24 -20 8 -98 8 -118 0 -11 -4 -14 -14 -10
-29 4 -17 -3 -29 -33 -54 -57 -47 -69 -42 -77 30 -3 34 -6 92 -6 128 0 114
-10 125 -77 96z"/>
<path d="M27552 5084 c-35 -18 -63 -36 -62 -41 0 -4 13 -11 29 -16 l29 -7 7
-184 c4 -108 4 -196 -2 -212 -5 -17 -23 -36 -41 -45 -17 -9 -29 -19 -25 -23
10 -9 213 -7 213 3 0 5 -13 14 -29 21 l-29 12 -7 259 c-4 143 -10 261 -14 262
-3 2 -34 -11 -69 -29z"/>
<path d="M27918 5100 c-75 -40 -113 -135 -113 -280 1 -110 22 -170 83 -232 35
-36 39 -38 102 -38 63 0 69 2 104 36 43 42 52 61 73 163 48 233 -94 433 -249
351z m121 -44 c36 -38 51 -107 51 -235 0 -133 -9 -173 -47 -213 -34 -35 -64
-36 -103 0 -40 35 -50 78 -50 232 0 101 4 133 19 166 33 73 89 94 130 50z"/>
<path d="M28263 5100 c-49 -22 -52 -27 -20 -39 23 -9 24 -14 30 -168 4 -87 7
-188 7 -225 0 -64 -1 -68 -30 -85 -16 -9 -30 -21 -30 -25 0 -10 174 -11 183
-1 4 3 -6 14 -22 24 -47 29 -56 119 -12 119 25 0 93 -94 89 -123 -3 -21 1 -22
71 -25 41 -2 78 1 83 6 5 5 -8 19 -29 33 -20 13 -66 62 -101 109 l-65 84 62
58 c40 38 70 58 86 58 13 0 26 4 29 9 8 12 -29 21 -91 21 -52 0 -53 -1 -53
-29 0 -22 -10 -38 -37 -60 -32 -26 -59 -38 -64 -28 -1 1 -4 69 -8 152 -7 169
-7 168 -78 135z"/>
<path d="M32635 11586 c-89 -28 -162 -88 -213 -175 -25 -42 -27 -55 -26 -146
0 -75 5 -109 18 -135 41 -80 89 -110 174 -110 53 0 61 3 89 33 49 51 67 95 68
162 0 67 -21 114 -68 149 -23 17 -42 21 -98 20 -83 -1 -86 7 -30 80 35 47 94
86 166 110 16 6 17 9 5 16 -19 12 -36 12 -85 -4z m-35 -261 c49 -25 60 -51 60
-140 0 -68 -3 -85 -20 -103 -26 -28 -65 -38 -95 -24 -31 15 -72 96 -81 160 -6
49 -5 53 29 87 38 38 63 43 107 20z"/>
<path d="M31683 11583 c-96 -4 -101 -12 -47 -64 58 -54 154 -188 154 -214 0
-35 -181 -255 -210 -255 -5 0 -10 -7 -10 -15 0 -12 17 -15 90 -15 73 0 90 3
90 15 0 8 -6 15 -13 15 -27 0 -37 22 -22 50 27 52 95 130 114 130 19 0 59 -44
98 -110 23 -37 17 -70 -12 -70 -23 0 -17 -17 8 -24 34 -9 205 -7 211 3 3 4
-10 19 -29 32 -59 42 -195 231 -195 270 0 26 96 146 157 198 24 19 43 38 43
42 0 12 -68 20 -119 13 l-50 -6 21 -28 c24 -33 19 -46 -46 -109 -43 -43 -46
-44 -69 -28 -13 9 -39 37 -56 64 l-32 48 26 18 c31 23 33 48 3 45 -13 -1 -60
-4 -105 -5z"/>
<path d="M31067 11574 c-11 -11 -8 -122 3 -129 6 -3 10 -2 10 4 0 6 14 26 30
45 22 24 43 36 71 41 72 12 74 5 74 -223 0 -108 -3 -209 -7 -224 -5 -17 -19
-30 -39 -37 -17 -6 -28 -15 -24 -21 8 -13 212 -13 220 0 3 5 -8 16 -25 25 -17
9 -33 27 -37 43 -12 41 -6 398 7 422 23 43 123 11 152 -50 21 -44 30 -25 26
51 l-3 54 -226 3 c-124 1 -228 -1 -232 -4z"/>
<path d="M29747 3663 c-4 -3 -7 -498 -7 -1100 l0 -1093 2164 0 2164 0 4 524
c2 289 7 528 12 533 4 4 61 10 127 12 l119 3 0 28 0 28 -120 4 c-66 2 -123 8
-127 12 -4 4 -10 244 -11 532 l-4 524 -2157 0 c-1187 0 -2161 -3 -2164 -7z
m4257 -279 c4 -118 4 -579 0 -1023 l-7 -808 -1746 -7 c-960 -4 -1899 -4 -2087
0 l-341 7 -7 111 c-8 146 -8 1307 1 1654 l6 272 211 3 c116 1 1055 3 2087 5
l1876 2 7 -216z"/>
<path d="M32900 2884 c-51 -22 -77 -51 -99 -109 -40 -106 -36 -268 9 -354 28
-56 72 -92 118 -98 57 -8 86 2 132 43 58 53 84 141 78 272 -3 84 -8 104 -33
151 -53 97 -125 130 -205 95z m91 -41 c40 -24 57 -67 68 -170 16 -156 -7 -259
-70 -305 -25 -19 -28 -19 -59 -3 -55 28 -72 84 -73 243 -2 124 0 141 20 179
21 39 56 73 76 73 5 0 22 -8 38 -17z"/>
<path d="M31537 2748 l-45 -52 21 -31 c19 -26 22 -46 25 -165 3 -122 6 -137
25 -158 24 -26 61 -25 104 3 34 23 31 49 -6 42 -45 -9 -54 11 -58 131 -5 127
5 155 55 160 44 4 40 19 -8 32 -36 10 -40 14 -46 50 -4 22 -10 40 -14 40 -5 0
-28 -24 -53 -52z"/>
<path d="M32589 2748 l-49 -53 25 -22 c24 -22 25 -25 25 -163 0 -138 1 -141
26 -167 20 -20 31 -24 57 -19 76 15 106 66 38 66 -26 0 -41 5 -45 16 -3 9 -6
71 -6 139 l0 123 50 7 c58 8 65 21 15 31 -44 8 -65 28 -65 59 0 43 -20 38 -71
-17z"/>
<path d="M30775 2702 c-71 -34 -105 -94 -105 -184 0 -67 26 -124 75 -167 38
-33 40 -33 112 -29 67 5 77 8 108 38 50 48 69 105 63 185 -4 49 -12 73 -31 99
-50 65 -151 91 -222 58z m97 -33 c31 -13 68 -68 79 -116 25 -108 -41 -221
-114 -194 -100 38 -127 258 -38 306 32 17 43 18 73 4z"/>
<path d="M31905 2709 c-16 -5 -51 -7 -77 -4 -33 4 -57 1 -78 -10 -34 -18 -38
-32 -12 -51 15 -11 17 -34 17 -227 0 -198 -2 -217 -19 -236 -11 -12 -17 -23
-15 -25 8 -8 169 -18 169 -11 0 4 -13 23 -30 42 -24 27 -30 43 -30 82 0 48 0
48 38 55 20 3 55 6 78 6 77 0 134 89 134 207 -1 140 -68 206 -175 172z m76
-88 c27 -27 29 -35 29 -105 0 -70 -2 -78 -30 -110 -34 -38 -78 -53 -108 -37
-33 18 -44 63 -41 161 5 105 15 120 82 120 29 0 45 -7 68 -29z"/>
<path d="M31088 2703 c-23 -6 -23 -19 0 -25 24 -7 32 -52 32 -189 0 -92 3
-110 20 -132 28 -35 75 -43 129 -21 35 14 46 15 66 4 20 -11 32 -10 70 4 25
10 45 20 45 23 0 3 -11 16 -25 29 -24 23 -25 26 -25 169 l0 145 -60 0 c-44 0
-60 -4 -60 -14 0 -7 9 -16 19 -19 16 -4 20 -18 26 -113 9 -120 1 -149 -47
-172 -33 -16 -74 -2 -83 28 -4 12 -10 81 -14 154 l-6 131 -35 2 c-19 0 -43 -1
-52 -4z"/>
<path d="M32135 2701 c-3 -6 5 -16 19 -23 l26 -11 0 -139 c0 -77 5 -148 10
-159 12 -22 61 -49 89 -49 11 0 36 8 56 17 29 14 40 15 55 5 26 -16 45 -15 83
4 44 23 43 21 14 48 -27 25 -27 26 -27 171 l0 145 -60 0 c-44 0 -60 -4 -60
-14 0 -7 8 -16 18 -18 22 -6 32 -61 32 -173 0 -61 -3 -74 -22 -92 -38 -34 -63
-37 -95 -9 l-28 24 -1 139 0 138 -51 3 c-28 2 -54 -2 -58 -7z"/>
<path d="M17288 10618 c-32 -17 -58 -34 -58 -38 0 -4 13 -10 29 -13 l29 -6 7
-174 c9 -215 4 -255 -36 -269 -54 -19 -29 -28 76 -28 98 0 132 10 85 25 -11 4
-28 18 -38 33 -15 22 -17 60 -21 264 -1 131 -6 238 -10 238 -3 0 -32 -15 -63
-32z"/>
<path d="M15902 10509 l-52 -61 25 -20 c24 -19 25 -22 25 -153 0 -140 7 -178
36 -189 25 -10 80 3 103 25 31 29 26 40 -16 37 -33 -3 -37 0 -45 27 -5 17 -6
80 -2 142 l6 112 30 10 c32 11 30 31 -3 31 -21 0 -39 35 -39 76 0 13 -4 24 -8
24 -5 0 -32 -27 -60 -61z"/>
<path d="M16962 10510 l-53 -59 31 -22 30 -23 0 -143 c0 -132 2 -145 21 -164
24 -24 68 -21 108 9 42 31 39 44 -10 40 -41 -3 -44 -1 -50 27 -12 54 -9 209 4
235 7 14 23 26 35 28 29 4 23 26 -7 30 -23 4 -41 37 -41 78 0 13 -3 24 -7 23
-5 0 -32 -27 -61 -59z"/>
<path d="M15175 10473 c-50 -11 -79 -29 -106 -66 -27 -37 -29 -47 -29 -127 0
-80 2 -90 29 -127 76 -104 240 -95 299 17 20 39 23 56 20 125 -4 90 -25 132
-82 159 -36 16 -102 26 -131 19z m65 -43 c30 -16 68 -90 76 -148 11 -85 -34
-172 -90 -172 -23 0 -75 49 -95 89 -31 60 -35 114 -13 163 32 74 71 95 122 68z"/>
<path d="M16270 10470 c-19 -5 -55 -7 -80 -4 -36 5 -50 2 -72 -16 -33 -25 -35
-36 -9 -43 17 -4 19 -20 26 -175 8 -183 1 -270 -21 -279 -8 -3 -14 -13 -14
-23 0 -13 12 -19 53 -24 82 -9 107 -8 107 8 0 8 -13 24 -30 36 -31 22 -35 41
-24 98 6 30 8 31 78 38 67 6 73 9 113 50 52 53 67 104 58 188 -12 99 -43 142
-110 150 -22 3 -56 1 -75 -4z m72 -87 c54 -57 61 -114 23 -190 -32 -64 -68
-82 -114 -58 -40 20 -51 49 -51 135 0 70 12 119 33 132 28 18 83 8 109 -19z"/>
<path d="M15440 10461 c0 -6 10 -17 23 -26 21 -14 22 -24 27 -159 4 -123 8
-147 24 -165 27 -30 74 -36 125 -15 33 13 47 14 67 5 34 -15 44 -14 82 9 l32
20 -20 20 c-18 18 -20 33 -20 151 0 72 -5 139 -10 150 -9 15 -22 19 -65 19
-30 0 -55 -3 -55 -6 0 -4 12 -18 26 -31 26 -24 26 -26 22 -133 -3 -89 -7 -112
-22 -129 -23 -25 -72 -28 -104 -5 -21 14 -22 22 -22 160 l0 144 -55 0 c-30 0
-55 -4 -55 -9z"/>
<path d="M16496 10463 c-3 -4 6 -17 21 -29 27 -21 27 -23 33 -166 3 -96 9
-150 18 -160 20 -24 68 -29 118 -12 38 13 52 13 75 3 25 -10 36 -9 69 6 22 10
40 20 40 22 0 3 -9 16 -20 30 -18 23 -20 41 -20 150 0 68 -5 133 -10 144 -8
15 -21 19 -59 19 -26 0 -51 -3 -54 -7 -4 -3 5 -17 19 -30 26 -24 26 -26 22
-140 -5 -129 -12 -143 -74 -143 -52 0 -58 17 -63 176 l-3 144 -52 0 c-29 0
-56 -3 -60 -7z"/>
<path d="M25090 10653 c-29 -10 -82 -68 -108 -118 -24 -44 -27 -61 -27 -140 1
-125 11 -176 46 -229 43 -64 88 -90 145 -82 121 16 174 105 174 292 0 107 -15
165 -57 213 -19 23 -48 48 -64 56 -28 15 -80 19 -109 8z m86 -52 c47 -29 65
-93 65 -234 0 -126 -10 -180 -42 -221 -43 -54 -122 -22 -151 62 -16 48 -16
253 1 311 13 45 59 101 83 101 7 0 27 -9 44 -19z"/>
<path d="M23721 10513 l-50 -58 22 -23 c20 -21 23 -37 28 -165 3 -78 9 -150
13 -160 16 -35 85 -30 128 10 26 24 22 33 -16 33 -54 0 -61 18 -59 147 1 122
9 143 49 143 15 0 24 6 24 15 0 9 -9 15 -23 15 -33 0 -47 19 -47 62 0 21 -4
38 -9 38 -5 0 -32 -26 -60 -57z"/>
<path d="M24801 10535 c-17 -20 -38 -47 -47 -61 -16 -23 -15 -26 2 -45 16 -18
20 -42 24 -166 5 -138 6 -146 29 -164 27 -22 67 -19 109 8 31 19 23 37 -17 41
-44 5 -53 34 -49 165 3 117 8 127 61 127 15 0 27 4 27 9 0 11 -25 21 -51 21
-21 0 -39 35 -39 76 0 33 -12 30 -49 -11z"/>
<path d="M22975 10473 c-36 -9 -87 -55 -106 -97 -42 -92 -8 -220 72 -273 35
-23 46 -25 105 -20 55 4 71 10 96 33 65 62 88 144 64 226 -30 104 -124 157
-231 131z m85 -48 c43 -22 72 -86 74 -159 1 -74 -17 -122 -55 -141 -41 -22
-57 -19 -94 18 -38 38 -55 89 -55 164 0 67 13 98 47 117 36 19 47 19 83 1z"/>
<path d="M24081 10469 c-14 -5 -43 -7 -66 -3 -30 4 -52 1 -74 -10 -36 -19 -39
-31 -12 -54 18 -15 21 -36 27 -220 l7 -203 -27 -28 c-15 -16 -24 -31 -19 -34
5 -3 44 -9 86 -13 66 -6 77 -5 77 9 0 9 -13 25 -30 37 -31 22 -35 41 -24 99 6
28 10 31 43 31 70 1 115 17 148 56 112 128 62 346 -79 343 -18 0 -44 -5 -57
-10z m63 -65 c30 -12 58 -71 58 -127 1 -106 -71 -179 -141 -143 -35 19 -46 65
-39 177 3 55 8 74 23 85 19 14 71 19 99 8z"/>
<path d="M23260 10463 c0 -4 9 -16 20 -28 17 -19 22 -42 29 -164 6 -90 14
-147 22 -157 25 -30 59 -36 115 -19 41 12 58 13 78 4 29 -14 65 -6 97 20 l24
19 -28 13 -27 12 0 154 0 153 -60 0 c-44 0 -60 -4 -60 -14 0 -7 8 -16 19 -19
37 -9 37 -254 0 -278 -8 -5 -32 -8 -54 -7 l-40 3 -7 55 c-3 30 -6 101 -7 158
l-1 102 -60 0 c-33 0 -60 -3 -60 -7z"/>
<path d="M24316 10463 c-4 -4 3 -15 15 -24 21 -16 23 -27 28 -156 8 -193 28
-218 152 -186 36 9 56 10 63 3 15 -15 43 -12 88 11 l42 21 -27 15 c-15 7 -28
21 -28 31 -1 9 -4 78 -8 152 l-6 135 -57 3 c-61 3 -78 -11 -34 -28 30 -11 40
-63 34 -176 -3 -65 -7 -79 -27 -95 -27 -22 -84 -25 -100 -5 -8 9 -15 71 -18
160 l-6 146 -52 0 c-28 0 -55 -3 -59 -7z"/>
<path d="M30934 9296 c-3 -8 -4 -27 -2 -43 5 -49 78 -38 78 13 0 34 -65 60
-76 30z"/>
<path d="M32668 9281 c-37 -24 -52 -43 -82 -106 l-37 -77 11 -97 c14 -128 35
-183 87 -232 37 -34 49 -39 89 -39 94 0 149 51 179 165 30 117 14 258 -37 336
-25 37 -98 79 -138 79 -14 0 -47 -13 -72 -29z m104 -21 c13 -6 34 -28 48 -48
24 -35 25 -46 28 -192 3 -170 -5 -202 -61 -244 -26 -19 -29 -19 -62 -3 -22 10
-43 32 -57 59 -21 39 -23 56 -22 183 1 122 4 146 22 182 20 38 55 73 74 73 4
0 17 -5 30 -10z"/>
<path d="M32392 9159 c-50 -58 -57 -79 -27 -79 21 0 25 -24 25 -161 0 -147 12
-189 55 -189 31 0 68 14 88 35 26 26 20 36 -20 33 -47 -4 -51 8 -52 165 l-1
117 28 0 c30 0 60 15 50 26 -4 3 -22 9 -40 13 -31 6 -33 9 -36 54 -2 26 -6 47
-10 47 -4 0 -31 -27 -60 -61z"/>
<path d="M31299 9121 c-14 -5 -35 -14 -48 -20 -19 -11 -26 -10 -42 5 -15 13
-26 15 -50 8 -48 -14 -59 -38 -30 -65 23 -22 24 -25 17 -143 -6 -101 -10 -124
-27 -142 -18 -19 -18 -22 -4 -28 21 -8 94 -8 134 0 l32 7 -33 27 -33 28 0 105
c0 98 2 107 25 132 33 35 88 32 107 -5 14 -27 18 -227 5 -246 -4 -6 -18 -17
-32 -24 l-25 -14 25 -7 c37 -10 133 -10 149 0 12 8 11 13 -7 28 -21 16 -23 30
-31 158 -8 149 -17 180 -57 195 -29 11 -39 11 -75 1z"/>
<path d="M31737 9124 c-3 -3 -45 -7 -92 -9 -73 -2 -90 -6 -108 -24 -21 -21
-21 -21 -2 -35 19 -14 20 -27 20 -230 0 -200 -1 -216 -19 -229 -12 -9 -17 -20
-13 -31 5 -13 21 -16 87 -16 44 0 80 4 80 8 0 5 -13 21 -29 36 -32 31 -49 99
-30 122 8 9 33 14 75 14 57 0 67 3 100 32 55 48 74 98 74 195 0 74 -2 84 -27
114 -34 40 -99 70 -116 53z m30 -86 c30 -24 55 -97 48 -136 -21 -112 -97 -164
-158 -108 -21 19 -26 36 -32 99 -8 88 -3 119 26 148 17 17 30 20 61 16 21 -3
46 -11 55 -19z"/>
<path d="M30923 9100 c-39 -23 -40 -26 -10 -50 21 -17 22 -26 21 -136 l0 -117
-33 -27 c-39 -33 -29 -40 62 -40 76 0 102 13 72 35 -21 17 -33 98 -34 238 -1
79 -12 117 -34 117 -7 0 -27 -9 -44 -20z"/>
<path d="M31938 9113 c-24 -6 -23 -20 1 -28 29 -9 33 -28 39 -178 4 -134 5
-138 31 -158 21 -17 34 -20 71 -14 25 4 74 8 110 9 60 2 110 17 110 34 0 4 -9
13 -20 20 -18 11 -20 23 -20 140 0 144 -10 175 -54 180 -56 7 -103 -19 -57
-31 16 -4 19 -18 26 -99 11 -149 -8 -198 -76 -198 -44 0 -50 19 -57 177 l-7
148 -40 2 c-22 0 -48 -1 -57 -4z"/>
<path d="M23851 7911 c-36 -3 -66 -11 -68 -17 -2 -6 11 -22 30 -36 18 -14 46
-45 62 -69 17 -24 33 -46 36 -49 4 -3 20 -30 38 -61 l31 -56 -37 -49 c-67 -90
-145 -175 -174 -190 -17 -8 -27 -19 -24 -24 7 -11 168 -14 179 -3 3 4 -5 16
-20 28 l-26 21 62 82 c34 45 65 82 69 82 17 0 121 -138 121 -160 0 -5 -11 -17
-26 -26 -14 -10 -21 -21 -16 -26 13 -13 215 -5 219 9 2 6 -5 14 -16 18 -22 7
-77 74 -161 196 -42 61 -48 75 -38 93 23 45 124 159 166 188 24 17 40 34 35
38 -4 4 -43 11 -85 15 -85 7 -89 5 -63 -44 14 -28 13 -31 -21 -75 -60 -79 -87
-81 -137 -9 -30 44 -33 69 -12 97 28 37 15 39 -124 27z"/>
<path d="M24745 7911 l-60 -6 -44 -89 c-32 -66 -41 -93 -34 -105 5 -8 37 -23
69 -33 112 -33 179 -117 154 -193 -13 -39 -71 -95 -99 -95 -10 0 -44 12 -76
26 -64 30 -78 25 -73 -27 l3 -34 90 -2 c84 -3 93 -1 130 25 22 15 50 46 63 67
20 35 22 50 19 124 l-4 85 -52 48 c-29 26 -64 50 -79 53 -50 10 -75 20 -79 30
-8 26 18 37 101 44 93 9 110 18 121 64 7 27 7 27 -41 25 -27 -1 -76 -4 -109
-7z"/>
<path d="M23250 7845 c0 -70 10 -82 30 -36 16 39 57 55 133 52 l29 -1 -4 -217
c-2 -120 -8 -226 -12 -235 -4 -9 -21 -21 -37 -27 -16 -5 -29 -15 -29 -20 0
-14 226 -15 235 -1 3 5 -9 16 -28 24 -44 18 -47 35 -47 282 l0 192 38 5 c52 6
95 -14 123 -59 l24 -39 3 59 c2 32 1 65 -2 72 -4 11 -50 14 -231 14 l-225 0 0
-65z"/>
<path d="M30934 6076 c-3 -8 -4 -27 -2 -43 5 -49 78 -38 78 13 0 34 -65 60
-76 30z"/>
<path d="M32718 6048 c-59 -32 -72 -48 -39 -48 41 0 46 -23 46 -224 0 -203 -7
-236 -46 -236 -12 0 -19 -5 -17 -12 5 -14 144 -24 185 -13 28 7 31 25 5 25
-11 0 -27 9 -38 21 -17 19 -19 42 -23 270 -1 137 -6 249 -10 249 -3 0 -32 -15
-63 -32z"/>
<path d="M32392 5939 c-50 -58 -57 -79 -27 -79 21 0 25 -24 25 -161 0 -182 17
-210 109 -178 29 10 51 35 51 57 0 7 -11 6 -30 -1 -19 -7 -33 -8 -39 -2 -5 6
-13 72 -17 148 -7 134 -6 137 14 137 27 0 52 10 52 21 0 5 -15 12 -32 17 -31
8 -33 11 -36 55 -2 26 -6 47 -10 47 -4 0 -31 -27 -60 -61z"/>
<path d="M31291 5895 c-40 -18 -65 -19 -89 -4 -23 14 -71 1 -86 -24 -8 -13 -5
-21 13 -38 23 -22 24 -25 17 -143 -5 -87 -11 -125 -22 -138 -9 -9 -13 -22 -9
-27 7 -12 105 -15 143 -5 23 7 23 7 -10 34 l-33 28 0 105 c0 98 2 107 24 131
28 30 81 35 102 10 15 -18 26 -204 15 -247 -3 -13 -18 -29 -33 -37 -26 -12
-27 -13 -8 -21 28 -11 137 -11 154 0 13 8 11 13 -7 28 -20 16 -23 32 -31 159
-5 78 -14 151 -20 162 -6 11 -25 25 -42 31 -39 13 -36 14 -78 -4z"/>
<path d="M31737 5903 c-4 -3 -46 -7 -93 -8 -72 -2 -89 -5 -107 -23 -21 -21
-21 -22 -2 -36 19 -14 20 -27 20 -230 0 -200 -1 -216 -19 -229 -12 -9 -17 -20
-13 -31 5 -13 21 -16 87 -16 44 0 80 4 80 8 0 5 -13 21 -30 37 -25 24 -30 36
-30 76 0 53 -5 50 109 63 32 3 53 13 77 37 50 48 67 102 63 198 -4 68 -8 83
-29 107 -35 37 -97 63 -113 47z m30 -85 c30 -24 55 -97 48 -136 -21 -114 -96
-165 -158 -108 -21 19 -26 36 -32 99 -8 88 -3 119 26 148 17 17 30 20 61 16
21 -3 46 -11 55 -19z"/>
<path d="M30944 5889 c-17 -5 -37 -16 -44 -24 -10 -12 -8 -18 11 -34 23 -18
24 -25 23 -137 l0 -117 -33 -27 c-39 -33 -29 -40 62 -40 81 0 100 11 69 40
-12 11 -23 33 -23 48 -10 227 -16 296 -24 298 -5 1 -24 -2 -41 -7z"/>
<path d="M31938 5893 c-24 -6 -23 -20 1 -28 29 -9 33 -28 39 -178 4 -134 5
-138 31 -158 21 -17 34 -20 71 -14 25 4 74 8 110 9 60 2 110 17 110 34 0 4 -9
13 -20 20 -18 11 -20 23 -20 140 0 144 -10 175 -54 180 -56 7 -103 -19 -57
-31 16 -4 19 -18 26 -99 11 -149 -8 -198 -76 -198 -45 0 -51 19 -57 180 l-5
150 -41 -1 c-23 -1 -49 -3 -58 -6z"/>
<path d="M23114 5626 c-3 -8 -4 -27 -2 -43 2 -22 9 -29 30 -31 38 -4 56 30 33
64 -17 26 -52 32 -61 10z"/>
<path d="M24872 5619 c-69 -34 -105 -106 -118 -231 -11 -117 22 -232 86 -293
28 -27 38 -30 95 -30 80 0 109 19 149 98 24 48 29 72 33 160 7 124 -10 188
-65 249 -64 71 -108 82 -180 47z m99 -36 c42 -25 58 -69 67 -179 10 -128 -1
-217 -32 -265 -30 -44 -56 -55 -92 -37 -64 31 -90 125 -80 284 6 111 28 169
70 195 37 23 32 23 67 2z"/>
<path d="M24580 5498 c-51 -61 -52 -62 -25 -98 24 -32 25 -41 25 -170 0 -120
2 -139 18 -153 27 -24 76 -21 108 6 33 29 25 47 -20 47 l-33 0 -7 92 c-3 50
-6 113 -6 140 0 46 1 48 28 48 37 0 72 10 72 21 0 4 -22 11 -49 15 -50 6 -50
6 -53 47 -2 22 -7 42 -13 44 -5 1 -26 -16 -45 -39z"/>
<path d="M23926 5452 c-4 -3 -47 -6 -97 -7 -78 -2 -94 -5 -112 -23 -21 -21
-21 -22 -2 -36 19 -14 20 -27 20 -228 0 -187 -2 -216 -17 -238 -10 -13 -18
-28 -18 -32 0 -5 38 -8 85 -8 47 0 85 3 85 7 0 4 -12 19 -26 34 -19 20 -28 42
-32 78 l-4 50 33 5 c19 3 56 8 82 11 36 5 56 14 82 41 44 43 58 98 53 197 -4
70 -8 81 -34 108 -29 29 -87 53 -98 41z m29 -89 c68 -74 47 -220 -38 -261 -24
-12 -32 -11 -62 8 -41 26 -50 58 -43 168 4 63 9 79 28 94 34 27 84 23 115 -9z"/>
<path d="M23108 5429 c-21 -11 -38 -23 -38 -26 0 -4 11 -16 25 -28 21 -16 27
-32 31 -85 9 -92 -10 -178 -42 -192 -14 -6 -23 -16 -21 -22 4 -12 128 -20 166
-11 l24 6 -32 27 -32 27 -7 160 c-8 178 -8 180 -74 144z"/>
<path d="M23460 5437 c-15 -8 -34 -11 -45 -6 -47 18 -125 4 -125 -22 0 -6 10
-19 23 -29 21 -17 22 -26 22 -140 l0 -122 -28 -23 c-24 -19 -26 -23 -12 -29
25 -9 138 -7 154 3 12 8 9 12 -13 22 l-28 13 4 124 c4 116 6 126 27 143 27 22
74 25 89 7 6 -7 13 -65 17 -128 7 -109 6 -117 -15 -142 -12 -15 -18 -32 -15
-38 7 -11 138 -14 148 -3 4 3 -2 17 -14 29 -28 29 -38 85 -39 205 0 82 -3 100
-21 123 -16 21 -29 26 -62 26 -23 0 -53 -6 -67 -13z"/>
<path d="M24110 5439 c-10 -7 -11 -12 -4 -15 45 -19 48 -27 53 -179 6 -139 7
-148 30 -166 29 -24 93 -25 126 -3 21 14 30 14 55 4 32 -13 64 -9 94 13 19 14
19 14 -2 35 -20 20 -22 32 -22 153 0 72 -5 139 -10 150 -8 15 -21 19 -59 19
-60 0 -67 -7 -35 -37 26 -24 26 -26 22 -139 -3 -107 -5 -117 -27 -135 -28 -23
-60 -24 -86 -5 -18 13 -20 30 -24 165 l-3 151 -47 0 c-25 0 -53 -5 -61 -11z"/>
<path d="M25070 2397 c-30 -16 -51 -38 -71 -72 -46 -83 -55 -131 -42 -243 12
-112 34 -163 88 -210 32 -28 43 -32 97 -32 58 0 62 2 103 43 49 49 62 85 71
207 12 157 -25 258 -111 307 -51 29 -81 29 -135 0z m104 -38 c41 -32 56 -71
65 -172 15 -167 -11 -283 -69 -307 -67 -28 -132 60 -138 185 -8 156 25 276 83
304 28 14 29 13 59 -10z"/>
<path d="M23727 2276 c-51 -59 -57 -79 -29 -95 15 -8 18 -30 22 -161 4 -135 7
-153 24 -166 28 -20 79 -17 110 7 36 28 33 36 -16 46 -41 8 -43 11 -51 53 -11
59 -2 197 13 215 7 8 23 15 36 15 36 0 30 28 -8 38 -29 7 -33 12 -36 48 -2 21
-7 42 -11 47 -4 4 -28 -17 -54 -47z"/>
<path d="M24804 2288 c-70 -77 -69 -75 -48 -99 16 -18 20 -42 24 -171 4 -133
7 -151 24 -164 28 -20 79 -17 110 7 35 28 33 39 -9 39 -29 0 -37 5 -45 26 -18
46 -6 253 14 259 6 2 23 6 39 9 37 8 34 23 -5 31 -46 10 -58 23 -58 61 0 42
-8 43 -46 2z"/>
<path d="M24095 2229 c-16 -5 -48 -7 -70 -4 -27 4 -51 0 -74 -12 -44 -23 -48
-36 -16 -51 l25 -12 0 -206 c0 -205 0 -206 -25 -236 -14 -16 -23 -34 -19 -39
6 -10 164 -13 164 -2 0 4 -11 18 -25 33 -17 18 -26 42 -31 83 l-7 57 63 0
c100 0 152 37 186 132 32 92 4 200 -65 245 -36 25 -58 27 -106 12z m56 -76
c79 -47 66 -215 -22 -267 -28 -17 -31 -17 -61 1 -40 23 -51 63 -46 166 3 68 6
82 27 98 29 24 64 24 102 2z"/>
<path d="M22955 2220 c-29 -12 -82 -70 -94 -103 -14 -36 -14 -111 -1 -158 14
-51 85 -115 137 -124 96 -16 179 40 208 140 41 139 -41 256 -177 254 -29 0
-62 -4 -73 -9z m132 -66 c61 -69 68 -201 13 -256 -46 -45 -102 -34 -141 29
-20 32 -23 51 -24 126 0 88 0 89 34 119 42 37 73 32 118 -18z"/>
<path d="M23265 2220 c-4 -6 3 -18 15 -28 19 -15 21 -32 28 -166 8 -140 9
-150 32 -168 20 -16 34 -19 75 -14 27 4 79 8 115 9 36 2 76 9 89 16 l25 14
-27 21 c-27 22 -27 22 -27 155 0 73 -5 141 -10 152 -12 21 -73 27 -100 9 -13
-8 -12 -12 6 -25 19 -12 23 -28 29 -113 8 -115 -6 -167 -49 -178 -72 -18 -86
12 -86 189 l0 137 -54 0 c-30 0 -58 -5 -61 -10z"/>
<path d="M24320 2218 c0 -6 7 -19 15 -28 11 -12 17 -55 23 -160 8 -139 9 -143
36 -166 31 -28 77 -31 128 -9 31 12 38 12 56 -1 20 -14 26 -13 67 5 25 11 45
23 45 26 0 4 -9 14 -19 23 -17 15 -21 36 -27 157 -3 77 -11 146 -16 153 -17
20 -108 13 -108 -8 0 -4 11 -11 24 -14 30 -7 40 -57 34 -172 -3 -69 -6 -79
-31 -100 -31 -26 -78 -32 -95 -11 -6 7 -14 73 -18 147 -4 74 -11 143 -16 153
-10 20 -98 25 -98 5z"/>
<path d="M1505 26554 c-45 -23 -72 -52 -97 -103 -20 -41 -23 -60 -22 -176 1
-149 12 -184 83 -248 45 -40 71 -45 146 -26 33 8 50 20 70 50 45 63 54 105 55
235 0 114 -2 125 -28 175 -49 93 -133 132 -207 93z m104 -50 c48 -40 64 -111
59 -258 -5 -135 -26 -198 -73 -216 -81 -31 -139 72 -139 245 0 129 22 205 67
234 41 27 49 26 86 -5z"/>
<path d="M1924 26556 c-42 -18 -72 -52 -97 -106 -18 -38 -21 -65 -21 -175 0
-150 11 -183 85 -249 39 -36 44 -38 96 -34 122 10 173 100 173 306 0 107 -18
162 -68 215 -53 56 -106 70 -168 43z m105 -51 c45 -39 56 -83 56 -230 0 -154
-17 -215 -67 -241 -67 -34 -120 29 -139 164 -24 166 28 327 108 331 6 1 25
-10 42 -24z"/>
<path d="M2545 26556 c-84 -38 -117 -109 -123 -264 -6 -151 18 -218 100 -279
80 -59 206 -4 237 104 6 21 21 67 32 103 l21 65 -31 94 c-37 111 -59 145 -111
171 -45 23 -83 25 -125 6z m103 -49 c8 -6 23 -29 35 -51 20 -37 22 -56 21
-186 0 -128 -3 -150 -22 -186 -13 -26 -33 -46 -52 -54 -28 -11 -34 -11 -58 7
-62 46 -81 130 -67 306 5 75 12 104 29 129 35 53 75 65 114 35z"/>
<path d="M2939 26547 c-34 -18 -51 -36 -73 -81 -29 -55 -30 -63 -30 -189 0
-151 12 -186 83 -250 33 -30 49 -37 81 -37 87 0 160 62 180 152 12 58 13 205
1 265 -11 55 -45 105 -95 137 -49 32 -90 33 -147 3z m116 -39 c41 -32 57 -82
63 -194 6 -133 -11 -228 -49 -266 -34 -35 -59 -35 -98 -3 -45 38 -65 110 -65
230 0 120 20 192 65 230 37 31 49 31 84 3z"/>
<path d="M3353 26545 c-31 -19 -49 -41 -70 -83 -26 -53 -28 -65 -28 -187 1
-115 3 -135 24 -177 13 -27 40 -61 64 -78 37 -28 48 -31 95 -27 120 9 172 102
172 307 0 105 -18 161 -68 213 -59 62 -121 73 -189 32z m125 -38 c8 -6 23 -29
35 -51 19 -36 22 -56 22 -166 -1 -143 -14 -200 -55 -242 -36 -35 -51 -35 -92
1 -53 46 -72 119 -64 238 8 121 28 184 68 218 31 26 56 26 86 2z"/>
<path d="M1125 26529 c-33 -16 -61 -33 -63 -38 -1 -4 10 -11 26 -14 l29 -6 6
-143 c4 -79 7 -176 7 -215 l0 -73 -37 -17 -38 -18 104 -3 c63 -2 108 1 115 8
7 7 2 10 -17 10 -47 0 -51 23 -55 293 -2 136 -7 247 -11 246 -3 0 -33 -14 -66
-30z"/>
<path d="M2300 26071 c-5 -11 -10 -31 -10 -44 0 -19 6 -26 30 -30 36 -8 40
-35 10 -62 -23 -21 -26 -45 -7 -45 30 0 77 72 77 118 0 62 -75 109 -100 63z"/>
<path d="M2022 25554 c-43 -22 -89 -87 -109 -154 -12 -42 -14 -77 -9 -151 8
-122 30 -176 94 -225 43 -33 51 -35 94 -31 26 3 60 13 77 22 37 18 77 85 86
142 3 22 13 49 20 60 21 27 18 103 -5 148 -11 22 -20 49 -20 61 0 26 -50 97
-85 120 -37 24 -104 28 -143 8z m106 -40 c46 -32 55 -69 60 -231 4 -150 4
-153 -22 -197 -45 -77 -112 -75 -156 4 -23 42 -24 55 -24 180 0 152 10 196 55
235 35 29 56 31 87 9z"/>
<path d="M2432 25553 c-44 -22 -89 -86 -103 -148 -6 -29 -10 -99 -8 -161 4
-98 7 -114 32 -157 16 -26 46 -59 67 -73 34 -23 46 -25 88 -19 72 10 105 34
138 102 27 55 29 65 29 188 0 141 -8 169 -64 228 -53 58 -115 72 -179 40z m93
-35 c15 -7 36 -30 47 -51 41 -81 42 -320 0 -390 -40 -69 -113 -61 -151 16 -21
43 -23 61 -23 175 0 151 11 201 53 236 35 30 39 30 74 14z"/>
<path d="M2780 25554 c-47 -20 -48 -23 -20 -44 l25 -19 0 -221 c0 -219 0 -221
-23 -238 -13 -10 -20 -21 -16 -25 9 -9 148 -9 157 -1 3 3 -6 16 -19 28 -33 27
-46 102 -20 112 32 12 96 -68 96 -121 0 -25 1 -25 79 -25 88 0 107 11 62 34
-27 15 -122 118 -158 172 -14 21 -13 26 6 53 24 33 109 91 134 91 10 0 17 4
17 9 0 21 -108 29 -128 9 -7 -7 -12 -20 -12 -29 0 -29 -89 -96 -102 -76 0 1
-4 69 -7 152 -7 166 -7 167 -71 139z"/>
<path d="M3160 25560 c0 -6 18 -34 41 -62 80 -102 84 -114 84 -288 0 -153 0
-156 -29 -208 -16 -29 -44 -70 -63 -91 -37 -44 -40 -51 -18 -51 25 0 126 110
151 164 33 74 47 171 34 251 -16 99 -50 165 -120 234 -60 59 -80 72 -80 51z"/>
<path d="M1366 25510 c-120 -113 -157 -298 -93 -464 31 -81 167 -225 167 -177
0 5 -16 29 -37 53 -50 60 -72 113 -84 210 -18 146 4 252 72 345 27 37 49 71
49 75 0 19 -25 5 -74 -42z"/>
<path d="M1638 25529 c-32 -16 -58 -33 -58 -38 0 -5 13 -11 29 -14 l28 -6 7
-149 c4 -82 4 -177 0 -211 -6 -55 -11 -65 -35 -80 -16 -10 -26 -21 -22 -24 10
-10 191 -8 197 2 3 5 -5 12 -19 15 -45 11 -49 35 -53 294 -2 133 -7 242 -11
242 -3 -1 -32 -14 -63 -31z"/>
<path d="M2698 24554 c-44 -19 -48 -31 -13 -40 l25 -6 0 -228 0 -228 -25 -16
c-43 -28 -29 -36 60 -36 47 0 85 3 85 7 0 4 -10 17 -22 31 -20 21 -23 36 -26
132 -3 101 -2 109 18 128 32 30 76 37 105 18 24 -16 25 -20 25 -140 0 -110 -2
-125 -20 -141 -11 -10 -20 -22 -20 -27 0 -11 167 -10 174 1 3 5 -5 12 -18 15
-33 8 -37 23 -46 174 -9 150 -20 177 -74 187 -18 4 -51 2 -72 -4 -74 -21 -73
-22 -76 87 -3 110 -9 116 -80 86z"/>
<path d="M3137 24563 c-12 -12 -7 -60 8 -73 33 -27 73 8 61 53 -5 21 -12 27
-35 27 -15 0 -31 -3 -34 -7z"/>
<path d="M1742 24418 c-40 -52 -41 -53 -23 -73 15 -16 20 -45 25 -159 7 -164
16 -186 74 -186 73 0 114 56 45 62 -45 4 -50 17 -52 148 -1 95 12 131 48 140
32 7 40 30 11 30 -40 0 -60 18 -60 55 0 50 -20 45 -68 -17z"/>
<path d="M1084 24378 c-42 -20 -58 -102 -30 -156 8 -15 33 -38 57 -52 48 -28
109 -83 109 -98 0 -21 -32 -42 -65 -42 -39 0 -95 42 -95 70 0 10 -4 21 -9 25
-17 10 -23 -16 -16 -71 l6 -54 79 0 c101 0 122 9 144 58 31 68 2 122 -98 182
-86 53 -97 110 -19 110 36 0 83 -36 83 -65 0 -8 5 -15 10 -15 6 0 10 24 10 54
l0 53 -37 7 c-54 8 -105 6 -129 -6z"/>
<path d="M1410 24372 c-57 -28 -69 -112 -15 -112 19 0 25 5 25 23 0 41 27 67
70 67 30 0 42 -5 50 -21 23 -41 4 -67 -74 -104 -91 -44 -108 -62 -114 -125 -7
-74 13 -100 79 -100 28 0 60 7 74 16 21 14 26 14 54 0 53 -28 111 -16 111 21
0 7 -11 19 -25 25 -25 11 -25 13 -25 136 l0 124 -34 34 c-30 30 -40 34 -87 34
-31 0 -69 -7 -89 -18z m138 -213 c5 -53 -12 -86 -47 -94 -62 -14 -94 20 -71
75 13 31 63 61 95 57 15 -1 21 -11 23 -38z"/>
<path d="M2040 24373 c-122 -64 -135 -265 -22 -351 30 -23 45 -27 101 -27 123
0 176 59 176 195 0 90 -15 130 -62 166 -47 35 -141 44 -193 17z m118 -39 c26
-18 56 -74 67 -122 11 -55 -3 -118 -35 -152 -51 -55 -109 -33 -155 60 -22 44
-25 135 -5 175 26 51 85 69 128 39z"/>
<path d="M2423 24380 c-30 -12 -43 -41 -43 -95 0 -64 11 -79 90 -130 72 -46
88 -71 70 -105 -8 -15 -21 -20 -48 -20 -44 0 -62 12 -91 60 l-21 35 0 -62 0
-63 85 0 c77 0 88 2 110 24 29 29 39 65 31 109 -7 39 -29 60 -109 108 -85 49
-97 84 -37 109 33 14 62 2 97 -39 l22 -26 1 46 c0 46 0 46 -37 53 -51 8 -93 7
-120 -4z"/>
<path d="M3404 24384 c-40 -9 -58 -41 -58 -101 0 -51 3 -58 36 -87 19 -17 56
-43 82 -58 38 -22 46 -32 46 -56 0 -36 -17 -52 -54 -52 -34 0 -68 23 -85 58
-20 38 -32 25 -29 -30 l3 -53 80 -3 c105 -3 140 16 150 80 10 67 -6 92 -87
144 -104 66 -119 90 -74 119 21 14 28 14 58 2 19 -8 44 -27 56 -43 l21 -29 1
47 c0 26 -5 50 -10 53 -14 9 -110 15 -136 9z"/>
<path d="M3121 24359 l-34 -21 27 -21 c23 -19 28 -32 33 -92 7 -88 -11 -181
-38 -195 -38 -21 -18 -30 66 -30 90 0 102 8 63 39 -20 17 -22 29 -27 177 l-6
159 -25 3 c-14 1 -40 -7 -59 -19z"/>
<path d="M11974 23961 c-27 -33 -66 -86 -87 -118 -21 -32 -58 -87 -82 -122
-31 -43 -45 -73 -45 -96 l0 -32 105 -5 c58 -3 108 -8 111 -11 4 -3 9 -32 13
-64 5 -50 9 -58 28 -61 17 -2 23 3 27 20 19 100 20 103 56 114 20 7 37 19 39
30 4 21 -24 44 -55 44 -21 0 -22 4 -30 177 -6 115 -13 178 -20 180 -6 2 -33
-23 -60 -56z m12 -127 c7 -29 0 -146 -10 -163 -9 -13 -156 -15 -156 -2 0 6 20
39 45 75 25 37 45 70 45 76 0 11 40 40 57 40 7 0 16 -12 19 -26z"/>
<path d="M12292 24003 c-77 -38 -112 -125 -112 -278 0 -92 3 -111 26 -160 15
-30 42 -68 61 -85 29 -26 42 -30 91 -30 76 0 112 23 147 94 22 46 28 73 32
159 7 123 -6 189 -49 248 -47 65 -126 87 -196 52z m90 -23 c30 -14 63 -66 78
-121 17 -61 4 -260 -19 -315 -35 -77 -116 -78 -158 -1 -15 27 -18 58 -18 187
0 145 2 157 23 193 19 30 57 67 69 67 1 0 12 -5 25 -10z"/>
<path d="M12628 24003 c-45 -18 -48 -30 -12 -39 l26 -7 -3 -229 c-4 -225 -4
-229 -27 -246 -13 -10 -20 -21 -16 -25 10 -10 152 -9 158 2 3 4 -6 19 -19 31
-33 31 -37 110 -6 110 29 0 91 -80 91 -119 l0 -31 80 0 c89 0 101 11 47 45
-43 28 -168 184 -159 200 15 27 116 104 143 110 50 11 21 25 -53 25 -69 0 -70
0 -64 -24 5 -19 -2 -31 -29 -55 -20 -17 -45 -31 -55 -31 -19 0 -20 8 -20 150
0 149 0 150 -22 149 -13 0 -40 -7 -60 -16z"/>
<path d="M52 23738 c-17 -17 -15 -36 7 -47 23 -13 31 -5 31 31 0 30 -17 37
-38 16z"/>
<path d="M402 23741 c-18 -11 -12 -41 10 -54 12 -8 21 -7 32 2 38 32 0 79 -42
52z"/>
<path d="M759 23734 c-15 -18 -2 -47 24 -52 22 -5 42 35 26 54 -15 18 -33 18
-50 -2z"/>
<path d="M1111 23737 c-25 -31 20 -71 48 -42 12 12 13 19 5 33 -15 22 -38 26
-53 9z"/>
<path d="M1465 23729 c-9 -26 16 -55 40 -45 25 9 16 60 -12 64 -15 2 -23 -3
-28 -19z"/>
<path d="M1821 23737 c-25 -31 20 -71 48 -42 12 12 13 19 5 33 -15 22 -38 26
-53 9z"/>
<path d="M2175 23729 c-10 -30 18 -58 40 -39 22 18 15 54 -12 58 -15 2 -23 -3
-28 -19z"/>
<path d="M2524 23726 c-7 -31 1 -46 26 -46 26 0 45 36 29 56 -18 22 -48 17
-55 -10z"/>
<path d="M2893 23744 c-18 -8 -16 -39 3 -55 21 -17 49 0 49 32 0 24 -24 34
-52 23z"/>
<path d="M3243 23743 c-17 -6 -16 -38 2 -53 31 -26 82 13 56 44 -13 16 -34 19
-58 9z"/>
<path d="M3607 23743 c-13 -12 -7 -54 9 -60 23 -8 47 20 39 46 -6 20 -34 28
-48 14z"/>
<path d="M3962 23738 c-16 -16 -15 -33 2 -47 28 -23 68 17 45 45 -14 17 -31
18 -47 2z"/>
<path d="M4314 23736 c-16 -43 15 -69 51 -42 16 12 18 18 9 33 -14 23 -52 29
-60 9z"/>
<path d="M19705 22596 c-39 -18 -82 -64 -90 -98 -9 -35 9 -37 30 -4 8 13 33
31 54 41 32 14 43 15 62 5 41 -21 69 -52 69 -76 0 -29 -51 -88 -90 -104 -42
-17 -37 -34 15 -54 60 -23 105 -76 105 -123 0 -28 -8 -44 -40 -75 -35 -35 -43
-39 -72 -33 -18 4 -52 17 -76 29 -47 23 -62 15 -62 -31 0 -29 28 -43 86 -43
137 0 224 79 224 203 0 48 -25 103 -56 123 l-22 15 24 43 c29 52 32 82 15 124
-26 62 -107 89 -176 58z"/>
<path d="M20126 22600 c-34 -11 -82 -54 -101 -91 -8 -14 -21 -63 -31 -109 -14
-70 -15 -94 -5 -154 23 -137 84 -216 167 -216 91 0 154 48 176 134 7 28 13
103 13 167 0 109 -2 119 -30 174 -41 80 -116 118 -189 95z m82 -46 c35 -24 52
-68 63 -160 11 -102 -2 -232 -29 -278 -26 -46 -64 -61 -101 -42 -63 33 -95
176 -72 325 14 90 35 137 70 156 34 18 42 18 69 -1z"/>
<path d="M20443 22585 c-37 -16 -42 -30 -14 -38 27 -7 34 -75 30 -287 l-4
-172 -28 -23 -29 -22 24 -6 c75 -21 206 6 139 28 -22 7 -44 62 -39 97 2 14 11
24 24 26 16 2 30 -11 57 -50 21 -29 37 -63 37 -75 0 -28 31 -37 101 -31 58 6
72 15 44 30 -43 23 -175 181 -175 209 0 20 64 78 115 104 64 32 59 45 -17 45
-64 0 -79 -7 -72 -35 4 -17 -3 -29 -33 -54 -57 -47 -69 -42 -77 30 -3 34 -6
92 -6 128 0 114 -10 125 -77 96z"/>
<path d="M29285 20407 c-43 -20 -93 -80 -101 -122 -9 -49 1 -54 26 -13 43 74
133 88 184 28 65 -78 38 -143 -152 -360 -35 -39 -61 -77 -59 -83 2 -8 48 -13
142 -15 158 -3 177 3 196 68 14 47 7 60 -20 36 -27 -25 -201 -36 -201 -13 0 8
34 55 75 103 116 136 144 208 111 288 -30 72 -132 114 -201 83z"/>
<path d="M29702 20403 c-74 -36 -117 -121 -129 -253 -10 -118 38 -246 110
-291 25 -16 44 -19 88 -16 94 8 123 39 158 167 27 95 27 164 0 243 -26 77 -59
121 -109 147 -47 24 -74 25 -118 3z m107 -47 c8 -6 22 -29 32 -51 15 -33 19
-67 19 -191 0 -141 -2 -153 -23 -185 -12 -18 -35 -40 -49 -49 -25 -13 -29 -13
-54 6 -65 48 -69 61 -69 232 0 137 3 162 20 197 30 60 80 77 124 41z"/>
<path d="M30041 20402 c-50 -19 -62 -37 -31 -45 19 -5 20 -12 20 -235 0 -223
-1 -231 -21 -246 -12 -8 -18 -19 -14 -25 7 -12 125 -13 165 -2 l25 7 -30 15
c-28 13 -30 19 -33 72 -2 32 1 57 7 57 5 0 28 -21 51 -47 33 -38 40 -53 36
-74 -6 -32 10 -39 91 -39 88 0 88 4 -7 98 -48 48 -94 101 -103 118 -16 31 -15
32 16 61 45 42 108 83 129 83 26 0 22 17 -4 24 -34 9 -101 7 -117 -3 -12 -7
-12 -13 -3 -24 9 -11 7 -18 -11 -34 -36 -33 -77 -56 -85 -49 -4 4 -9 73 -12
154 -3 84 -9 147 -15 148 -5 2 -30 -5 -54 -14z"/>
<path d="M30626 20403 c-3 -4 8 -22 26 -40 l33 -34 5 -192 c4 -120 10 -200 17
-213 7 -12 28 -35 48 -53 34 -30 39 -31 125 -31 104 0 124 6 168 51 44 45 53
87 61 281 7 165 8 167 34 192 42 39 35 46 -53 46 -89 0 -102 -12 -56 -55 30
-28 42 -117 32 -249 -12 -157 -27 -190 -102 -215 -51 -16 -111 -2 -155 37 -37
33 -49 99 -49 283 l0 125 30 22 c55 41 41 52 -63 52 -52 0 -97 -3 -101 -7z"/>
<path d="M33602 20401 c-9 -5 -12 -27 -10 -71 l3 -63 25 39 c27 42 66 58 116
49 l32 -5 6 -193 c7 -227 3 -256 -41 -277 -18 -8 -31 -19 -29 -25 3 -12 155
-19 204 -10 34 6 45 25 14 25 -34 0 -60 36 -67 95 -9 70 -2 371 9 382 4 4 29
8 56 8 51 0 93 -27 106 -67 3 -10 10 -18 15 -18 12 0 12 82 -1 114 l-10 26
-207 0 c-115 0 -214 -4 -221 -9z"/>
<path d="M34120 20395 c0 -8 21 -36 48 -62 26 -26 71 -84 99 -127 48 -74 51
-81 38 -105 -19 -38 -158 -195 -196 -222 -29 -20 -30 -23 -13 -30 23 -9 136
-11 158 -3 22 8 20 21 -4 27 -30 8 -25 43 14 96 51 68 81 95 100 84 15 -8 87
-114 99 -146 5 -13 0 -21 -18 -29 -55 -25 -23 -38 93 -38 102 0 129 11 94 36
-59 41 -202 240 -202 280 0 27 109 161 160 195 74 50 68 59 -40 59 -49 0 -90
-3 -90 -6 0 -3 9 -17 20 -31 19 -24 19 -27 3 -53 -21 -37 -79 -100 -91 -100
-16 0 -80 71 -93 102 -10 25 -9 32 10 52 11 12 21 25 21 29 0 4 -47 7 -105 7
-85 0 -105 -3 -105 -15z"/>
<path d="M33196 20268 l-49 -61 26 -22 c27 -21 27 -21 27 -163 0 -129 2 -144
20 -162 26 -26 59 -25 101 3 34 23 47 55 19 48 -8 -2 -22 -5 -30 -7 -35 -9
-42 12 -48 128 -5 128 2 155 45 160 39 4 41 27 3 35 -34 6 -35 8 -45 66 -3 20
-9 37 -13 37 -4 0 -29 -28 -56 -62z"/>
<path d="M31400 20220 c-41 -16 -47 -17 -63 -2 -14 12 -25 13 -54 6 -49 -12
-63 -36 -38 -64 18 -19 20 -37 20 -142 0 -115 -1 -120 -25 -138 -21 -17 -23
-21 -10 -30 17 -11 112 -13 148 -4 23 7 23 7 -8 33 -29 24 -32 32 -37 102 -10
133 15 189 83 189 53 0 59 -18 57 -154 -2 -111 -4 -122 -25 -139 -18 -15 -19
-20 -7 -28 16 -10 142 -12 152 -2 4 3 -2 16 -13 28 -16 17 -21 43 -29 162 -10
151 -18 179 -57 193 -33 13 -41 12 -94 -10z"/>
<path d="M31723 20229 c-44 -13 -63 -44 -63 -104 0 -59 6 -66 108 -134 67 -45
79 -73 44 -104 -35 -32 -90 -13 -118 39 -10 19 -22 34 -27 34 -4 0 -7 -26 -5
-57 l3 -58 87 0 c99 0 120 12 139 75 16 52 -10 105 -69 139 -77 45 -116 84
-108 109 4 12 18 25 32 28 23 6 84 -12 84 -25 0 -3 9 -17 20 -31 l20 -25 0 52
c0 52 0 52 -37 62 -44 13 -66 13 -110 0z"/>
<path d="M32133 20230 c-12 -5 -48 -9 -80 -8 -59 1 -103 -13 -103 -33 0 -6 9
-18 20 -27 19 -16 21 -30 23 -223 2 -185 0 -209 -15 -226 -10 -11 -18 -27 -18
-36 0 -15 12 -17 85 -17 47 0 85 4 85 8 0 5 -16 22 -35 39 -26 23 -35 39 -35
63 0 58 14 70 81 70 57 0 62 2 108 45 38 36 50 55 61 99 23 95 -1 197 -55 232
-30 19 -92 27 -122 14z m77 -85 c45 -41 43 -186 -3 -232 -33 -34 -77 -39 -110
-13 -26 21 -27 24 -27 130 0 101 2 110 23 125 27 20 90 14 117 -10z"/>
<path d="M32908 20220 c-40 -17 -48 -17 -58 -5 -16 19 -43 19 -80 0 -35 -18
-38 -35 -11 -52 14 -9 21 -29 26 -82 10 -98 -1 -168 -32 -199 -19 -19 -22 -27
-11 -33 15 -10 122 -10 158 0 l25 7 -30 15 c-29 14 -30 18 -38 99 -14 154 8
206 84 198 42 -4 47 -19 48 -169 l1 -116 -27 -12 c-39 -18 -13 -31 65 -31 48
0 64 4 69 16 3 9 0 20 -7 24 -16 10 -29 84 -30 175 -1 114 -9 145 -44 166 -38
23 -48 23 -108 -1z"/>
<path d="M32444 20198 c-97 -86 -99 -251 -3 -332 30 -26 38 -28 97 -24 62 4
66 6 108 50 24 26 44 56 44 67 0 29 -11 26 -45 -9 -41 -42 -86 -55 -124 -36
-39 21 -79 73 -83 111 -3 26 1 30 27 36 17 4 72 7 123 8 l92 1 0 41 c0 35 -6
48 -39 80 -36 37 -42 39 -99 39 -55 0 -65 -3 -98 -32z m122 -25 c13 -14 23
-31 21 -37 -5 -15 -91 -30 -123 -22 -34 9 -28 34 15 63 44 29 56 29 87 -4z"/>
<path d="M29431 19374 c-60 -25 -118 -81 -147 -140 -23 -47 -27 -68 -27 -138
1 -127 52 -220 147 -265 53 -26 161 -28 229 -5 69 23 132 97 148 172 15 72 5
190 -19 246 -49 110 -221 178 -331 130z m157 -48 c34 -18 64 -51 88 -96 29
-54 27 -220 -3 -276 -27 -51 -72 -90 -122 -105 -46 -14 -92 4 -141 54 -42 43
-55 88 -55 198 0 82 4 102 26 145 41 80 136 117 207 80z"/>
<path d="M33914 19367 c-112 -54 -150 -113 -161 -247 -8 -105 8 -167 58 -224
55 -62 109 -86 193 -86 89 0 136 15 187 59 61 52 89 118 89 214 0 103 -15 157
-57 206 -53 63 -112 93 -191 98 -56 3 -76 0 -118 -20z m164 -41 c156 -81 154
-390 -3 -466 -38 -18 -49 -20 -84 -10 -46 12 -105 59 -127 101 -19 39 -20 249
0 287 15 29 59 73 91 90 28 16 91 15 123 -2z"/>
<path d="M31900 19322 c-33 -34 -69 -83 -86 -117 -25 -55 -28 -70 -28 -175 -1
-111 0 -118 32 -183 34 -68 121 -167 147 -167 24 0 18 15 -29 70 -73 86 -92
165 -77 332 11 127 20 152 82 231 69 87 44 93 -41 9z"/>
<path d="M32050 19361 c0 -10 10 -25 22 -33 21 -14 22 -23 28 -209 4 -112 11
-202 17 -214 6 -11 28 -36 48 -55 35 -34 38 -35 133 -38 95 -4 98 -3 140 28
65 47 73 76 82 290 5 102 9 186 9 187 1 1 15 9 31 18 17 9 30 22 30 30 0 12
-15 15 -74 15 -95 0 -111 -15 -64 -59 l33 -31 -1 -158 c-1 -180 -12 -221 -73
-256 -43 -25 -114 -26 -158 -3 -57 30 -66 62 -71 256 l-5 174 33 27 c48 39 33
50 -71 50 -80 0 -89 -2 -89 -19z"/>
<path d="M32624 19365 c-6 -15 4 -103 13 -118 3 -5 12 7 21 25 19 37 78 63
123 53 l27 -6 7 -202 c8 -225 3 -252 -45 -270 -53 -20 -27 -32 79 -35 123 -3
148 6 98 35 -32 19 -35 25 -42 87 -3 36 -3 137 1 225 6 151 8 160 28 165 21 5
84 -6 105 -18 6 -4 18 -21 27 -38 14 -28 17 -29 26 -14 11 19 1 94 -14 114 -8
9 -66 12 -230 12 -186 0 -219 -2 -224 -15z"/>
<path d="M33155 19370 c-3 -5 14 -29 39 -52 47 -45 151 -185 161 -218 5 -15
-11 -41 -63 -102 -87 -105 -122 -142 -146 -155 -35 -19 -7 -33 67 -32 40 0 81
4 92 8 18 7 17 9 -13 25 -17 9 -32 20 -32 25 0 15 92 132 116 148 31 20 40 12
95 -79 l43 -71 -29 -23 -29 -23 27 -6 c34 -9 193 -3 203 8 4 4 -9 21 -29 38
-43 35 -199 248 -195 265 6 27 145 184 178 201 19 11 36 27 38 36 3 15 -7 17
-87 17 -50 0 -91 -3 -91 -7 0 -4 11 -18 25 -33 l24 -25 -44 -57 c-66 -82 -86
-85 -134 -14 -40 59 -42 72 -20 99 10 14 19 28 19 31 0 10 -208 7 -215 -4z"/>
<path d="M34340 19374 c0 -4 21 -31 46 -61 76 -89 110 -244 85 -388 -14 -81
-36 -127 -91 -190 -34 -40 -44 -65 -24 -65 16 0 130 122 149 160 27 54 45 133
45 198 0 110 -63 249 -147 322 -31 27 -63 39 -63 24z"/>
<path d="M31362 19239 c-50 -58 -57 -79 -28 -79 21 0 26 -34 26 -177 0 -120 2
-135 20 -153 11 -11 31 -20 45 -20 45 0 95 35 95 66 0 3 -17 4 -37 2 -47 -4
-51 8 -52 164 l-1 117 28 3 c34 4 36 30 2 38 -22 5 -25 12 -28 53 -2 26 -6 47
-10 47 -4 0 -31 -27 -60 -61z"/>
<path d="M30340 19281 c0 -4 -19 -30 -42 -56 l-42 -47 24 -18 c23 -17 24 -25
29 -168 4 -105 10 -154 20 -166 20 -24 75 -20 107 7 31 27 25 50 -10 41 -39
-9 -50 18 -54 130 -4 121 5 151 47 159 40 8 39 24 -1 35 -28 7 -34 14 -42 50
-6 23 -16 42 -23 42 -7 0 -13 -4 -13 -9z"/>
<path d="M30685 19199 c-16 -5 -52 -8 -78 -5 -80 9 -135 -29 -91 -61 18 -13
19 -29 19 -229 0 -195 -2 -216 -17 -225 -10 -6 -18 -19 -18 -29 0 -18 7 -20
80 -20 46 0 80 4 80 10 0 5 -14 22 -30 37 -28 24 -31 32 -28 78 l3 50 77 5
c68 5 81 9 109 35 53 51 63 81 64 180 0 70 -4 97 -18 118 -34 52 -95 75 -152
56z m65 -86 c54 -49 53 -166 -2 -228 -37 -43 -68 -45 -116 -9 l-34 27 4 100
c3 89 6 101 27 118 34 28 85 24 121 -8z"/>
<path d="M29861 19191 c-11 -7 -9 -13 8 -30 19 -19 21 -32 21 -160 l0 -139 31
-26 c36 -30 84 -34 131 -10 28 15 34 15 58 1 24 -14 29 -14 68 3 23 11 42 21
42 25 0 3 -9 14 -20 25 -18 18 -20 33 -20 144 0 157 -6 176 -59 176 -66 0 -96
-21 -47 -34 28 -7 36 -37 36 -142 0 -90 -10 -118 -51 -139 -25 -13 -36 -14
-59 -5 -35 14 -40 38 -40 184 0 74 -4 116 -12 124 -14 14 -67 16 -87 3z"/>
<path d="M30918 19193 c-23 -6 -23 -15 1 -30 17 -10 20 -30 26 -153 7 -130 10
-144 32 -171 20 -23 33 -29 64 -29 22 0 53 7 70 15 24 13 36 14 62 5 26 -9 39
-9 70 4 43 19 44 22 18 44 -17 15 -21 36 -27 157 -3 77 -11 146 -16 153 -11
13 -65 16 -93 6 -14 -6 -14 -9 5 -29 18 -19 21 -36 23 -133 2 -100 0 -113 -18
-131 -30 -30 -67 -35 -94 -14 -21 18 -23 28 -28 166 l-6 147 -36 -1 c-20 -1
-44 -3 -53 -6z"/>
<path d="M37341 18792 c-6 -12 -11 -45 -11 -75 0 -30 -3 -69 -6 -86 l-6 -31
-137 0 c-153 0 -183 -9 -162 -48 11 -21 18 -22 155 -22 l143 0 7 -61 c3 -34 6
-79 6 -100 0 -59 6 -58 295 46 55 20 114 40 130 45 17 5 77 25 135 45 162 57
169 64 93 89 -27 8 -124 42 -218 76 -93 33 -183 65 -200 70 -16 5 -61 21 -100
35 -102 39 -112 40 -124 17z"/>
<path d="M27072 18591 c-8 -4 -12 -19 -10 -32 3 -24 5 -24 118 -27 150 -4 180
2 180 32 0 13 -7 27 -16 30 -24 9 -257 7 -272 -3z"/>
<path d="M27492 18591 c-8 -4 -12 -19 -10 -32 3 -24 5 -24 124 -27 126 -3 174
6 174 33 0 9 -12 20 -26 25 -31 12 -244 13 -262 1z"/>
<path d="M27901 18591 c-9 -6 -11 -18 -7 -35 l6 -26 123 0 c67 0 132 3 145 6
26 7 31 48 6 58 -24 9 -257 7 -273 -3z"/>
<path d="M28314 18586 c-3 -8 -4 -23 -2 -33 3 -16 17 -18 146 -21 l142 -3 0
36 0 35 -140 0 c-113 0 -142 -3 -146 -14z"/>
<path d="M28734 18586 c-15 -12 -17 -18 -8 -33 10 -16 27 -18 144 -18 117 0
134 2 144 18 21 35 -16 47 -144 47 -86 0 -121 -4 -136 -14z"/>
<path d="M29153 18590 c-26 -11 -27 -14 -13 -41 10 -17 22 -19 128 -19 64 0
127 3 140 6 26 7 31 48 6 58 -24 9 -236 6 -261 -4z"/>
<path d="M29554 18586 c-15 -12 -17 -18 -8 -33 10 -15 28 -18 131 -21 125 -3
173 6 173 33 0 25 -45 35 -164 35 -82 0 -117 -4 -132 -14z"/>
<path d="M29972 18591 c-8 -4 -12 -19 -10 -32 3 -24 5 -24 128 -27 69 -1 135
0 146 3 29 7 37 31 18 50 -12 12 -42 15 -142 15 -70 0 -133 -4 -140 -9z"/>
<path d="M30398 18593 c-24 -6 -30 -30 -12 -48 23 -23 266 -22 289 1 11 11 13
20 6 27 -17 17 -234 33 -283 20z"/>
<path d="M30813 18590 c-26 -11 -27 -14 -13 -41 10 -17 22 -19 130 -19 125 0
170 9 170 35 0 9 -12 20 -26 25 -32 12 -231 12 -261 0z"/>
<path d="M31224 18586 c-15 -12 -17 -18 -8 -33 10 -15 28 -18 130 -21 65 -1
129 0 140 3 29 7 37 31 18 50 -22 21 -251 22 -280 1z"/>
<path d="M31647 18593 c-13 -3 -17 -12 -15 -31 l3 -27 120 -3 c134 -3 160 1
169 24 14 36 -11 44 -138 43 -66 -1 -129 -3 -139 -6z"/>
<path d="M32054 18586 c-15 -12 -17 -18 -8 -33 10 -16 29 -18 148 -21 l136 -3
0 36 0 35 -128 0 c-96 0 -133 -4 -148 -14z"/>
<path d="M32466 18585 c-12 -13 -13 -21 -5 -36 9 -18 20 -19 147 -17 l137 3 0
30 0 30 -132 3 c-109 2 -134 0 -147 -13z"/>
<path d="M32882 18591 c-8 -4 -12 -19 -10 -32 3 -24 3 -24 142 -24 123 0 140
2 150 18 22 35 -15 47 -148 47 -67 0 -127 -4 -134 -9z"/>
<path d="M33294 18586 c-15 -12 -17 -18 -8 -33 10 -15 28 -18 131 -21 125 -3
173 6 173 33 0 25 -45 35 -164 35 -82 0 -117 -4 -132 -14z"/>
<path d="M33706 18584 c-12 -12 -13 -20 -6 -35 10 -17 22 -19 133 -19 67 0
132 3 145 6 26 7 31 48 6 58 -9 3 -71 6 -139 6 -99 0 -127 -3 -139 -16z"/>
<path d="M34124 18586 c-15 -12 -17 -18 -8 -33 10 -15 28 -18 131 -21 125 -3
173 6 173 33 0 25 -45 35 -164 35 -82 0 -117 -4 -132 -14z"/>
<path d="M34547 18593 c-13 -3 -17 -12 -15 -31 l3 -27 125 -3 c69 -1 135 0
146 3 29 7 37 31 18 50 -12 12 -40 15 -137 14 -67 -1 -130 -3 -140 -6z"/>
<path d="M34967 18593 c-13 -3 -17 -12 -15 -31 l3 -27 134 0 c118 0 135 2 145
18 21 35 -16 47 -138 46 -61 -1 -119 -3 -129 -6z"/>
<path d="M35374 18586 c-15 -12 -17 -18 -8 -33 10 -16 27 -18 144 -18 117 0
134 2 144 18 21 35 -16 47 -144 47 -86 0 -121 -4 -136 -14z"/>
<path d="M35781 18586 c-9 -11 -10 -20 -1 -36 10 -20 18 -20 148 -18 l137 3 0
30 0 30 -136 3 c-110 2 -138 0 -148 -12z"/>
<path d="M36222 18593 c-31 -6 -40 -32 -17 -49 28 -21 248 -19 269 1 19 19 11
41 -17 49 -25 6 -199 6 -235 -1z"/>
<path d="M36623 18590 c-26 -11 -27 -14 -13 -41 10 -17 22 -19 128 -19 64 0
127 3 140 6 26 7 31 48 6 58 -24 9 -236 6 -261 -4z"/>
<path d="M11952 17863 l-63 -4 -39 -86 c-22 -47 -40 -94 -40 -104 0 -13 18
-23 73 -40 56 -17 81 -32 114 -65 22 -23 44 -56 48 -72 12 -56 -57 -152 -109
-152 -11 0 -43 11 -70 25 -27 14 -55 25 -63 25 -18 0 -27 -44 -13 -69 10 -19
20 -21 95 -21 79 0 86 2 126 33 111 84 118 245 16 332 -24 21 -56 38 -79 41
-47 8 -73 26 -65 46 7 18 50 28 128 28 58 0 59 0 79 40 11 21 20 42 20 45 0 5
-36 4 -158 -2z"/>
<path d="M12290 17853 c-41 -21 -94 -104 -104 -160 -3 -21 -6 -78 -6 -128 0
-115 20 -173 77 -226 38 -35 48 -39 95 -39 76 0 117 24 153 90 29 53 30 59 30
190 0 122 -2 140 -24 183 -45 92 -141 131 -221 90z m109 -33 c10 -5 30 -37 46
-71 27 -61 27 -64 20 -193 -8 -148 -24 -195 -73 -215 -25 -10 -35 -10 -61 3
-56 29 -66 63 -66 226 0 163 4 185 41 229 27 32 59 39 93 21z"/>
<path d="M12628 17853 c-45 -18 -48 -30 -12 -39 l26 -7 -3 -229 c-4 -225 -4
-229 -27 -246 -13 -10 -20 -21 -16 -25 10 -10 152 -9 158 2 3 4 -6 19 -19 31
-33 31 -37 110 -6 110 29 0 91 -80 91 -119 l0 -31 73 0 c41 0 76 3 79 6 3 3
-24 36 -61 73 -36 36 -81 88 -99 114 l-34 48 44 40 c23 22 64 50 90 62 26 11
44 25 42 29 -3 4 -37 8 -76 8 -68 0 -70 -1 -64 -22 7 -29 -47 -88 -81 -88 -23
0 -23 0 -23 150 0 149 0 150 -22 149 -13 0 -40 -7 -60 -16z"/>
<path d="M19682 14341 c-47 -30 -107 -140 -87 -159 4 -4 10 0 13 8 3 8 22 32
42 53 32 31 44 37 79 37 53 0 77 -12 97 -52 20 -38 14 -101 -15 -156 -11 -20
-63 -86 -116 -145 -52 -60 -95 -115 -95 -123 0 -11 26 -14 148 -14 81 0 152 4
158 8 14 9 56 103 49 110 -3 3 -14 -3 -24 -12 -14 -13 -44 -19 -115 -23 -53
-3 -96 -3 -96 1 0 17 26 54 96 135 79 91 94 124 94 209 0 47 -4 57 -39 94 -35
38 -43 42 -97 45 -47 3 -66 0 -92 -16z"/>
<path d="M20098 14340 c-73 -40 -110 -127 -111 -265 -1 -112 19 -176 74 -239
l41 -46 68 0 c67 0 68 0 108 44 58 63 75 129 70 265 -4 123 -27 184 -84 228
-47 35 -115 41 -166 13z m126 -50 c20 -22 36 -43 36 -48 0 -4 5 -51 10 -105
16 -168 -10 -282 -71 -307 -42 -18 -79 5 -109 65 -22 45 -24 62 -24 175 0 106
3 132 21 172 19 41 69 88 94 88 4 0 23 -18 43 -40z"/>
<path d="M20445 14343 c-41 -22 -41 -20 -14 -42 24 -19 24 -21 27 -238 l4
-220 -26 -17 c-14 -9 -26 -21 -26 -26 0 -11 153 -14 164 -3 3 4 -5 16 -20 28
-19 15 -27 33 -31 68 -5 44 -4 47 17 47 27 0 88 -63 97 -100 10 -44 22 -50 94
-50 38 0 69 3 69 6 0 4 -29 33 -65 66 -35 33 -78 80 -95 105 -28 41 -30 49
-20 74 12 28 96 92 138 104 42 12 11 25 -59 25 -67 0 -70 -1 -64 -21 4 -13 0
-27 -11 -40 -25 -28 -84 -63 -92 -54 -4 3 -9 73 -12 153 -5 138 -6 147 -25
149 -11 2 -33 -5 -50 -14z"/>
<path d="M27545 10235 c-73 -41 -80 -55 -26 -55 l41 0 -1 -192 c-1 -106 -4
-204 -8 -218 -4 -14 -19 -31 -34 -38 -47 -23 -30 -32 61 -32 74 0 129 11 112
22 -3 2 -14 8 -25 14 -29 16 -33 45 -34 286 -1 205 -5 250 -20 247 -3 -1 -33
-16 -66 -34z"/>
<path d="M27930 10259 c-57 -23 -100 -94 -120 -197 -25 -125 2 -240 76 -322
l38 -42 68 4 c79 4 107 24 144 102 55 119 54 253 -4 366 -42 84 -124 120 -202
89z m94 -40 c49 -38 59 -73 64 -212 5 -146 -7 -208 -46 -249 -42 -45 -94 -31
-129 35 -15 26 -18 59 -18 187 0 174 8 207 59 240 39 24 38 24 70 -1z"/>
<path d="M28258 10253 c-46 -18 -48 -29 -8 -38 30 -7 30 -7 30 -74 0 -37 -3
-143 -7 -234 -5 -150 -8 -167 -25 -172 -10 -4 -18 -13 -18 -21 0 -11 18 -14
84 -14 47 0 87 4 91 10 3 5 -8 16 -25 25 -46 24 -57 107 -14 113 15 2 32 -12
62 -52 36 -47 39 -56 26 -67 -12 -10 -12 -14 -2 -20 18 -12 156 -11 163 1 3 5
-9 19 -27 31 -33 22 -119 118 -153 172 l-18 28 49 44 c27 25 68 52 91 61 24 9
40 20 37 25 -3 5 -36 9 -74 9 l-69 0 -3 -32 c-2 -24 -12 -38 -37 -55 -57 -39
-58 -37 -66 115 -3 75 -8 143 -10 150 -6 16 -31 15 -77 -5z"/>
<path d="M35786 4377 c-63 -34 -72 -49 -34 -57 22 -6 23 -10 31 -159 5 -84 5
-181 0 -214 -7 -54 -12 -63 -36 -75 -45 -22 -21 -32 78 -32 99 0 124 10 76 30
-16 6 -33 19 -37 28 -4 10 -10 128 -13 264 l-6 247 -59 -32z"/>
<path d="M36155 4398 c-94 -52 -135 -173 -116 -343 11 -95 26 -129 77 -180 33
-33 38 -35 103 -35 68 0 69 1 106 41 51 57 65 95 71 202 11 162 -18 248 -100
301 -43 28 -105 34 -141 14z m115 -56 c39 -39 51 -93 52 -226 1 -153 -25 -228
-81 -241 -83 -18 -123 51 -125 219 -1 148 8 199 46 241 37 43 69 45 108 7z"/>
<path d="M36493 4394 c-40 -20 -41 -31 -7 -46 l26 -12 -4 -219 c-3 -213 -4
-219 -26 -237 -39 -32 -27 -40 56 -40 43 0 81 3 85 6 3 3 -6 16 -20 28 -18 16
-26 35 -30 69 -5 43 -4 47 16 47 34 0 74 -49 101 -122 9 -27 12 -28 79 -28 38
0 72 4 75 9 3 5 -11 20 -32 35 -42 29 -111 107 -143 161 l-22 36 46 43 c24 24
65 51 91 61 25 10 43 21 40 26 -3 5 -36 9 -75 9 l-69 0 0 -29 c0 -22 -9 -37
-33 -55 -28 -22 -63 -33 -69 -23 0 1 -4 67 -7 147 -6 135 -7 145 -26 147 -11
2 -35 -4 -52 -13z"/>
<path d="M37023 3411 c-77 -20 -146 -78 -187 -158 -22 -43 -22 -192 0 -256 19
-57 103 -138 161 -155 91 -27 191 -6 262 55 59 50 83 103 89 194 6 103 -10
173 -53 225 -60 73 -186 117 -272 95z m155 -76 c54 -45 76 -107 77 -215 0
-118 -20 -170 -85 -215 -80 -55 -177 -27 -230 67 -21 37 -24 56 -24 143 -1
120 12 162 65 209 36 33 44 36 103 36 54 0 69 -4 94 -25z"/>
<path d="M35133 3403 c-30 -6 -29 -17 4 -41 l28 -20 5 -194 c6 -206 10 -227
63 -276 29 -28 127 -45 201 -35 57 7 111 48 133 102 9 22 18 100 23 214 9 173
10 181 35 207 41 43 34 52 -37 44 -35 -4 -71 -11 -81 -16 -16 -8 -15 -12 11
-36 38 -36 46 -94 37 -255 l-7 -122 -42 -42 c-53 -52 -114 -65 -172 -37 -72
36 -76 50 -82 257 l-5 184 32 19 c17 10 31 23 31 30 0 17 -116 29 -177 17z"/>
<path d="M36253 3403 c-18 -2 -33 -9 -33 -15 0 -6 20 -28 45 -50 43 -38 119
-139 150 -198 15 -29 15 -30 -58 -117 -84 -101 -134 -153 -148 -153 -5 0 -9
-7 -9 -15 0 -12 14 -15 68 -15 37 0 77 3 90 6 25 7 30 24 7 24 -8 0 -19 9 -25
20 -9 17 -2 30 45 90 35 44 63 70 75 70 25 0 110 -115 110 -148 0 -15 -7 -26
-20 -29 -11 -3 -20 -9 -20 -13 0 -13 42 -20 133 -20 94 0 111 12 63 44 -13 8
-65 72 -115 142 l-91 127 47 56 c73 88 136 151 150 151 20 0 28 31 12 41 -18
11 -146 12 -153 0 -3 -4 3 -16 14 -26 11 -10 20 -26 20 -35 0 -17 -101 -120
-118 -120 -5 0 -31 25 -56 55 -49 57 -51 72 -10 106 15 13 15 14 -7 20 -26 8
-114 8 -166 2z"/>
<path d="M35685 3333 c8 -71 14 -88 23 -63 3 8 22 32 44 54 34 34 42 38 74 33
20 -4 38 -8 40 -10 7 -7 9 -413 2 -438 -4 -14 -19 -31 -33 -37 -15 -7 -23 -17
-20 -22 11 -19 225 -10 225 9 0 4 -13 11 -29 17 -25 10 -29 18 -35 68 -4 31
-4 134 0 230 7 168 8 175 29 180 51 13 135 -37 135 -81 0 -8 5 -11 10 -8 6 3
10 35 10 71 l0 64 -241 0 -241 0 7 -67z"/>
<path d="M37356 2794 c-3 -9 -6 -117 -6 -241 l0 -225 33 5 c35 6 394 127 416
141 7 5 27 12 45 16 65 17 186 63 186 72 0 16 -51 40 -176 84 -296 104 -332
116 -403 139 -87 29 -87 29 -95 9z"/>
<path d="M34882 2591 c-8 -5 -12 -17 -10 -27 3 -17 15 -19 128 -22 69 -1 135
0 148 3 26 6 30 40 6 49 -24 9 -257 7 -272 -3z"/>
<path d="M35302 2591 c-8 -5 -12 -17 -10 -27 3 -17 15 -19 146 -22 l142 -3 0
31 0 30 -132 0 c-73 0 -139 -4 -146 -9z"/>
<path d="M35700 2585 c-10 -12 -10 -18 0 -30 11 -13 37 -15 154 -13 l141 3 0
25 0 25 -141 3 c-117 2 -143 0 -154 -13z"/>
<path d="M36120 2585 c-10 -12 -10 -18 0 -30 10 -12 41 -15 156 -15 l144 0 0
30 0 30 -144 0 c-115 0 -146 -3 -156 -15z"/>
<path d="M36530 2570 l0 -30 150 0 150 0 0 30 0 30 -150 0 -150 0 0 -30z"/>
<path d="M36950 2585 c-10 -12 -10 -18 0 -30 11 -13 37 -15 154 -13 l141 3 0
25 0 25 -141 3 c-117 2 -143 0 -154 -13z"/>
</g>
</svg>
