<?xml version="1.0" standalone="no"?>
<!DOCTYPE svg PUBLIC "-//W3C//DTD SVG 20010904//EN"
 "http://www.w3.org/TR/2001/REC-SVG-20010904/DTD/svg10.dtd">
<svg version="1.0" xmlns="http://www.w3.org/2000/svg"
 width="1023.000000pt" height="567.000000pt" viewBox="0 0 1023.000000 567.000000"
 preserveAspectRatio="xMidYMid meet">
<metadata>
Created by potrace 1.16, written by Peter Selinger 2001-2019
</metadata>
<g transform="translate(0.000000,567.000000) scale(0.100000,-0.100000)"
fill="#000000" stroke="none">
<path d="M58 5653 c-61 -39 -58 43 -58 -1400 0 -1304 0 -1318 20 -1351 35 -57
62 -62 326 -62 198 0 242 3 270 16 68 33 64 -65 64 1408 l0 1336 -29 32 -29
33 -269 2 c-239 3 -271 1 -295 -14z m392 -108 c0 -24 -3 -25 -59 -25 -42 0
-62 -5 -72 -16 -20 -25 14 -44 78 -44 50 0 53 -1 53 -25 0 -25 -1 -25 -90 -25
l-90 0 0 60 c0 84 17 100 110 100 68 0 70 -1 70 -25z m-205 -185 c0 -18 -6
-26 -23 -28 -24 -4 -38 18 -28 44 3 9 15 14 28 12 17 -2 23 -10 23 -28z m205
-5 c0 -24 -2 -25 -64 -25 -48 0 -65 -4 -70 -15 -3 -8 -15 -15 -26 -15 -17 0
-20 6 -20 40 l0 40 90 0 c89 0 90 0 90 -25z m3 -106 c7 -60 -4 -86 -39 -95
-31 -8 -60 16 -69 57 -4 17 -13 29 -22 29 -12 0 -14 -6 -8 -27 11 -46 11 -47
-11 -51 -23 -3 -34 19 -34 69 0 41 27 57 100 62 36 2 68 4 71 5 3 1 9 -21 12
-49z m-3 -139 l0 -30 -64 0 c-45 0 -65 -4 -69 -14 -9 -24 15 -36 75 -36 55 0
58 -1 58 -25 l0 -25 -135 0 -135 0 0 25 c0 23 4 25 45 25 41 0 45 2 45 24 0
59 39 85 128 86 51 0 52 0 52 -30z m-131 -159 c10 -6 10 -13 2 -29 -15 -28 -4
-51 27 -59 38 -9 57 8 57 53 0 32 3 39 20 39 27 0 42 -54 26 -93 -23 -56 -113
-71 -156 -27 -27 27 -35 91 -13 113 14 14 19 15 37 3z m106 -208 l-26 -23 25
0 c21 0 26 -5 26 -25 l0 -25 -135 0 -135 0 0 25 c0 24 3 25 62 25 59 0 60 1
45 18 -17 18 -24 72 -10 72 4 0 22 -14 40 -32 l32 -31 48 37 48 38 3 -28 c3
-21 -3 -35 -23 -51z m-106 -102 c10 -6 10 -13 2 -29 -15 -28 -4 -51 27 -59 38
-9 57 8 57 53 0 32 3 39 20 39 27 0 42 -54 25 -95 -7 -16 -15 -30 -19 -30 -3
0 -12 -4 -19 -9 -10 -6 -6 -15 17 -39 32 -32 37 -54 21 -96 -12 -32 -44 -49
-94 -49 -49 0 -86 37 -86 86 0 37 24 77 47 77 10 0 5 10 -16 29 -24 23 -31 37
-31 68 0 21 5 44 12 51 14 14 19 15 37 3z m137 -336 c4 -18 1 -32 -11 -45 -16
-18 -32 -20 -142 -20 l-123 0 0 25 0 25 115 0 c108 0 115 1 115 20 0 31 38 26
46 -5z m-30 -106 c29 -28 37 -63 24 -105 l-12 -34 -129 0 -129 0 0 25 c0 23 4
25 45 25 43 0 45 1 45 29 0 44 10 62 44 77 38 17 83 10 112 -17z m24 -294 c0
-24 -3 -25 -59 -25 -42 0 -62 -5 -72 -16 -20 -25 14 -44 78 -44 50 0 53 -1 53
-25 0 -25 -1 -25 -90 -25 l-90 0 0 58 c0 31 4 62 8 68 15 23 49 33 110 34 60
0 62 -1 62 -25z m-216 -161 c20 -8 21 -38 1 -54 -12 -10 -18 -10 -30 0 -18 15
-20 46 -2 53 6 3 13 6 14 6 1 1 8 -2 17 -5z m216 -29 c0 -24 -2 -25 -65 -25
-51 0 -65 -3 -65 -15 0 -9 -9 -15 -25 -15 -22 0 -25 4 -25 40 l0 40 90 0 c89
0 90 0 90 -25z m-20 -75 c27 -27 35 -65 20 -101 -15 -34 -44 -49 -96 -49 -75
0 -113 92 -59 145 32 32 105 35 135 5z m-111 -159 c10 -6 10 -13 2 -29 -15
-28 -4 -51 27 -59 38 -9 57 8 57 53 0 32 3 39 20 39 27 0 42 -54 26 -93 -23
-56 -113 -71 -156 -27 -27 27 -35 91 -13 113 14 14 19 15 37 3z m135 -157 c19
-50 -15 -84 -83 -84 -34 0 -51 -4 -55 -15 -4 -12 6 -15 64 -15 68 0 70 -1 70
-25 0 -24 -2 -25 -65 -25 -51 0 -65 -3 -65 -15 0 -9 -10 -15 -26 -15 -24 0
-25 3 -24 43 3 61 1 67 -14 67 -13 0 -26 20 -26 41 0 5 9 9 20 9 13 0 20 7 20
20 0 15 7 20 25 20 18 0 25 -5 25 -20 0 -17 7 -20 45 -20 41 0 45 2 45 25 0
29 34 36 44 9z m-220 -110 c20 -8 21 -38 2 -53 -7 -6 -21 -9 -30 -5 -19 7 -22
50 -3 57 6 3 13 6 14 6 1 1 8 -2 17 -5z m215 -140 c9 -25 11 -54 7 -77 l-7
-37 -123 0 c-135 0 -136 0 -136 61 0 39 25 86 48 94 11 3 29 2 42 -3 16 -6 33
-3 58 9 49 26 92 8 111 -47z"/>
<path d="M390 5219 c7 -11 14 -18 17 -15 8 8 -5 36 -17 36 -7 0 -7 -6 0 -21z"/>
<path d="M326 4435 c-9 -9 -16 -20 -16 -24 0 -31 86 -44 97 -15 15 41 -49 71
-81 39z"/>
<path d="M340 4173 c-47 -18 -26 -63 30 -63 33 0 40 3 40 19 0 11 -10 27 -22
35 -24 17 -25 17 -48 9z"/>
<path d="M321 3592 c-14 -26 5 -52 37 -52 32 0 52 16 52 41 0 32 -73 41 -89
11z"/>
<path d="M350 3054 c-15 -39 -13 -44 25 -44 30 0 35 3 35 23 0 48 -44 63 -60
21z"/>
<path d="M247 3054 c-4 -4 -7 -16 -7 -26 0 -13 7 -18 26 -18 21 0 25 4 22 22
-3 23 -27 35 -41 22z"/>
<path d="M1594 5291 c-61 -37 -64 -57 -64 -385 0 -163 -3 -296 -7 -296 -5 0
-44 14 -88 30 -44 16 -83 30 -87 30 -4 0 -8 -12 -10 -27 -3 -26 -7 -28 -55
-31 -29 -2 -53 -7 -53 -12 0 -5 24 -10 53 -12 48 -3 52 -5 55 -30 2 -16 5 -28
7 -28 3 0 41 14 87 30 45 17 85 30 90 30 4 0 8 -134 8 -298 0 -333 3 -347 71
-384 31 -17 65 -18 426 -18 304 0 392 -3 396 -12 3 -7 5 7 5 32 0 25 -2 37 -5
28 -4 -17 -31 -18 -393 -18 -259 0 -397 4 -413 11 -13 6 -31 23 -40 39 -15 25
-17 86 -17 632 0 552 1 606 17 628 35 52 -6 49 881 50 l834 0 29 -29 29 -29 0
-622 0 -622 -29 -29 -29 -29 -304 0 -303 0 -47 67 -47 66 30 37 c54 68 63 139
24 216 -24 47 -78 94 -109 94 -30 0 -24 18 22 63 l47 46 48 -17 c44 -16 50
-16 94 0 l48 17 42 -41 c24 -23 43 -45 43 -48 0 -3 -17 -14 -39 -23 -145 -64
-163 -250 -32 -342 35 -25 52 -30 101 -30 49 0 66 5 101 30 62 43 92 105 86
175 -8 95 -64 159 -152 176 -26 5 -48 21 -86 65 -50 58 -50 58 -35 88 9 16 16
46 16 66 0 147 -201 194 -264 61 -20 -43 -20 -76 0 -124 l16 -37 -63 -57 c-34
-32 -69 -58 -77 -58 -9 0 -35 -10 -60 -21 -75 -37 -119 -128 -101 -209 13 -59
48 -106 97 -132 26 -15 42 -30 43 -43 1 -17 2 -17 6 -2 3 11 15 17 36 17 18 1
49 7 70 14 l38 14 38 -52 c20 -28 260 -361 531 -741 271 -379 504 -705 518
-722 l24 -33 -690 0 -691 0 -4 43 -4 42 -1 -42 -2 -43 -65 0 c-70 0 -118 -17
-130 -47 -4 -10 -6 -62 -6 -115 l2 -97 -33 -3 c-43 -4 -43 -22 0 -26 l32 -3 0
-329 c-1 -349 0 -358 47 -379 16 -8 253 -11 743 -11 l720 0 0 -160 c0 -156 -1
-160 -21 -160 -13 0 -19 -5 -16 -12 2 -7 13 -37 23 -66 10 -28 22 -52 26 -52
3 0 14 24 24 53 9 28 19 58 22 65 2 7 -4 12 -17 12 -20 0 -21 4 -21 160 l0
160 115 0 c84 0 124 4 145 15 17 9 31 17 32 18 1 1 5 155 8 342 l5 340 175 5
175 5 -175 5 -175 5 -2 100 c-2 55 -5 110 -8 122 -8 36 -54 53 -143 53 l-80 0
-323 452 c-178 248 -401 560 -496 692 l-171 241 299 5 299 5 32 33 33 32 5
313 5 312 123 3 122 3 0 -31 c0 -16 4 -30 8 -30 10 0 172 59 185 67 9 5 -162
73 -184 73 -5 0 -9 -14 -9 -30 l0 -31 -122 3 -123 3 -5 310 c-5 339 -6 341
-66 370 -28 13 -145 15 -861 15 -792 0 -829 -1 -859 -19z m1175 -569 c49 -36
39 -42 -68 -42 -56 0 -101 4 -101 9 0 10 44 44 70 54 23 9 72 -1 99 -21z
m-1360 -103 c40 -14 39 -22 -2 -37 -46 -16 -47 -16 -47 18 0 33 3 35 49 19z
m2298 -1 c39 -14 42 -24 9 -32 -13 -3 -31 -9 -40 -12 -13 -5 -16 1 -16 25 0
35 1 36 47 19z m-1153 -248 c52 -25 88 -81 94 -143 l5 -47 -174 2 -174 3 2 45
c6 120 137 194 247 140z m441 -3 c50 -28 85 -88 85 -144 l0 -43 -169 0 c-184
0 -185 0 -175 57 22 122 155 189 259 130z m896 -1906 c23 -18 24 -26 24 -128
l0 -108 -150 -5 -150 -4 150 -6 150 -5 3 -313 c1 -204 -1 -320 -8 -332 -10
-18 -22 -20 -145 -20 l-135 0 0 110 c0 67 -4 110 -10 110 -6 0 -10 -43 -10
-110 l0 -110 -740 0 c-706 0 -740 1 -749 18 -14 26 -15 640 -1 657 8 9 8 15 0
20 -13 8 -13 155 0 192 6 15 18 34 27 41 13 9 203 12 869 12 823 0 853 -1 875
-19z"/>
<path d="M2210 2400 c-18 -11 -27 -132 -20 -268 4 -67 9 -95 20 -102 8 -5 68
-10 132 -10 93 0 120 3 132 16 24 23 24 335 0 358 -12 13 -39 16 -132 16 -64
0 -124 -5 -132 -10z m258 -122 l3 -108 -98 1 c-54 0 -91 3 -83 6 8 3 39 15 68
25 59 22 58 28 -8 51 -25 8 -53 18 -62 22 -14 5 -18 2 -18 -14 0 -17 -6 -21
-30 -21 l-30 0 0 68 c0 38 3 72 7 76 4 3 61 5 127 4 l121 -3 3 -107z m-198
-88 c0 -16 -7 -20 -30 -20 -23 0 -30 4 -30 20 0 16 7 20 30 20 23 0 30 -4 30
-20z"/>
<path d="M3554 2351 c-81 -37 -110 -135 -64 -213 27 -47 97 -83 146 -75 45 8
97 40 114 72 21 40 4 41 -30 1 -44 -49 -98 -64 -148 -39 -69 34 -100 110 -68
171 40 78 109 100 180 58 25 -14 48 -35 51 -46 7 -23 25 -27 25 -6 0 24 -58
75 -98 86 -50 13 -60 13 -108 -9z"/>
<path d="M2652 2235 c-42 -18 -57 -57 -42 -107 12 -42 34 -58 79 -58 50 0 61
9 61 51 0 35 -3 39 -24 39 -32 0 -44 -20 -17 -27 33 -9 22 -37 -16 -41 -54 -5
-81 57 -47 107 14 20 23 23 61 18 52 -6 65 7 21 22 -38 13 -35 13 -76 -4z"/>
<path d="M3245 2241 c-7 -12 12 -24 25 -16 11 7 4 25 -10 25 -5 0 -11 -4 -15
-9z"/>
<path d="M2796 2174 c-9 -8 -16 -28 -16 -44 0 -16 7 -36 16 -44 17 -18 74 -22
74 -6 0 6 -13 10 -29 10 -24 0 -41 14 -41 36 0 2 18 4 40 4 28 0 40 4 40 14 0
20 -28 46 -50 46 -10 0 -26 -7 -34 -16z m58 -19 c4 -11 -2 -15 -24 -15 -22 0
-28 4 -24 15 4 8 14 15 24 15 10 0 20 -7 24 -15z"/>
<path d="M2900 2128 c0 -44 4 -58 14 -58 11 0 16 14 18 48 3 39 6 47 23 47 17
0 20 -8 23 -47 4 -63 22 -62 22 1 0 57 -12 70 -62 68 l-38 -1 0 -58z"/>
<path d="M3046 2177 c-21 -15 -24 -70 -6 -92 13 -16 80 -21 80 -6 0 6 -15 11
-32 13 -22 2 -34 9 -36 21 -3 14 4 17 37 17 45 0 54 16 25 44 -19 19 -44 20
-68 3z m54 -22 c0 -9 -9 -15 -25 -15 -24 0 -32 10 -18 23 12 13 43 7 43 -8z"/>
<path d="M3150 2175 c-16 -20 -6 -43 25 -55 35 -13 31 -30 -7 -30 -23 0 -29
-3 -21 -11 6 -6 23 -9 39 -7 40 4 47 49 9 66 -30 14 -34 37 -5 29 13 -3 20 0
20 9 0 19 -44 18 -60 -1z"/>
<path d="M3230 2181 c0 -6 5 -11 10 -11 6 0 10 -22 10 -50 0 -38 4 -50 15 -50
13 0 15 11 13 58 -3 50 -6 57 -25 60 -13 2 -23 -1 -23 -7z"/>
<path d="M3310 2175 c-16 -20 -6 -43 25 -55 35 -13 31 -30 -7 -30 -23 0 -29
-3 -21 -11 6 -6 23 -9 39 -7 40 4 47 49 9 66 -30 14 -34 37 -5 29 13 -3 20 0
20 9 0 19 -44 18 -60 -1z"/>
<path d="M2827 1934 c-12 -12 4 -24 34 -24 l29 0 0 -91 c0 -68 3 -90 13 -87 8
3 13 33 15 91 l3 87 29 0 c20 0 30 5 30 15 0 12 -15 15 -73 15 -41 0 -77 -3
-80 -6z"/>
<path d="M3011 1918 c7 -13 21 -35 31 -51 l20 -28 -31 -48 c-34 -53 -37 -61
-18 -61 6 0 24 18 38 41 l26 40 26 -40 c15 -23 31 -41 35 -41 22 0 19 16 -10
57 -33 49 -33 53 12 121 19 27 20 32 6 32 -9 0 -26 -16 -37 -35 -12 -19 -24
-35 -27 -35 -4 0 -17 16 -30 35 -26 40 -61 51 -41 13z"/>
<path d="M3533 1881 c-50 -36 -67 -76 -61 -143 5 -45 11 -57 47 -90 23 -22 46
-36 52 -32 6 4 -3 18 -24 35 -81 67 -71 176 21 223 39 20 65 20 108 0 50 -24
78 -74 71 -132 -4 -39 -12 -53 -47 -84 -45 -40 -33 -54 14 -17 69 54 78 165
18 222 -58 56 -137 63 -199 18z"/>
<path d="M4894 5291 c-61 -37 -64 -57 -64 -385 0 -163 -3 -296 -7 -296 -5 0
-44 14 -88 30 -44 16 -83 30 -87 30 -4 0 -8 -12 -10 -27 l-3 -28 -122 -3 c-68
-1 -123 -7 -123 -12 0 -5 55 -11 123 -12 l122 -3 3 -27 c2 -16 5 -28 7 -28 3
0 41 14 87 30 45 17 85 30 89 30 5 0 9 -138 11 -307 3 -278 5 -311 21 -335 40
-59 33 -58 637 -58 l552 0 -20 -32 c-34 -57 -136 -253 -127 -245 5 4 59 100
121 215 74 137 117 206 126 203 7 -3 42 -4 78 -4 36 0 68 -5 72 -11 5 -6 8 -2
8 10 0 11 13 30 29 42 38 28 71 98 71 152 0 53 -34 125 -74 153 -16 12 -49 26
-71 32 -31 7 -55 25 -94 67 -52 57 -52 57 -37 87 49 94 -18 205 -124 205 -104
0 -169 -105 -124 -201 l17 -34 -54 -55 c-40 -40 -66 -58 -104 -69 -61 -17
-118 -68 -135 -121 -20 -59 -8 -138 26 -182 45 -55 107 -85 168 -78 120 13
198 128 166 246 -13 50 -83 126 -121 132 -37 5 -32 23 19 66 l48 41 47 -17
c44 -16 50 -16 95 1 l47 17 45 -47 44 -46 -39 -17 c-77 -33 -125 -104 -125
-185 0 -59 23 -107 67 -144 l35 -29 -34 -61 -33 -61 -562 0 -563 0 -32 29 -33
29 -3 604 c-1 332 0 612 2 624 3 11 18 33 32 47 l27 27 834 0 835 0 29 -29 29
-29 0 -622 0 -622 -30 -29 -30 -30 -134 3 -135 3 6 -25 c3 -14 12 -41 20 -60
9 -25 12 -27 8 -8 -3 14 -8 33 -11 42 -5 14 8 16 115 16 129 0 157 7 196 50
19 21 20 40 25 334 l5 311 115 0 115 0 3 -28 c2 -17 8 -27 15 -24 7 2 49 17
94 33 46 16 83 31 83 34 0 5 -170 70 -183 70 -3 0 -7 -12 -9 -27 l-3 -28 -115
0 -115 0 -5 310 c-5 339 -6 341 -66 370 -28 13 -145 15 -861 15 -792 0 -829
-1 -859 -19z m1149 -555 c18 -7 41 -23 51 -35 l19 -21 -106 0 c-60 0 -107 4
-107 9 0 10 45 44 70 54 25 9 39 8 73 -7z m-1334 -117 c35 -12 40 -24 14 -32
-10 -2 -26 -8 -35 -12 -15 -6 -18 -2 -18 24 0 17 2 31 4 31 1 0 17 -5 35 -11z
m2280 0 c35 -12 40 -24 14 -32 -10 -2 -26 -8 -35 -12 -15 -6 -18 -2 -18 24 0
17 2 31 4 31 1 0 17 -5 35 -11z m-1123 -254 c49 -29 84 -91 84 -148 l0 -37
-172 2 -173 3 2 45 c6 125 149 200 259 135z m429 2 c50 -28 85 -88 85 -144 l0
-43 -170 0 c-129 0 -170 3 -171 13 -12 144 134 243 256 174z"/>
<path d="M8253 5290 c-61 -37 -63 -47 -63 -380 0 -179 -4 -300 -9 -300 -5 0
-46 14 -91 30 -45 17 -86 30 -91 30 -5 0 -9 -13 -9 -30 l0 -30 -135 0 c-83 0
-135 -4 -135 -10 0 -6 52 -10 135 -10 l135 0 0 -30 c0 -16 4 -30 8 -30 5 0 45
14 90 30 46 17 87 30 92 30 6 0 10 -114 10 -302 0 -283 1 -305 20 -335 39 -64
26 -63 590 -63 l510 0 -22 -35 c-13 -19 -194 -286 -403 -592 -209 -307 -411
-604 -449 -660 l-69 -103 -58 0 c-67 0 -102 -13 -118 -44 -6 -11 -12 -68 -13
-126 l-3 -105 -340 -5 -340 -5 343 -3 342 -2 0 -334 0 -334 31 -26 31 -26 729
0 729 0 0 -160 c0 -156 -1 -160 -21 -160 -13 0 -19 -5 -16 -12 2 -7 13 -37 23
-65 10 -29 22 -53 26 -53 3 0 14 24 24 53 9 28 19 58 22 65 2 7 -4 12 -17 12
-20 0 -21 4 -21 160 l0 160 110 0 c123 0 158 11 178 55 9 19 12 143 12 451 0
463 -1 474 -57 495 -16 6 -319 9 -805 9 l-780 0 17 26 c30 47 1047 1539 1051
1543 3 3 19 -4 37 -14 20 -12 51 -19 84 -19 39 0 53 -4 57 -16 2 -10 4 -8 5 5
1 12 15 28 37 40 52 28 89 96 89 165 -1 96 -54 163 -153 189 -27 8 -52 27 -86
67 -46 53 -48 57 -35 81 21 39 17 114 -9 150 -24 33 -77 63 -113 63 -12 0 -42
-9 -65 -20 -33 -16 -46 -31 -63 -69 -21 -49 -19 -78 7 -128 9 -17 2 -28 -51
-80 -46 -45 -72 -62 -100 -67 -74 -13 -147 -111 -147 -197 0 -47 49 -127 93
-153 88 -50 163 -41 233 29 80 80 79 190 -1 271 -24 23 -57 45 -75 49 l-32 7
52 53 51 52 37 -18 c46 -24 68 -24 115 0 l37 19 45 -52 46 -51 -33 -10 c-18
-5 -52 -28 -75 -51 -71 -72 -80 -164 -22 -244 l29 -40 -52 -80 -53 -80 -527 0
-526 0 -31 31 -31 31 0 620 0 620 29 29 29 29 834 0 c774 0 835 -2 854 -18 12
-9 27 -27 33 -39 8 -15 11 -200 11 -623 0 -652 1 -643 -55 -668 -37 -17 -302
-16 -308 1 -8 19 -6 -24 3 -58 6 -24 8 -26 9 -7 1 22 3 22 144 22 125 0 146 3
175 20 63 39 62 28 62 690 0 662 1 651 -62 690 -32 20 -48 20 -863 20 -806 0
-831 -1 -862 -20z m1156 -544 c15 -8 33 -22 40 -30 12 -14 3 -16 -89 -16
l-103 0 19 21 c35 40 86 49 133 25z m-1342 -128 c39 -14 42 -24 9 -32 -13 -3
-31 -9 -40 -12 -13 -5 -16 1 -16 25 0 35 1 36 47 19z m1156 -241 c44 -25 90
-108 85 -154 l-3 -28 -172 -3 -173 -2 0 38 c0 64 38 122 101 155 61 32 96 31
162 -6z m432 -2 c48 -28 78 -80 79 -138 l1 -42 -170 0 -170 0 -3 27 c-5 41 31
112 71 142 66 51 118 54 192 11z m320 -1920 l25 -24 0 -423 c0 -233 -3 -433
-6 -445 -6 -22 -10 -23 -140 -23 l-134 0 0 110 c0 67 -4 110 -10 110 -6 0 -10
-43 -10 -110 l0 -110 -745 0 c-701 0 -746 1 -753 18 -4 9 -7 159 -7 332 l0
315 43 3 42 3 0 -75 c0 -111 7 -116 159 -116 157 0 151 -7 151 195 0 203 6
195 -155 195 -151 0 -155 -3 -155 -118 l0 -73 -42 3 -43 3 -3 75 c-4 96 4 135
30 160 21 20 36 20 875 20 l854 0 24 -25z m-1417 -77 c8 -8 12 -47 12 -110 l0
-98 -82 0 c-45 0 -79 2 -76 5 3 3 29 13 58 23 l53 18 -71 26 -72 25 0 -24 c0
-22 -4 -24 -37 -21 l-38 3 -3 68 c-2 42 2 74 9 83 15 18 229 20 247 2z m-178
-188 c0 -17 -7 -20 -40 -20 -27 0 -40 4 -40 13 0 21 11 27 47 27 26 0 33 -4
33 -20z"/>
<path d="M9642 2349 c-47 -23 -83 -79 -84 -130 -2 -73 63 -146 139 -156 46 -6
116 28 141 69 25 42 7 44 -28 4 -44 -49 -98 -64 -148 -39 -44 22 -82 75 -82
115 0 60 54 125 112 134 45 8 105 -20 127 -58 17 -30 31 -36 31 -14 0 24 -58
75 -98 86 -51 14 -61 13 -110 -11z"/>
<path d="M8890 2070 c0 -5 14 -10 30 -10 l30 0 0 -90 c0 -73 3 -90 15 -90 12
0 15 17 15 90 l0 90 35 0 c19 0 35 5 35 10 0 6 -33 10 -80 10 -47 0 -80 -4
-80 -10z"/>
<path d="M9070 2075 c0 -3 12 -24 26 -47 28 -44 27 -49 -16 -115 -19 -28 -20
-33 -6 -33 9 0 26 16 37 35 12 19 25 35 29 35 4 0 17 -16 29 -35 11 -19 27
-35 36 -35 20 0 20 2 -15 57 -33 51 -34 40 16 118 27 42 -11 32 -39 -11 l-25
-35 -22 35 c-12 20 -28 36 -36 36 -8 0 -14 -2 -14 -5z"/>
<path d="M9627 1885 c-45 -31 -67 -71 -67 -125 0 -50 19 -89 60 -124 47 -39
57 -20 12 23 -77 71 -64 168 30 217 35 18 62 18 104 -2 50 -24 78 -74 71 -132
-4 -39 -12 -53 -47 -84 -33 -30 -38 -38 -23 -38 36 0 89 70 94 125 11 127
-128 211 -234 140z"/>
<path d="M2103 5143 c-22 -4 -23 -9 -23 -104 l0 -99 48 0 c35 0 54 5 65 18 21
23 22 56 2 76 -11 11 -13 21 -5 40 16 43 -31 79 -87 69z m52 -53 c0 -18 -6
-26 -22 -28 -20 -3 -23 1 -23 28 0 27 3 31 23 28 16 -2 22 -10 22 -28z m16
-76 c18 -21 0 -48 -35 -52 -24 -3 -26 0 -26 32 0 31 3 36 24 36 13 0 29 -7 37
-16z"/>
<path d="M2230 5064 c0 -93 10 -124 40 -124 23 0 27 15 5 24 -12 4 -15 25 -15
96 0 73 -3 90 -15 90 -12 0 -15 -16 -15 -86z"/>
<path d="M2590 5045 c0 -87 3 -105 15 -105 10 0 15 10 15 28 l1 27 24 -27 c13
-16 31 -28 40 -28 12 0 8 10 -16 40 l-32 40 23 25 c31 32 17 45 -15 15 l-25
-23 0 56 c0 44 -3 57 -15 57 -12 0 -15 -18 -15 -105z"/>
<path d="M2816 5143 c-12 -12 -6 -33 9 -33 8 0 15 6 15 14 0 17 -14 28 -24 19z"/>
<path d="M5388 5142 l-28 -3 0 -100 0 -99 48 0 c53 0 76 13 87 47 4 15 0 28
-15 43 -17 17 -19 24 -10 35 32 39 -18 86 -82 77z m52 -37 c18 -21 5 -45 -25
-45 -21 0 -25 5 -25 30 0 23 5 30 19 30 10 0 24 -7 31 -15z m4 -81 c9 -3 16
-16 16 -29 0 -23 -17 -35 -51 -35 -15 0 -19 7 -19 35 0 36 15 44 54 29z"/>
<path d="M5522 5048 l3 -103 30 -3 c27 -2 28 -1 13 11 -15 12 -18 30 -18 106
0 75 -3 91 -15 91 -13 0 -15 -16 -13 -102z"/>
<path d="M5870 5045 c0 -87 3 -105 15 -105 10 0 15 10 15 32 l0 32 28 -33 c15
-19 34 -32 42 -29 9 3 3 15 -21 42 l-33 38 27 22 c15 12 27 25 27 29 0 14 -24
7 -47 -15 l-23 -21 0 56 c0 44 -3 57 -15 57 -12 0 -15 -18 -15 -105z"/>
<path d="M6094 5139 c-10 -17 13 -36 27 -22 12 12 4 33 -11 33 -5 0 -12 -5
-16 -11z"/>
<path d="M8733 5142 c-22 -3 -23 -7 -23 -103 l0 -99 45 0 c70 0 107 49 70 90
-12 13 -13 23 -6 42 17 46 -24 79 -86 70z m52 -52 c0 -18 -6 -26 -22 -28 -20
-3 -23 1 -23 28 0 27 3 31 23 28 16 -2 22 -10 22 -28z m16 -76 c18 -21 0 -48
-35 -52 -24 -3 -26 0 -26 32 0 31 3 36 24 36 13 0 29 -7 37 -16z"/>
<path d="M8860 5061 c0 -49 3 -96 6 -105 7 -17 54 -22 54 -6 0 6 -7 10 -15 10
-12 0 -15 17 -15 95 0 78 -3 95 -15 95 -12 0 -15 -17 -15 -89z"/>
<path d="M9220 5045 c0 -87 3 -105 15 -105 10 0 15 10 15 28 l1 27 22 -27 c13
-16 31 -28 40 -28 15 0 12 7 -14 40 l-32 40 23 25 c31 32 17 45 -15 15 l-25
-23 0 56 c0 44 -3 57 -15 57 -12 0 -15 -18 -15 -105z"/>
<path d="M9430 5045 c0 -87 3 -105 15 -105 10 0 15 10 15 30 l0 30 28 -31 c41
-46 60 -33 21 14 l-32 38 29 30 c32 34 13 41 -23 7 l-23 -21 0 56 c0 44 -3 57
-15 57 -12 0 -15 -18 -15 -105z"/>
<path d="M2329 5061 c-17 -14 -23 -28 -22 -55 1 -49 18 -66 63 -66 45 0 64 19
64 65 0 65 -57 95 -105 56z m66 -17 c34 -35 -3 -103 -42 -78 -24 15 -28 58 -8
78 9 9 20 16 25 16 5 0 16 -7 25 -16z"/>
<path d="M2470 5060 c-26 -26 -26 -81 -1 -104 22 -20 82 -19 89 2 3 9 -3 11
-22 6 -34 -8 -56 10 -56 47 0 32 25 51 58 42 25 -6 30 12 6 21 -29 11 -54 6
-74 -14z"/>
<path d="M2790 5065 c0 -8 5 -15 10 -15 6 0 10 -25 10 -55 0 -42 3 -55 15 -55
12 0 15 14 15 70 0 68 -1 70 -25 70 -16 0 -25 -6 -25 -15z"/>
<path d="M5610 5060 c-26 -26 -26 -81 -2 -103 27 -25 78 -22 96 5 34 49 5 118
-49 118 -14 0 -34 -9 -45 -20z m69 -14 c7 -8 11 -30 9 -48 -3 -29 -6 -33 -33
-33 -27 0 -30 4 -33 33 -3 35 11 62 33 62 7 0 18 -6 24 -14z"/>
<path d="M5750 5053 c-23 -29 -22 -72 2 -100 13 -16 96 -14 88 2 -3 5 -15 8
-28 6 -30 -3 -52 15 -52 45 0 32 28 57 56 50 26 -7 42 9 18 18 -33 13 -63 5
-84 -21z"/>
<path d="M6075 5070 c-3 -6 1 -13 9 -16 21 -8 22 -108 1 -148 -19 -36 -12 -45
15 -21 17 16 20 31 20 107 0 80 -2 88 -19 88 -11 0 -23 -5 -26 -10z"/>
<path d="M8950 5053 c-16 -20 -20 -36 -16 -57 9 -43 24 -56 66 -56 45 0 62 17
63 66 2 68 -72 99 -113 47z m74 -9 c19 -18 20 -38 6 -65 -20 -36 -70 -17 -70
27 0 22 24 54 40 54 5 0 16 -7 24 -16z"/>
<path d="M9100 5060 c-26 -26 -26 -81 -1 -104 20 -18 88 -19 83 -1 -1 5 -16 8
-32 7 -25 -3 -32 1 -40 24 -16 41 11 78 51 69 30 -7 41 8 13 19 -29 11 -54 6
-74 -14z"/>
<path d="M770 4600 c0 -6 27 -10 60 -10 33 0 60 4 60 10 0 6 -27 10 -60 10
-33 0 -60 -4 -60 -10z"/>
<path d="M1000 4600 c0 -6 27 -10 60 -10 33 0 60 4 60 10 0 6 -27 10 -60 10
-33 0 -60 -4 -60 -10z"/>
<path d="M3870 4600 c0 -5 7 -10 15 -10 8 0 15 5 15 10 0 6 -7 10 -15 10 -8 0
-15 -4 -15 -10z"/>
<path d="M4000 4600 c0 -5 7 -10 15 -10 8 0 15 5 15 10 0 6 -7 10 -15 10 -8 0
-15 -4 -15 -10z"/>
<path d="M4130 4600 c0 -5 7 -10 15 -10 8 0 15 5 15 10 0 6 -7 10 -15 10 -8 0
-15 -4 -15 -10z"/>
<path d="M4270 4600 c0 -5 5 -10 10 -10 6 0 10 5 10 10 0 6 -4 10 -10 10 -5 0
-10 -4 -10 -10z"/>
<path d="M7200 4600 c0 -5 5 -10 10 -10 6 0 10 5 10 10 0 6 -4 10 -10 10 -5 0
-10 -4 -10 -10z"/>
<path d="M7330 4600 c0 -5 7 -10 15 -10 8 0 15 5 15 10 0 6 -7 10 -15 10 -8 0
-15 -4 -15 -10z"/>
<path d="M7460 4600 c0 -5 7 -10 15 -10 8 0 15 5 15 10 0 6 -7 10 -15 10 -8 0
-15 -4 -15 -10z"/>
<path d="M7590 4600 c0 -5 7 -10 15 -10 8 0 15 5 15 10 0 6 -7 10 -15 10 -8 0
-15 -4 -15 -10z"/>
<path d="M6301 3990 c0 -8 4 -24 9 -35 5 -13 9 -14 9 -5 0 8 -4 24 -9 35 -5
13 -9 14 -9 5z"/>
<path d="M9632 3970 c0 -14 2 -19 5 -12 2 6 2 18 0 25 -3 6 -5 1 -5 -13z"/>
<path d="M2413 3795 c0 -22 2 -30 4 -17 2 12 2 30 0 40 -3 9 -5 -1 -4 -23z"/>
<path d="M9662 3810 c0 -14 2 -19 5 -12 2 6 2 18 0 25 -3 6 -5 1 -5 -13z"/>
<path d="M6362 3790 c0 -8 6 -31 13 -50 7 -19 13 -28 13 -20 0 8 -6 31 -13 50
-7 19 -13 28 -13 20z"/>
<path d="M9672 3760 c0 -14 2 -19 5 -12 2 6 2 18 0 25 -3 6 -5 1 -5 -13z"/>
<path d="M9682 3710 c0 -14 2 -19 5 -12 2 6 2 18 0 25 -3 6 -5 1 -5 -13z"/>
<path d="M2403 3680 c0 -25 2 -35 4 -22 2 12 2 32 0 45 -2 12 -4 2 -4 -23z"/>
<path d="M6392 3690 c0 -8 6 -31 13 -50 7 -19 13 -28 13 -20 0 8 -6 31 -13 50
-7 19 -13 28 -13 20z"/>
<path d="M9692 3650 c0 -14 2 -19 5 -12 2 6 2 18 0 25 -3 6 -5 1 -5 -13z"/>
<path d="M9702 3600 c0 -14 2 -19 5 -12 2 6 2 18 0 25 -3 6 -5 1 -5 -13z"/>
<path d="M2393 3565 c0 -22 2 -30 4 -17 2 12 2 30 0 40 -3 9 -5 -1 -4 -23z"/>
<path d="M5850 3540 c-17 -33 -28 -60 -25 -60 2 0 18 27 35 60 17 33 28 60 25
60 -2 0 -18 -27 -35 -60z"/>
<path d="M6422 3590 c0 -8 6 -31 13 -50 7 -19 13 -28 13 -20 0 8 -6 31 -13 50
-7 19 -13 28 -13 20z"/>
<path d="M9712 3550 c0 -14 2 -19 5 -12 2 6 2 18 0 25 -3 6 -5 1 -5 -13z"/>
<path d="M988 3503 c6 -2 18 -2 25 0 6 3 1 5 -13 5 -14 0 -19 -2 -12 -5z"/>
<path d="M1068 3503 c6 -2 18 -2 25 0 6 3 1 5 -13 5 -14 0 -19 -2 -12 -5z"/>
<path d="M1138 3503 c6 -2 18 -2 25 0 6 3 1 5 -13 5 -14 0 -19 -2 -12 -5z"/>
<path d="M1218 3503 c6 -2 18 -2 25 0 6 3 1 5 -13 5 -14 0 -19 -2 -12 -5z"/>
<path d="M1298 3503 c7 -3 16 -2 19 1 4 3 -2 6 -13 5 -11 0 -14 -3 -6 -6z"/>
<path d="M1368 3503 c6 -2 18 -2 25 0 6 3 1 5 -13 5 -14 0 -19 -2 -12 -5z"/>
<path d="M1448 3503 c6 -2 18 -2 25 0 6 3 1 5 -13 5 -14 0 -19 -2 -12 -5z"/>
<path d="M1518 3503 c6 -2 18 -2 25 0 6 3 1 5 -13 5 -14 0 -19 -2 -12 -5z"/>
<path d="M1598 3503 c6 -2 18 -2 25 0 6 3 1 5 -13 5 -14 0 -19 -2 -12 -5z"/>
<path d="M1678 3503 c6 -2 18 -2 25 0 6 3 1 5 -13 5 -14 0 -19 -2 -12 -5z"/>
<path d="M1748 3503 c6 -2 18 -2 25 0 6 3 1 5 -13 5 -14 0 -19 -2 -12 -5z"/>
<path d="M1828 3503 c6 -2 18 -2 25 0 6 3 1 5 -13 5 -14 0 -19 -2 -12 -5z"/>
<path d="M1908 3503 c7 -3 16 -2 19 1 4 3 -2 6 -13 5 -11 0 -14 -3 -6 -6z"/>
<path d="M1978 3503 c6 -2 18 -2 25 0 6 3 1 5 -13 5 -14 0 -19 -2 -12 -5z"/>
<path d="M2058 3503 c6 -2 18 -2 25 0 6 3 1 5 -13 5 -14 0 -19 -2 -12 -5z"/>
<path d="M9722 3490 c0 -14 2 -19 5 -12 2 6 2 18 0 25 -3 6 -5 1 -5 -13z"/>
<path d="M6452 3490 c0 -8 6 -31 13 -50 7 -19 13 -28 13 -20 0 8 -6 31 -13 50
-7 19 -13 28 -13 20z"/>
<path d="M2383 3455 c0 -22 2 -30 4 -17 2 12 2 30 0 40 -3 9 -5 -1 -4 -23z"/>
<path d="M2190 3466 c0 -2 8 -10 18 -17 15 -13 16 -12 3 4 -13 16 -21 21 -21
13z"/>
<path d="M5622 3118 c-213 -396 -218 -407 -205 -393 6 6 93 165 195 355 222
414 210 390 204 390 -2 0 -89 -159 -194 -352z"/>
<path d="M9732 3440 c0 -14 2 -19 5 -12 2 6 2 18 0 25 -3 6 -5 1 -5 -13z"/>
<path d="M9742 3390 c0 -14 2 -19 5 -12 2 6 2 18 0 25 -3 6 -5 1 -5 -13z"/>
<path d="M6482 3385 c20 -77 242 -804 245 -801 5 4 -236 809 -244 816 -3 3 -4
-4 -1 -15z"/>
<path d="M895 3380 c-4 -6 7 -10 24 -10 l31 0 0 -80 c0 -64 3 -80 15 -80 12 0
15 16 15 80 0 79 0 80 25 80 14 0 25 5 25 10 0 6 -28 10 -64 10 -36 0 -68 -4
-71 -10z"/>
<path d="M1842 3378 c5 -15 28 -18 29 -3 0 6 -7 12 -17 13 -10 3 -15 -1 -12
-10z"/>
<path d="M2373 3340 c0 -25 2 -35 4 -22 2 12 2 32 0 45 -2 12 -4 2 -4 -23z"/>
<path d="M1750 3346 c0 -8 -6 -17 -12 -20 -10 -5 -10 -7 0 -12 7 -3 12 -24 12
-49 0 -45 19 -68 48 -58 17 6 15 23 -3 23 -19 0 -21 75 -2 84 10 5 10 7 0 12
-7 3 -13 12 -13 20 0 8 -7 14 -15 14 -8 0 -15 -6 -15 -14z"/>
<path d="M812 3330 c0 -14 2 -19 5 -12 2 6 2 18 0 25 -3 6 -5 1 -5 -13z"/>
<path d="M9752 3330 c0 -14 2 -19 5 -12 2 6 2 18 0 25 -3 6 -5 1 -5 -13z"/>
<path d="M1060 3268 c0 -32 4 -58 10 -58 6 0 10 17 10 38 0 41 14 62 42 62 10
0 18 4 18 10 0 5 -18 9 -40 8 l-40 -1 0 -59z"/>
<path d="M1165 3320 c-4 -6 7 -10 24 -10 21 0 31 -5 31 -15 0 -8 -6 -15 -14
-15 -24 0 -58 -34 -51 -52 9 -22 23 -26 63 -21 30 5 32 8 32 45 0 55 -15 78
-50 78 -16 0 -32 -4 -35 -10z m55 -75 c0 -8 -9 -15 -20 -15 -20 0 -26 11 -13
23 12 13 33 7 33 -8z"/>
<path d="M1280 3268 c0 -32 4 -58 10 -58 6 0 10 17 10 38 0 46 12 65 36 60 15
-2 20 -14 22 -51 4 -62 22 -61 22 2 0 57 -13 71 -63 69 l-37 -1 0 -59z"/>
<path d="M1422 3318 c-20 -20 -14 -37 18 -53 17 -9 30 -20 30 -25 0 -6 -13
-10 -30 -10 -35 0 -40 -15 -8 -23 22 -6 68 15 68 31 0 13 -15 29 -37 41 -31
16 -29 31 3 31 14 0 23 4 19 10 -9 14 -48 13 -63 -2z"/>
<path d="M1520 3321 c0 -6 14 -11 30 -11 40 0 39 -23 -2 -35 -62 -18 -42 -77
22 -67 31 4 31 5 28 61 l-3 56 -37 3 c-22 2 -38 -1 -38 -7z m60 -71 c0 -12
-28 -25 -36 -17 -9 9 6 27 22 27 8 0 14 -5 14 -10z"/>
<path d="M1634 3304 c-31 -46 14 -110 67 -97 30 8 22 21 -13 25 -30 3 -33 6
-33 38 0 33 2 35 33 35 19 0 32 5 32 12 0 8 -13 13 -35 13 -26 0 -39 -6 -51
-26z"/>
<path d="M1820 3320 c0 -5 5 -10 10 -10 6 0 10 -22 10 -50 0 -38 4 -50 15 -50
12 0 15 13 15 60 0 57 -1 60 -25 60 -14 0 -25 -4 -25 -10z"/>
<path d="M1906 3308 c-34 -48 -10 -101 44 -101 54 0 78 53 44 101 -10 14 -26
22 -44 22 -18 0 -34 -8 -44 -22z m69 -38 c0 -31 -3 -35 -25 -35 -19 0 -26 6
-28 23 -5 36 5 54 30 50 19 -2 23 -9 23 -38z"/>
<path d="M2030 3269 c0 -45 3 -59 14 -59 11 0 16 14 18 48 3 39 6 47 23 47 17
0 20 -8 23 -47 2 -34 7 -48 18 -48 10 0 14 12 14 41 0 63 -13 78 -65 77 l-45
-1 0 -58z"/>
<path d="M9762 3280 c0 -14 2 -19 5 -12 2 6 2 18 0 25 -3 6 -5 1 -5 -13z"/>
<path d="M811 3254 c0 -11 3 -14 6 -6 3 7 2 16 -1 19 -3 4 -6 -2 -5 -13z"/>
<path d="M2363 3225 c0 -22 2 -30 4 -17 2 12 2 30 0 40 -3 9 -5 -1 -4 -23z"/>
<path d="M9772 3230 c0 -14 2 -19 5 -12 2 6 2 18 0 25 -3 6 -5 1 -5 -13z"/>
<path d="M812 3180 c0 -14 2 -19 5 -12 2 6 2 18 0 25 -3 6 -5 1 -5 -13z"/>
<path d="M9782 3170 c0 -14 2 -19 5 -12 2 6 2 18 0 25 -3 6 -5 1 -5 -13z"/>
<path d="M2353 3110 c0 -25 2 -35 4 -22 2 12 2 32 0 45 -2 12 -4 2 -4 -23z"/>
<path d="M9792 3120 c0 -14 2 -19 5 -12 2 6 2 18 0 25 -3 6 -5 1 -5 -13z"/>
<path d="M812 3100 c0 -14 2 -19 5 -12 2 6 2 18 0 25 -3 6 -5 1 -5 -13z"/>
<path d="M9802 3070 c0 -14 2 -19 5 -12 2 6 2 18 0 25 -3 6 -5 1 -5 -13z"/>
<path d="M1062 3068 c-6 -6 -12 -17 -12 -24 0 -6 -7 -17 -15 -24 -10 -8 -12
-17 -6 -24 5 -6 11 -31 13 -55 4 -64 28 -66 28 -3 0 38 4 51 18 57 16 6 16 7
-2 20 -23 17 -14 48 12 43 11 -2 20 2 21 7 3 15 -42 18 -57 3z"/>
<path d="M1462 3068 c-6 -6 -12 -20 -12 -29 0 -9 -8 -20 -17 -24 -17 -6 -17
-7 0 -19 12 -9 17 -27 17 -60 0 -25 5 -46 10 -46 6 0 10 22 10 49 0 37 4 50
18 56 16 6 16 7 -2 20 -23 17 -14 48 12 43 11 -2 20 2 21 7 3 15 -42 18 -57 3z"/>
<path d="M1880 3051 c0 -25 -5 -31 -30 -36 -33 -7 -50 -30 -50 -67 0 -39 16
-53 65 -54 l45 -2 0 94 c0 77 -3 94 -15 94 -10 0 -15 -10 -15 -29z m0 -91 c0
-44 -19 -61 -45 -40 -20 16 -19 39 2 62 27 30 43 22 43 -22z"/>
<path d="M812 3030 c0 -14 2 -19 5 -12 2 6 2 18 0 25 -3 6 -5 1 -5 -13z"/>
<path d="M2343 2995 c0 -22 2 -30 4 -17 2 12 2 30 0 40 -3 9 -5 -1 -4 -23z"/>
<path d="M9812 3010 c0 -14 2 -19 5 -12 2 6 2 18 0 25 -3 6 -5 1 -5 -13z"/>
<path d="M1130 3000 c-42 -42 -13 -110 46 -110 43 0 45 18 2 22 -22 2 -34 9
-36 21 -3 14 4 17 37 17 47 0 54 17 21 50 -11 11 -27 20 -35 20 -8 0 -24 -9
-35 -20z m58 -18 c2 -7 -7 -12 -22 -12 -27 0 -35 15 -13 23 17 7 30 3 35 -11z"/>
<path d="M1250 3000 c-42 -42 -13 -110 46 -110 43 0 45 18 2 22 -22 2 -34 9
-36 21 -3 14 4 17 37 17 47 0 54 17 21 50 -11 11 -27 20 -35 20 -8 0 -24 -9
-35 -20z m58 -18 c2 -7 -7 -12 -22 -12 -27 0 -35 15 -13 23 17 7 30 3 35 -11z"/>
<path d="M1527 3014 c-13 -13 -7 -79 8 -101 12 -17 25 -22 55 -20 l40 1 0 64
c0 78 -22 82 -30 6 -4 -41 -8 -49 -25 -49 -17 0 -21 8 -23 45 -3 46 -13 66
-25 54z"/>
<path d="M1670 2955 c0 -37 4 -65 10 -65 6 0 10 20 10 44 0 51 20 76 45 56 9
-8 15 -30 15 -56 0 -24 5 -44 10 -44 6 0 10 25 10 55 0 44 -4 56 -20 65 -14 8
-26 8 -40 0 -14 -7 -20 -7 -20 0 0 5 -4 10 -10 10 -6 0 -10 -28 -10 -65z"/>
<path d="M1952 3008 c-21 -21 -13 -47 18 -63 35 -18 30 -39 -7 -32 -15 3 -22
0 -20 -7 5 -16 46 -20 63 -6 24 21 17 50 -16 62 -34 11 -35 34 -1 31 24 -3 28
12 5 21 -22 8 -28 8 -42 -6z"/>
<path d="M9822 2960 c0 -14 2 -19 5 -12 2 6 2 18 0 25 -3 6 -5 1 -5 -13z"/>
<path d="M812 2950 c0 -14 2 -19 5 -12 2 6 2 18 0 25 -3 6 -5 1 -5 -13z"/>
<path d="M9832 2910 c0 -14 2 -19 5 -12 2 6 2 18 0 25 -3 6 -5 1 -5 -13z"/>
<path d="M2333 2885 c0 -22 2 -30 4 -17 2 12 2 30 0 40 -3 9 -5 -1 -4 -23z"/>
<path d="M821 2864 c0 -11 3 -14 6 -6 3 7 2 16 -1 19 -3 4 -6 -2 -5 -13z"/>
<path d="M2215 2859 c-4 -6 -5 -12 -2 -15 2 -3 7 2 10 11 7 17 1 20 -8 4z"/>
<path d="M9842 2850 c0 -14 2 -19 5 -12 2 6 2 18 0 25 -3 6 -5 1 -5 -13z"/>
<path d="M850 2816 c0 -2 7 -7 16 -10 8 -3 12 -2 9 4 -6 10 -25 14 -25 6z"/>
<path d="M9852 2800 c0 -14 2 -19 5 -12 2 6 2 18 0 25 -3 6 -5 1 -5 -13z"/>
<path d="M2155 2800 c-3 -6 1 -7 9 -4 18 7 21 14 7 14 -6 0 -13 -4 -16 -10z"/>
<path d="M2323 2770 c0 -25 2 -35 4 -22 2 12 2 32 0 45 -2 12 -4 2 -4 -23z"/>
<path d="M918 2783 c6 -2 18 -2 25 0 6 3 1 5 -13 5 -14 0 -19 -2 -12 -5z"/>
<path d="M998 2783 c6 -2 18 -2 25 0 6 3 1 5 -13 5 -14 0 -19 -2 -12 -5z"/>
<path d="M1078 2783 c7 -3 16 -2 19 1 4 3 -2 6 -13 5 -11 0 -14 -3 -6 -6z"/>
<path d="M1148 2783 c6 -2 18 -2 25 0 6 3 1 5 -13 5 -14 0 -19 -2 -12 -5z"/>
<path d="M1228 2783 c6 -2 18 -2 25 0 6 3 1 5 -13 5 -14 0 -19 -2 -12 -5z"/>
<path d="M1298 2783 c6 -2 18 -2 25 0 6 3 1 5 -13 5 -14 0 -19 -2 -12 -5z"/>
<path d="M1378 2783 c6 -2 18 -2 25 0 6 3 1 5 -13 5 -14 0 -19 -2 -12 -5z"/>
<path d="M1458 2783 c6 -2 18 -2 25 0 6 3 1 5 -13 5 -14 0 -19 -2 -12 -5z"/>
<path d="M1528 2783 c6 -2 18 -2 25 0 6 3 1 5 -13 5 -14 0 -19 -2 -12 -5z"/>
<path d="M1608 2783 c6 -2 18 -2 25 0 6 3 1 5 -13 5 -14 0 -19 -2 -12 -5z"/>
<path d="M1998 2783 c6 -2 18 -2 25 0 6 3 1 5 -13 5 -14 0 -19 -2 -12 -5z"/>
<path d="M2078 2783 c6 -2 18 -2 25 0 6 3 1 5 -13 5 -14 0 -19 -2 -12 -5z"/>
<path d="M9862 2750 c0 -14 2 -19 5 -12 2 6 2 18 0 25 -3 6 -5 1 -5 -13z"/>
<path d="M1945 2750 c-3 -6 1 -7 9 -4 18 7 21 14 7 14 -6 0 -13 -4 -16 -10z"/>
<path d="M1889 2693 c-13 -16 -12 -17 4 -4 16 13 21 21 13 21 -2 0 -10 -8 -17
-17z"/>
<path d="M5345 2605 l-56 -105 -79 0 c-70 0 -82 -3 -109 -26 -30 -25 -30 -26
-33 -137 l-3 -112 -230 -5 -230 -5 230 -5 230 -5 5 -332 c5 -329 5 -333 28
-355 l23 -23 729 -3 730 -2 0 -160 c0 -152 -1 -160 -19 -160 -20 0 -20 -1 -1
-52 34 -97 31 -96 57 -28 27 73 28 80 8 80 -13 0 -15 24 -15 160 l0 160 110 0
c123 0 158 11 178 55 9 18 12 119 12 345 l0 320 173 3 172 3 -172 2 -171 2 -4
115 c-4 138 -15 156 -100 165 -48 5 -52 7 -64 40 -7 19 -13 30 -13 23 -1 -6 3
-23 9 -37 l10 -26 -726 0 -725 0 56 105 c31 58 54 105 52 105 -3 0 -31 -47
-62 -105z m1521 -150 c24 -24 25 -30 22 -127 l-3 -103 -145 -5 -145 -6 148 -2
147 -2 0 -319 c0 -176 -3 -326 -6 -335 -5 -14 -27 -16 -140 -16 l-134 0 0 110
c0 91 -3 110 -15 110 -12 0 -15 -19 -15 -110 l0 -110 -742 2 -743 3 -3 333 -2
333 32 -3 33 -3 3 -75 c4 -107 8 -110 153 -110 94 0 121 3 133 16 13 13 16 44
16 184 0 157 -1 170 -19 180 -11 5 -71 10 -134 10 -141 0 -145 -3 -149 -110
l-3 -75 -32 -3 -33 -3 0 107 c0 97 2 110 22 131 l21 23 854 0 854 0 25 -25z
m-1426 -84 c5 -11 10 -60 10 -110 l0 -91 -87 1 -88 1 60 20 60 21 -44 19 c-73
31 -88 32 -94 8 -4 -17 -12 -21 -39 -18 l-33 3 -3 68 c-2 42 2 74 9 83 9 11
39 14 125 14 102 0 114 -2 124 -19z m-182 -183 c3 -15 -4 -18 -37 -18 -39 0
-53 14 -34 34 14 14 68 1 71 -16z"/>
<path d="M6535 2355 c-62 -29 -95 -78 -95 -140 0 -69 58 -138 126 -151 64 -12
164 45 164 92 0 21 -18 17 -25 -6 -9 -29 -71 -63 -117 -63 -105 0 -162 129
-93 211 56 67 131 67 196 0 45 -47 57 -47 28 1 -21 34 -87 71 -129 70 -14 0
-38 -6 -55 -14z"/>
<path d="M5760 2070 c0 -5 14 -10 30 -10 l30 0 0 -90 c0 -73 3 -90 15 -90 12
0 15 17 15 90 l0 90 35 0 c19 0 35 5 35 10 0 6 -33 10 -80 10 -47 0 -80 -4
-80 -10z"/>
<path d="M5940 2075 c0 -3 12 -24 26 -47 28 -44 27 -49 -16 -115 -19 -28 -20
-33 -6 -33 9 0 26 16 37 35 12 19 25 35 29 35 4 0 17 -16 29 -35 11 -19 27
-35 36 -35 20 0 20 2 -15 57 -33 51 -34 40 16 118 27 42 -11 32 -39 -11 l-25
-35 -22 35 c-12 20 -28 36 -36 36 -8 0 -14 -2 -14 -5z"/>
<path d="M6518 1890 c-95 -51 -105 -184 -17 -253 24 -19 37 -23 44 -15 7 7 5
12 -5 16 -30 11 -68 63 -75 102 -8 49 15 94 65 127 112 76 245 -70 168 -184
-13 -18 -26 -33 -29 -33 -3 0 -14 -7 -25 -15 -19 -14 -19 -14 2 -15 30 0 79
53 93 100 21 70 -14 142 -86 179 -33 17 -93 13 -135 -9z"/>
<path d="M9871 2694 c0 -11 3 -14 6 -6 3 7 2 16 -1 19 -3 4 -6 -2 -5 -13z"/>
<path d="M2313 2655 c0 -22 2 -30 4 -17 2 12 2 30 0 40 -3 9 -5 -1 -4 -23z"/>
<path d="M1611 2654 c0 -11 3 -14 6 -6 3 7 2 16 -1 19 -3 4 -6 -2 -5 -13z"/>
<path d="M1829 2643 c-13 -16 -12 -17 4 -4 9 7 17 15 17 17 0 8 -8 3 -21 -13z"/>
<path d="M9882 2640 c0 -14 2 -19 5 -12 2 6 2 18 0 25 -3 6 -5 1 -5 -13z"/>
<path d="M48 2607 c-15 -12 -32 -35 -38 -50 -7 -19 -10 -433 -10 -1244 0
-1347 -4 -1265 65 -1297 45 -22 498 -24 548 -2 72 30 67 -74 67 1302 0 1135
-1 1238 -17 1264 -9 16 -27 33 -40 39 -15 7 -119 11 -286 11 -257 0 -263 -1
-289 -23z m267 -547 c3 -5 16 -10 29 -10 23 0 49 -23 58 -50 3 -9 8 -2 12 18
9 39 35 56 68 43 34 -13 49 -35 55 -80 5 -33 1 -44 -21 -66 -14 -14 -31 -23
-37 -19 -6 3 -36 8 -67 10 l-57 3 43 -19 c47 -21 67 -56 57 -102 -8 -36 -49
-68 -87 -68 -36 0 -83 24 -92 45 -19 52 14 124 57 126 21 0 21 1 -3 10 -49 20
-60 38 -60 99 0 31 3 60 7 63 10 10 31 8 38 -3z m145 -372 c0 -40 -26 -48
-156 -48 l-124 0 0 25 0 25 115 0 c93 0 115 3 115 14 0 18 32 26 42 11 4 -5 8
-18 8 -27z m-10 -289 c-26 -48 -92 -28 -105 33 -9 41 -31 29 -27 -16 2 -30 0
-36 -16 -36 -21 0 -32 25 -32 71 0 42 27 58 105 61 l70 3 8 -48 c4 -29 3 -56
-3 -68z m0 -74 c0 -24 -2 -25 -64 -25 -67 0 -80 -7 -70 -34 5 -12 21 -16 70
-16 l64 0 0 -30 0 -31 -87 3 -88 3 -3 57 c-4 81 14 98 108 98 68 0 70 -1 70
-25z m-70 -204 c4 -47 7 -52 18 -38 7 9 12 31 10 49 -4 43 27 53 42 12 24 -63
-21 -124 -92 -124 -88 0 -123 118 -45 150 47 20 62 9 67 -49z m74 -117 c19
-50 -15 -84 -83 -84 -30 0 -51 -5 -54 -13 -4 -10 11 -12 63 -9 l67 4 6 -48 c3
-27 1 -57 -4 -66 -27 -51 -87 -37 -104 24 -8 28 -14 35 -24 29 -11 -7 -11 -15
-3 -40 10 -29 9 -31 -12 -31 -13 0 -27 7 -30 16 -11 28 -6 71 9 84 12 10 10
17 -20 43 -39 34 -45 57 -15 57 13 0 20 7 20 20 0 15 7 20 25 20 18 0 25 -5
25 -20 0 -17 7 -20 45 -20 41 0 45 2 45 25 0 29 34 36 44 9z m-205 -268 c9
-11 9 -20 2 -35 -19 -34 -13 -68 15 -90 73 -57 175 13 133 91 -8 16 -8 24 4
35 20 20 33 11 47 -33 17 -52 5 -97 -36 -133 -29 -26 -43 -31 -87 -31 -67 0
-111 26 -127 75 -13 40 -8 98 11 121 15 18 23 18 38 0z"/>
<path d="M460 1981 c0 -21 5 -31 16 -31 11 0 14 8 12 27 -4 39 -28 42 -28 4z"/>
<path d="M314 1989 c-8 -14 21 -43 35 -35 19 12 13 46 -8 46 -11 0 -23 -5 -27
-11z"/>
<path d="M317 1826 c-10 -25 3 -46 31 -53 33 -8 57 8 57 38 0 21 -5 24 -41 27
-30 2 -43 -1 -47 -12z"/>
<path d="M384 1444 c3 -9 6 -18 6 -20 0 -2 5 -4 10 -4 6 0 10 9 10 20 0 12 -7
20 -16 20 -11 0 -14 -5 -10 -16z"/>
<path d="M314 1109 c-3 -6 -1 -16 5 -22 8 -8 11 -5 11 11 0 24 -5 28 -16 11z"/>
<path d="M384 834 c3 -8 6 -18 6 -20 0 -2 5 -4 10 -4 16 0 11 27 -6 34 -12 5
-15 2 -10 -10z"/>
<path d="M1769 2593 c-13 -16 -12 -17 4 -4 16 13 21 21 13 21 -2 0 -10 -8 -17
-17z"/>
<path d="M9892 2590 c0 -14 2 -19 5 -12 2 6 2 18 0 25 -3 6 -5 1 -5 -13z"/>
<path d="M1720 2550 c-8 -5 -12 -12 -9 -15 4 -3 12 1 19 10 14 17 11 19 -10 5z"/>
<path d="M9902 2540 c0 -14 2 -19 5 -12 2 6 2 18 0 25 -3 6 -5 1 -5 -13z"/>
<path d="M1581 2504 c0 -11 3 -14 6 -6 3 7 2 16 -1 19 -3 4 -6 -2 -5 -13z"/>
<path d="M1659 2493 c-13 -16 -12 -17 4 -4 9 7 17 15 17 17 0 8 -8 3 -21 -13z"/>
<path d="M1573 2443 c-3 -10 -8 -22 -11 -27 -3 -6 9 0 26 13 37 26 39 31 12
31 -11 0 -23 -8 -27 -17z"/>
<path d="M1730 2225 c0 -11 12 -15 45 -15 33 0 45 4 45 15 0 11 -12 15 -45 15
-33 0 -45 -4 -45 -15z"/>
<path d="M1880 2225 c0 -11 12 -15 45 -15 33 0 45 4 45 15 0 11 -12 15 -45 15
-33 0 -45 -4 -45 -15z"/>
<path d="M1512 2005 c2 -14 8 -26 13 -26 6 0 11 12 13 26 2 18 -1 25 -13 25
-12 0 -15 -7 -13 -25z"/>
<path d="M1510 1865 c0 -33 4 -45 15 -45 11 0 15 12 15 45 0 33 -4 45 -15 45
-11 0 -15 -12 -15 -45z"/>
<path d="M1775 1654 c-44 -13 -91 -25 -105 -26 -38 -2 -130 -28 -130 -38 0
-19 -43 -18 -235 5 -111 14 -210 25 -218 25 -13 0 -15 -43 -16 -326 l-1 -325
30 -11 c38 -13 40 -33 3 -23 -16 4 -24 3 -20 -1 8 -8 226 -71 345 -100 35 -8
73 -12 85 -8 20 6 20 5 8 -10 -9 -11 -23 -16 -35 -13 -12 3 -100 26 -196 51
-152 40 -195 47 -179 32 2 -2 89 -27 193 -56 152 -42 193 -50 212 -41 20 9 22
8 17 -6 -7 -18 -11 -20 85 40 77 48 82 60 7 18 -105 -60 -54 -22 90 66 80 48
141 89 136 91 -5 2 -27 -8 -48 -21 -48 -30 -141 -78 -149 -76 -4 0 -11 -5 -15
-13 -5 -7 -9 -8 -9 -2 0 6 56 46 125 89 l126 77 -2 222 c-1 121 -6 226 -11
233 -5 7 -5 14 2 18 13 8 13 48 -1 62 -8 8 -8 13 0 17 16 10 14 76 -1 75 -7
-1 -49 -12 -93 -25z m-349 -165 c87 -17 93 -32 9 -24 -86 8 -107 14 -100 26 8
12 19 11 91 -2z m3 -95 c39 -9 71 -21 71 -26 0 -6 -10 -8 -22 -5 -13 3 -45 8
-73 12 -65 8 -78 13 -70 25 8 13 10 13 94 -6z m3 -96 c52 -11 87 -28 58 -28
-42 1 -144 20 -153 29 -15 15 26 14 95 -1z m4 -93 c58 -15 79 -25 53 -25 -35
0 -145 22 -153 31 -15 14 35 11 100 -6z m-136 -285 c0 -5 -5 -10 -11 -10 -5 0
-7 5 -4 10 3 6 8 10 11 10 2 0 4 -4 4 -10z m40 -10 c0 -5 -4 -10 -10 -10 -5 0
-10 5 -10 10 0 6 5 10 10 10 6 0 10 -4 10 -10z m45 -10 c3 -5 1 -10 -4 -10 -6
0 -11 5 -11 10 0 6 2 10 4 10 3 0 8 -4 11 -10z m52 -16 c3 -8 12 -13 19 -10 8
3 14 1 14 -4 0 -11 -30 -13 -54 -4 -9 3 -16 12 -16 20 0 19 29 18 37 -2z"/>
<path d="M5603 888 c-48 -23 -55 -121 -10 -153 72 -51 147 39 102 124 -8 16
-25 31 -37 35 -28 7 -28 7 -55 -6z m69 -25 c11 -9 18 -30 18 -50 0 -62 -32
-93 -73 -71 -30 15 -37 27 -37 67 0 61 51 91 92 54z"/>
<path d="M8725 888 c-32 -17 -45 -39 -45 -79 0 -110 132 -122 147 -12 5 37 2
46 -25 73 -33 32 -46 36 -77 18z m69 -30 c17 -23 21 -75 8 -94 -15 -22 -51
-35 -71 -25 -23 13 -43 65 -34 89 19 53 70 69 97 30z"/>
<path d="M5758 883 c15 -6 17 -143 2 -143 -5 0 -10 -4 -10 -10 0 -5 18 -10 40
-10 22 0 40 5 40 10 0 6 -9 10 -20 10 -15 0 -20 7 -20 25 0 19 5 25 23 25 51
0 87 56 55 88 -7 7 -37 12 -67 11 -31 0 -50 -3 -43 -6z m96 -19 c9 -8 16 -19
16 -23 0 -16 -25 -31 -52 -31 -25 0 -28 3 -28 35 0 30 3 35 24 35 14 0 32 -7
40 -16z"/>
<path d="M6088 883 c15 -6 17 -143 2 -143 -5 0 -10 -4 -10 -10 0 -5 16 -10 35
-10 19 0 35 5 35 10 0 6 -7 10 -15 10 -10 0 -15 10 -15 30 0 53 47 37 91 -30
9 -14 21 -21 25 -17 5 4 4 11 -2 15 -5 4 -18 20 -28 35 -17 27 -17 30 0 48 14
16 15 24 6 44 -11 23 -17 25 -74 24 -35 0 -57 -3 -50 -6z m106 -26 c9 -15 7
-21 -8 -33 -11 -8 -30 -14 -43 -14 -20 0 -23 5 -23 36 0 34 1 35 31 32 18 -2
37 -11 43 -21z"/>
<path d="M6268 883 c15 -6 17 -143 2 -143 -5 0 -10 -4 -10 -10 0 -6 30 -10 70
-10 l70 0 0 30 c0 17 -4 30 -10 30 -5 0 -10 -9 -10 -20 0 -17 -7 -20 -40 -20
-38 0 -40 2 -40 30 0 31 17 39 38 18 9 -9 12 -4 12 22 0 26 -3 31 -12 22 -21
-21 -38 -13 -38 18 0 28 2 30 39 30 33 0 40 -4 44 -22 4 -20 4 -19 6 5 1 27 1
27 -66 26 -38 0 -62 -3 -55 -6z"/>
<path d="M6441 858 c2 -31 2 -31 6 -5 3 21 10 27 29 27 23 0 24 -3 24 -70 0
-63 -2 -70 -20 -70 -11 0 -20 -4 -20 -10 0 -5 20 -10 45 -10 25 0 45 5 45 10
0 6 -7 10 -15 10 -12 0 -15 14 -15 70 0 63 2 70 20 70 15 0 20 -7 20 -25 0
-14 5 -25 10 -25 6 0 10 14 10 30 l0 30 -70 0 -70 0 1 -32z"/>
<path d="M6608 883 c7 -3 12 -25 12 -62 0 -68 19 -101 59 -101 44 0 61 27 61
97 0 40 4 63 13 66 6 3 -4 5 -23 5 -19 0 -29 -2 -22 -5 8 -3 12 -27 12 -68 0
-54 -3 -66 -20 -75 -14 -8 -26 -8 -40 0 -17 9 -20 21 -20 75 0 52 3 64 18 68
9 3 -1 5 -23 5 -22 0 -34 -2 -27 -5z"/>
<path d="M6788 884 c15 -7 17 -144 2 -144 -5 0 -10 -4 -10 -10 0 -5 13 -10 29
-10 17 0 33 5 36 10 3 6 -1 10 -9 10 -11 0 -16 9 -16 30 0 44 31 39 74 -12 19
-24 38 -39 43 -35 4 5 3 11 -3 15 -5 4 -19 20 -30 36 -21 29 -21 29 -2 48 17
17 18 22 5 41 -12 18 -25 22 -73 24 -33 1 -53 0 -46 -3z m106 -26 c14 -22 1
-36 -42 -44 -31 -6 -32 -6 -32 30 0 36 1 37 31 34 18 -2 37 -11 43 -20z"/>
<path d="M6958 884 c15 -7 17 -144 1 -144 -5 0 -7 -4 -4 -10 8 -13 55 -13 55
-1 0 5 -5 11 -11 13 -6 2 -9 26 -7 58 l3 55 38 -67 c21 -38 42 -68 47 -68 6 0
10 36 10 79 0 54 4 81 13 84 6 3 -4 6 -23 6 -22 0 -30 -2 -22 -8 9 -5 12 -25
10 -62 l-3 -54 -35 60 c-27 45 -42 61 -60 62 -14 1 -19 0 -12 -3z"/>
<path d="M8873 883 c14 -4 17 -16 17 -74 0 -39 -4 -69 -10 -69 -5 0 -10 -4
-10 -10 0 -5 18 -10 40 -10 22 0 40 5 40 10 0 6 -11 10 -25 10 -20 0 -25 5
-25 25 0 21 5 25 28 25 37 0 72 26 72 54 0 36 -19 46 -84 45 -34 -1 -53 -3
-43 -6z m101 -19 c25 -25 4 -54 -39 -54 -33 0 -35 2 -35 35 0 32 2 35 29 35
16 0 37 -7 45 -16z"/>
<path d="M9208 883 c15 -6 17 -143 2 -143 -5 0 -10 -4 -10 -10 0 -5 16 -10 35
-10 19 0 35 5 35 10 0 6 -7 10 -15 10 -10 0 -15 10 -15 30 0 44 31 39 74 -12
19 -24 38 -39 43 -35 4 5 3 11 -3 15 -5 4 -19 20 -30 36 -20 28 -20 30 -2 48
39 39 8 68 -70 67 -31 0 -51 -3 -44 -6z m106 -25 c14 -22 1 -36 -42 -44 -31
-6 -32 -6 -32 30 0 36 1 37 31 34 18 -2 37 -11 43 -20z"/>
<path d="M9383 883 c14 -4 17 -16 17 -74 0 -39 -4 -69 -10 -69 -5 0 -10 -4
-10 -10 0 -6 30 -10 70 -10 l70 0 0 30 c0 17 -4 30 -10 30 -5 0 -10 -9 -10
-20 0 -17 -7 -20 -45 -20 -43 0 -45 1 -45 30 0 22 5 30 18 30 10 0 23 -5 30
-12 9 -9 12 -5 12 20 0 18 -4 32 -10 32 -5 0 -10 -4 -10 -10 0 -5 -9 -10 -20
-10 -16 0 -20 7 -20 30 0 29 2 30 44 30 38 0 45 -3 49 -22 4 -20 4 -19 6 5 l1
27 -72 -1 c-40 -1 -65 -3 -55 -6z"/>
<path d="M9550 866 c0 -14 5 -28 10 -31 6 -4 10 5 10 19 0 21 5 26 25 26 24 0
25 -2 25 -70 0 -63 -2 -70 -20 -70 -11 0 -20 -4 -20 -10 0 -5 20 -10 45 -10
25 0 45 5 45 10 0 6 -9 10 -20 10 -18 0 -20 7 -20 70 0 68 1 70 25 70 20 0 25
-5 25 -26 0 -14 4 -23 10 -19 6 3 10 17 10 31 0 23 -2 24 -75 24 -73 0 -75 -1
-75 -24z"/>
<path d="M9728 883 c8 -3 12 -27 12 -67 0 -70 17 -96 63 -96 38 0 57 34 57
101 0 37 5 59 13 62 6 3 -6 5 -28 5 -22 0 -32 -2 -22 -5 14 -4 17 -16 17 -68
0 -54 -3 -66 -20 -75 -14 -8 -26 -8 -40 0 -17 9 -20 21 -20 75 0 41 4 65 13
68 6 3 -4 5 -23 5 -19 0 -29 -2 -22 -5z"/>
<path d="M9908 883 c15 -6 17 -143 2 -143 -5 0 -10 -4 -10 -10 0 -5 14 -10 30
-10 17 0 30 5 30 10 0 6 -4 10 -10 10 -5 0 -10 14 -10 30 0 23 5 30 19 30 19
0 71 -52 71 -71 0 -5 7 -9 15 -9 8 0 15 5 15 10 0 6 -4 10 -8 10 -5 0 -19 14
-31 31 -21 28 -22 33 -7 41 19 11 21 49 4 66 -7 7 -37 12 -67 11 -31 0 -50 -3
-43 -6z m101 -17 c15 -18 5 -43 -22 -50 -41 -11 -47 -7 -47 29 0 32 3 35 29
35 16 0 34 -6 40 -14z"/>
<path d="M10078 883 c15 -6 17 -143 2 -143 -5 0 -10 -4 -10 -10 0 -5 14 -10
30 -10 29 0 42 14 19 22 -6 2 -9 25 -7 57 l3 53 38 -66 c22 -36 43 -66 48 -66
5 0 9 36 9 79 0 54 4 81 13 84 6 3 -6 5 -28 5 -22 0 -32 -2 -22 -5 14 -4 17
-16 17 -66 l0 -62 -41 68 c-31 51 -45 67 -62 66 -12 0 -16 -3 -9 -6z"/>
<path d="M2635 868 c-32 -17 -45 -39 -45 -79 0 -51 32 -89 74 -89 46 0 71 30
71 87 0 37 -5 49 -28 69 -31 27 -43 29 -72 12z m65 -28 c38 -38 14 -130 -34
-130 -30 0 -60 37 -60 73 0 66 53 98 94 57z"/>
<path d="M2783 863 c14 -4 17 -16 17 -70 0 -51 -4 -69 -17 -79 -16 -12 -12
-13 30 -14 26 0 47 5 47 10 0 6 -11 10 -25 10 -20 0 -25 5 -25 25 0 22 4 25
33 25 56 0 86 50 51 84 -11 11 -33 16 -72 15 -31 -1 -49 -3 -39 -6z m100 -24
c17 -28 1 -49 -38 -49 -33 0 -35 2 -35 36 0 34 1 35 31 32 18 -2 37 -10 42
-19z"/>
<path d="M3118 864 c15 -7 17 -144 2 -144 -5 0 -10 -4 -10 -10 0 -5 17 -10 38
-10 33 1 35 2 20 14 -21 16 -24 66 -4 66 20 0 64 -37 71 -60 4 -11 13 -20 21
-20 20 0 18 4 -15 41 l-30 32 20 25 c17 22 18 28 6 46 -12 17 -26 21 -73 23
-33 1 -53 0 -46 -3z m93 -14 c37 -21 11 -60 -40 -60 -17 0 -21 6 -21 35 0 29
4 35 21 35 11 0 29 -5 40 -10z"/>
<path d="M3293 863 c14 -4 17 -16 17 -70 0 -51 -4 -69 -17 -79 -16 -11 -7 -13
60 -14 l77 0 0 30 c0 17 -4 30 -10 30 -5 0 -10 -9 -10 -20 0 -17 -7 -20 -45
-20 -43 0 -45 1 -45 30 0 23 4 30 20 30 11 0 20 -4 20 -10 0 -5 5 -10 10 -10
6 0 10 14 10 30 0 17 -4 30 -10 30 -5 0 -10 -4 -10 -10 0 -5 -9 -10 -20 -10
-16 0 -20 7 -20 30 0 28 2 30 40 30 28 0 40 -4 40 -14 0 -8 5 -18 10 -21 6 -4
10 5 10 19 0 26 -1 26 -72 25 -40 -1 -65 -3 -55 -6z"/>
<path d="M3460 840 c0 -16 5 -30 10 -30 6 0 10 11 10 25 0 20 5 25 25 25 24 0
25 -2 25 -70 0 -63 -2 -70 -20 -70 -11 0 -20 -4 -20 -10 0 -5 20 -10 45 -10
25 0 45 5 45 10 0 6 -9 10 -20 10 -18 0 -20 7 -20 70 0 67 1 70 24 70 19 0 26
-6 29 -27 4 -26 4 -26 6 5 l1 32 -70 0 -70 0 0 -30z"/>
<path d="M3638 863 c8 -3 12 -27 12 -67 0 -70 17 -96 63 -96 38 0 57 34 57
101 0 37 5 59 13 62 6 3 -6 5 -28 5 -22 0 -32 -2 -22 -5 14 -4 17 -16 17 -69
0 -60 -2 -65 -26 -76 -23 -11 -29 -10 -45 11 -26 32 -27 127 -1 134 9 3 1 5
-18 5 -19 0 -29 -2 -22 -5z"/>
<path d="M3818 863 c15 -6 17 -143 2 -143 -5 0 -10 -4 -10 -10 0 -5 14 -10 30
-10 17 0 30 5 30 10 0 6 -4 10 -10 10 -5 0 -10 14 -10 30 0 21 5 30 16 30 16
0 74 -55 74 -71 0 -5 7 -9 16 -9 12 0 8 10 -15 39 -27 34 -29 40 -16 51 18 15
20 51 3 68 -7 7 -37 12 -67 11 -31 0 -50 -3 -43 -6z m96 -19 c9 -8 16 -17 16
-19 0 -13 -35 -35 -56 -35 -21 0 -24 5 -24 35 0 30 3 35 24 35 14 0 32 -7 40
-16z"/>
<path d="M3983 863 c14 -4 17 -16 17 -72 0 -39 -5 -72 -12 -79 -9 -9 -5 -12
20 -12 18 0 32 5 32 10 0 6 -7 10 -15 10 -12 0 -15 13 -15 60 0 33 2 60 4 60
2 0 22 -31 45 -70 23 -38 46 -70 51 -70 6 0 10 36 10 79 0 54 4 81 13 84 6 3
-6 5 -28 5 -22 0 -32 -2 -22 -5 14 -4 17 -16 17 -66 0 -68 0 -69 -54 26 -23
38 -33 47 -54 46 -17 -1 -21 -3 -9 -6z"/>
<path d="M1134 660 c-67 -27 -72 -140 -7 -169 42 -19 93 -11 93 15 0 11 -4 12
-19 4 -46 -24 -91 7 -91 64 0 48 24 69 72 63 27 -4 38 -1 38 8 0 22 -49 30
-86 15z"/>
<path d="M5900 650 c0 -6 35 -10 85 -10 50 0 85 4 85 10 0 6 -35 10 -85 10
-50 0 -85 -4 -85 -10z"/>
<path d="M9010 650 c0 -6 37 -10 90 -10 53 0 90 4 90 10 0 6 -37 10 -90 10
-53 0 -90 -4 -90 -10z"/>
<path d="M1366 619 c-11 -14 -14 -24 -8 -28 6 -4 12 -29 14 -56 3 -46 5 -50
31 -53 31 -4 37 13 7 21 -16 4 -20 14 -20 46 0 30 4 41 15 41 8 0 15 5 15 10
0 6 -6 10 -14 10 -8 0 -16 7 -18 15 -2 13 -7 12 -22 -6z"/>
<path d="M2925 630 c-4 -6 27 -10 84 -10 54 0 91 4 91 10 0 6 -35 10 -84 10
-47 0 -88 -4 -91 -10z"/>
<path d="M1263 603 c-22 -8 -14 -19 15 -18 32 0 38 -28 7 -33 -29 -5 -46 -31
-35 -53 7 -13 21 -18 50 -17 l40 0 0 42 c0 65 -32 98 -77 79z m45 -80 c-4 -22
-38 -30 -38 -10 0 14 13 24 33 26 5 1 7 -7 5 -16z"/>
<path d="M1460 590 c-26 -26 -26 -64 1 -91 23 -23 70 -23 77 0 3 9 0 11 -7 6
-18 -11 -61 3 -61 20 0 10 11 15 34 15 43 0 52 14 32 45 -20 30 -49 32 -76 5z
m58 -17 c2 -8 -6 -13 -22 -13 -25 0 -33 10 -19 24 10 10 36 3 41 -11z"/>
<path d="M1573 594 c-9 -23 2 -108 15 -112 8 -2 12 10 12 40 0 51 12 73 33 65
11 -4 17 -22 19 -53 4 -66 28 -72 28 -7 0 26 -4 55 -10 63 -11 17 -90 21 -97
4z"/>
<path d="M1720 600 c-16 -10 -8 -13 28 -10 33 2 26 -32 -8 -40 -20 -5 -25 -12
-25 -35 0 -28 2 -30 43 -31 l42 -1 0 48 c0 67 -36 98 -80 69z m48 -77 c-4 -22
-38 -30 -38 -10 0 14 13 24 33 26 5 1 7 -7 5 -16z"/>
<path d="M2812 458 l3 -113 28 -3 c19 -2 27 1 27 12 0 9 -7 16 -15 16 -12 0
-15 18 -15 100 0 83 -3 100 -15 100 -13 0 -15 -17 -13 -112z"/>
<path d="M6517 552 c-23 -25 -22 -78 1 -99 11 -10 33 -26 50 -35 35 -19 40
-39 17 -58 -13 -11 -22 -10 -50 3 -31 15 -34 15 -39 0 -9 -24 6 -35 57 -40 54
-6 87 19 87 67 0 33 -19 55 -68 82 -34 18 -41 38 -18 57 9 8 21 8 39 2 20 -8
27 -7 31 6 9 21 -11 33 -55 33 -22 0 -42 -7 -52 -18z"/>
<path d="M9617 552 c-23 -25 -22 -78 1 -99 11 -10 33 -26 50 -35 35 -19 40
-39 17 -58 -13 -11 -22 -10 -50 3 -31 15 -34 15 -40 -1 -15 -41 88 -59 125
-22 20 20 26 65 12 86 -4 6 -26 23 -49 38 -44 27 -56 59 -27 70 8 3 24 1 34
-4 25 -13 27 -13 33 9 9 35 -77 45 -106 13z"/>
<path d="M2696 473 l-60 -46 40 -35 c61 -53 84 -66 95 -55 7 7 -6 22 -40 48
-28 20 -51 38 -51 39 0 1 22 19 50 40 27 21 47 42 44 47 -9 15 -16 11 -78 -38z"/>
<path d="M3956 511 c-3 -5 17 -26 44 -47 28 -21 50 -39 50 -40 0 -1 -23 -19
-51 -39 -32 -25 -47 -41 -41 -47 6 -6 16 -6 24 -2 34 21 107 80 108 86 0 9
-111 98 -122 98 -4 0 -9 -4 -12 -9z"/>
<path d="M2896 468 c-22 -31 -20 -84 4 -108 44 -44 120 -11 120 53 0 51 -24
77 -70 77 -29 0 -43 -6 -54 -22z m87 -30 c15 -23 -6 -68 -33 -68 -28 0 -46 40
-30 69 13 26 47 25 63 -1z"/>
<path d="M3051 472 c-5 -10 -9 -43 -9 -73 1 -30 -3 -62 -7 -73 -12 -29 8 -51
49 -54 47 -4 86 20 86 53 0 28 -26 45 -70 45 -19 0 -29 4 -25 10 4 6 10 8 15
5 21 -13 59 15 69 52 15 54 16 53 -44 53 -42 0 -56 -4 -64 -18z m72 -26 c8
-19 -16 -38 -37 -30 -16 6 -21 25 -9 37 12 12 41 7 46 -7z m10 -113 c11 -11
-14 -33 -38 -33 -29 0 -38 10 -24 27 12 14 51 18 62 6z"/>
<path d="M3280 415 c0 -60 3 -75 15 -75 11 0 15 12 15 48 0 55 10 75 36 70 16
-3 20 -14 22 -61 2 -42 7 -57 17 -57 19 0 21 120 3 138 -7 7 -34 12 -60 12
l-48 0 0 -75z"/>
<path d="M3447 483 c-4 -3 -7 -12 -7 -19 0 -10 6 -11 23 -5 12 4 28 6 35 4 23
-8 12 -29 -20 -38 -74 -23 -62 -79 19 -82 l49 -2 -4 62 c-2 34 -9 68 -14 75
-11 13 -70 17 -81 5z m61 -95 c-7 -19 -38 -22 -38 -4 0 10 9 16 21 16 12 0 19
-5 17 -12z"/>
<path d="M3580 415 c0 -60 3 -75 15 -75 11 0 15 12 15 44 0 54 8 76 26 76 20
0 34 -33 34 -79 0 -29 4 -41 15 -41 10 0 15 15 17 58 3 49 6 57 23 57 17 0 20
-8 23 -57 2 -43 7 -58 17 -58 11 0 15 14 15 56 0 88 -5 92 -110 93 l-90 0 0
-74z"/>
<path d="M3827 472 c-24 -26 -22 -87 4 -113 25 -25 92 -24 97 3 3 14 -3 16
-31 11 -29 -4 -37 -1 -46 16 -11 20 -10 21 39 21 55 0 64 15 34 58 -19 28 -74
30 -97 4z m73 -23 c0 -5 -11 -9 -25 -9 -26 0 -34 15 -12 23 16 5 37 -3 37 -14z"/>
<path d="M920 271 c0 -79 2 -92 19 -101 22 -11 43 7 23 19 -6 4 -12 42 -14 86
-2 52 -7 80 -15 83 -10 3 -13 -19 -13 -87z"/>
<path d="M9773 313 c-21 -8 -14 -26 8 -20 32 9 35 -21 5 -52 -37 -38 -33 -51
14 -51 22 0 40 5 40 10 0 6 -9 10 -20 10 -11 0 -20 3 -20 6 0 3 9 17 20 31 25
32 25 49 1 63 -21 11 -29 11 -48 3z"/>
<path d="M6655 300 c-3 -6 1 -13 9 -16 11 -4 16 -19 16 -50 0 -24 5 -44 10
-44 6 0 10 27 10 60 0 53 -2 60 -19 60 -11 0 -23 -5 -26 -10z"/>
<path d="M1000 274 c-18 -21 -17 -72 2 -91 22 -21 68 -20 85 3 16 21 17 58 3
85 -13 24 -72 26 -90 3z m70 -19 c7 -9 10 -25 6 -41 -5 -20 -12 -25 -34 -22
-28 3 -40 32 -28 64 7 18 40 18 56 -1z"/>
<path d="M1133 278 c-4 -7 -8 -38 -9 -68 0 -30 -2 -61 -5 -69 -2 -8 8 -21 22
-29 35 -21 84 1 84 38 0 20 -7 26 -40 35 l-39 12 31 6 c20 4 34 14 37 27 19
65 21 60 -28 60 -25 0 -48 -6 -53 -12z m60 -22 c7 -17 -18 -40 -33 -31 -5 3
-10 15 -10 26 0 23 35 27 43 5z m-9 -92 c28 -11 18 -34 -14 -34 -30 0 -43 23
-17 33 6 3 13 6 14 6 1 1 8 -2 17 -5z"/>
<path d="M1327 283 c-16 -15 -5 -45 23 -62 33 -19 30 -31 -7 -31 -12 0 -23 -4
-23 -9 0 -13 33 -19 59 -10 31 12 25 50 -11 67 -35 16 -36 32 -3 32 14 0 25 5
25 10 0 11 -53 14 -63 3z"/>
<path d="M1424 264 c-13 -19 -15 -32 -8 -52 11 -30 54 -55 78 -46 26 10 18 23
-16 26 -22 2 -34 9 -36 21 -3 14 4 17 37 17 42 0 48 8 31 41 -16 29 -65 25
-86 -7z m66 -4 c0 -5 -12 -10 -26 -10 -14 0 -23 4 -19 10 3 6 15 10 26 10 10
0 19 -4 19 -10z"/>
<path d="M1550 228 c0 -32 4 -58 10 -58 6 0 10 15 10 34 0 50 9 66 36 66 13 0
24 4 24 10 0 5 -18 9 -40 8 l-40 -1 0 -59z"/>
<path d="M1640 283 c0 -19 46 -113 56 -113 6 0 22 27 37 60 18 42 22 60 13 60
-7 0 -21 -19 -32 -41 l-18 -41 -18 41 c-15 36 -38 56 -38 34z"/>
<path d="M1783 278 c-44 -57 5 -133 69 -109 25 10 14 17 -32 23 -14 2 -26 11
-28 21 -3 14 4 17 37 17 33 0 41 4 41 18 0 10 -5 23 -12 30 -16 16 -63 15 -75
0z m57 -18 c0 -5 -12 -10 -26 -10 -14 0 -23 4 -19 10 3 6 15 10 26 10 10 0 19
-4 19 -10z"/>
<path d="M1900 228 c0 -32 4 -58 10 -58 6 0 10 17 10 38 0 41 14 62 42 62 10
0 18 4 18 10 0 5 -18 9 -40 8 l-40 -1 0 -59z"/>
</g>
</svg>
